<svg width="470" height="900" viewBox="0 0 470 900" fill="none" xmlns="http://www.w3.org/2000/svg">
<mask id="mask0_40_60" style="mask-type:alpha" maskUnits="userSpaceOnUse" x="0" y="0" width="470" height="900">
<rect width="470" height="900" fill="#D9D9D9"/>
</mask>
<g mask="url(#mask0_40_60)">
<circle cx="469.659" cy="439.659" r="427.5" transform="rotate(-30 469.659 439.659)" fill="#FCE300" stroke="#FCA600"/>
<circle cx="469.659" cy="439.659" r="392.5" transform="rotate(-30 469.659 439.659)" fill="#FFD600" stroke="#FCA600"/>
<path d="M501.833 763.051L503.394 765.386L505.827 763.982L729.415 634.893L731.825 633.502L730.619 630.994L523.525 200.601L522.122 197.687L519.321 199.304L237.524 362L234.749 363.602L236.53 366.266L501.833 763.051Z" fill="#868686" stroke="#242D1F" stroke-width="6"/>
<path d="M712.819 628.284L498.86 751.813L239.052 364.531L511.207 207.402L712.819 628.284Z" fill="#A9A9A9"/>
<path d="M463.653 439.293C530.264 403.071 558.44 381.054 600.916 465.137C564.692 421.207 562.748 392.942 468.356 447.439L463.653 439.293Z" fill="#868686"/>
<path d="M374.736 285.285L372.138 286.785L373.638 289.383L460.225 439.356L461.725 441.954L464.323 440.454C487.905 426.839 505.713 417.614 519.834 412.415C533.956 407.215 544.01 406.189 552.261 408.494C560.495 410.794 567.499 416.568 575.185 426.277C581.964 434.84 589.025 446.128 597.821 460.192C598.507 461.288 599.203 462.401 599.911 463.532L501.505 520.347L498.906 521.847L500.406 524.445L539.827 592.723L541.327 595.321L543.925 593.821L673.774 518.853L676.186 517.46L674.976 514.952L524.359 202.621L522.956 199.711L520.157 201.326L374.736 285.285Z" stroke="#242D1F" stroke-width="6"/>
<path d="M400.935 286.401L251.68 372.573L448.864 678.142L596.92 592.661L584.472 571.1L551.171 590.326L547.16 583.378L580.46 564.152L569.395 544.986L536.094 564.213L530.7 554.869L564.001 535.643L554.595 519.352L445.829 582.148C408.747 512.112 392.853 490.392 487.245 435.894L400.935 286.401Z" fill="#868686"/>
<path d="M384.319 279.752L386.917 278.252L388.417 280.85L474.727 430.344L476.227 432.942L473.629 434.442C426.365 461.73 408.721 481.204 406.343 501.647C405.146 511.938 407.753 522.898 413.137 535.85C417.766 546.983 424.318 559.304 431.97 573.692C432.767 575.191 433.576 576.712 434.396 578.257L540.469 517.016L543.067 515.516L544.567 518.114L551.483 530.093L552.983 532.691L550.385 534.191L519.682 551.917L525.95 562.772L556.652 545.046L559.25 543.546L560.75 546.144L567.943 558.602L569.443 561.2L566.845 562.7L536.142 580.426L542.686 591.761L573.389 574.034L575.987 572.534L577.487 575.132L583.573 585.674L585.073 588.272L582.475 589.772L443.043 670.273L440.638 671.661L439.068 669.37L234.09 370.218L232.258 367.545L235.065 365.924L384.319 279.752Z" fill="#A9A9A9" stroke="#242D1F" stroke-width="6"/>
<path d="M411.319 474.241L456.989 553.344C456.989 553.344 483.265 529.9 475.098 515.756L456.253 483.115C441.177 457.003 441.177 457.003 467.29 441.927L493.402 426.85C519.515 411.774 519.515 411.774 534.591 437.887L554.258 471.951C562.424 486.095 579.675 473.887 579.675 473.887L537.739 401.252C521.721 373.508 519.043 375.78 477.154 399.964L442.881 419.751L442.881 419.752C410.241 438.597 395.615 447.041 411.319 474.241Z" fill="#868686"/>
<path d="M461.939 439.644C556.405 386.382 560.416 398.032 602.529 465.164" stroke="#242D1F" stroke-width="6"/>
<path d="M451.229 543.457L452.824 546.22L455.483 544.459L453.827 541.957C455.483 544.459 455.484 544.458 455.485 544.457L455.488 544.456L455.494 544.451L455.511 544.44L455.564 544.404C455.607 544.375 455.666 544.335 455.739 544.283C455.885 544.181 456.089 544.035 456.34 543.847C456.842 543.472 457.537 542.929 458.338 542.232C459.929 540.849 461.994 538.817 463.8 536.263C467.427 531.135 470.238 523.467 465.347 514.997L446.502 482.356C442.697 475.765 439.973 471.039 438.344 467.32C436.706 463.581 436.457 461.458 436.874 459.9C437.292 458.341 438.569 456.627 441.858 454.208C445.128 451.802 449.849 449.071 456.441 445.266L482.553 430.19C489.145 426.384 493.87 423.661 497.589 422.031C501.328 420.393 503.451 420.144 505.01 420.562C506.568 420.979 508.282 422.257 510.701 425.545C513.107 428.815 515.838 433.536 519.644 440.128L538.489 472.769C543.403 481.28 551.621 482.565 557.966 481.912C561.137 481.585 563.987 480.776 566.023 480.063C567.048 479.704 567.884 479.364 568.472 479.109C568.767 478.981 569 478.875 569.165 478.798C569.218 478.772 569.265 478.75 569.304 478.732C569.325 478.722 569.343 478.713 569.36 478.705L569.418 478.676L569.436 478.667L569.443 478.664L569.446 478.663C569.447 478.662 569.448 478.661 568.105 475.979L569.448 478.661L572.295 477.236L570.703 474.479L527.988 400.493C524.007 393.598 520.671 388.226 517.227 384.616C513.641 380.856 509.737 378.799 504.752 378.876C500.074 378.949 494.789 380.914 488.354 384.116C482.365 387.096 474.993 391.355 465.711 396.717C464.923 397.172 464.121 397.636 463.305 398.107L429.032 417.894C420.918 422.579 414.509 426.286 409.802 429.604C405.134 432.894 401.69 436.097 399.986 439.948C398.206 443.97 398.546 448.149 400.156 452.814C401.736 457.392 404.676 462.827 408.586 469.598L451.229 543.457Z" fill="#A9A9A9" stroke="#242D1F" stroke-width="6"/>
<path d="M359.751 361.482C337.415 374.378 329.894 402.704 342.705 424.893L377.499 485.158L333.802 510.386L325.809 498.754L250.867 366.185L511.999 215.421L595.174 359.483L563.793 377.601L547.213 348.885L541.451 310.147C528.64 287.958 499.424 280.842 477.088 293.738C454.752 306.633 449.142 333.856 461.953 356.045L480.306 387.834L439.632 411.317L421.279 379.528C408.468 357.339 382.087 348.587 359.751 361.482Z" fill="#868686"/>
<ellipse cx="479.294" cy="330.28" rx="29.3234" ry="28.4935" transform="rotate(-30 479.294 330.28)" fill="#868686"/>
<circle cx="472.716" cy="327.972" r="25.9491" transform="rotate(-30 472.716 327.972)" fill="#A9A9A9" stroke="#242D1F" stroke-width="6"/>
<circle cx="472.716" cy="327.972" r="8.73728" transform="rotate(-30 472.716 327.972)" fill="#242D1F" stroke="#242D1F" stroke-width="6"/>
<circle cx="28.4935" cy="28.4935" r="28.4935" transform="matrix(-0.866025 0.5 0.5 0.866025 391.259 348.207)" fill="#868686"/>
<circle cx="22.9491" cy="22.9491" r="25.9491" transform="matrix(-0.866025 0.5 0.5 0.866025 381.744 353.996)" fill="#A9A9A9" stroke="#242D1F" stroke-width="6"/>
<circle cx="5.73728" cy="5.73728" r="8.73728" transform="matrix(-0.866025 0.5 0.5 0.866025 375.443 377.507)" fill="#242D1F" stroke="#242D1F" stroke-width="6"/>
<path d="M363.884 483.705L366.482 482.205L364.982 479.607L330.188 419.342C318.205 398.587 325.235 372.096 346.136 360.03C366.872 348.057 391.485 356.054 403.565 376.978L427.424 418.302L428.924 420.901L431.522 419.401L472.196 395.918L474.794 394.418L473.294 391.82L449.435 350.495C437.354 329.571 442.736 304.257 463.472 292.285C484.45 280.174 511.798 286.918 523.737 307.597L558.531 367.862L560.031 370.46L562.629 368.96L609.831 341.708L612.429 340.208L610.929 337.61L527.755 193.547L526.255 190.949L523.656 192.449L228.023 363.133L225.425 364.633L226.925 367.231L310.099 511.294L311.599 513.892L314.198 512.392L363.884 483.705Z" fill="#A9A9A9" stroke="#242D1F" stroke-width="6"/>
<path d="M259.846 354.317L257.157 361.963L264.176 357.91L503.541 219.713L510.479 215.707L502.616 214.171L324.121 179.282L321.576 178.785L320.715 181.231L259.846 354.317Z" fill="#A9A9A9" stroke="#242D1F" stroke-width="6"/>
<path d="M228.023 363.133L225.425 364.633L226.925 367.231L247.026 402.048L248.526 404.646L251.124 403.146L546.758 232.462L549.356 230.962L547.856 228.364L527.755 193.547L526.255 190.949L523.656 192.449L228.023 363.133Z" fill="#A9A9A9" stroke="#242D1F" stroke-width="6"/>
<path d="M228.023 363.133L225.425 364.633L226.925 367.231L247.026 402.048L248.526 404.646L251.124 403.146L546.758 232.462L549.356 230.962L547.856 228.364L527.755 193.547L526.255 190.949L523.656 192.449L228.023 363.133Z" fill="#A9A9A9" stroke="#242D1F" stroke-width="6"/>
<ellipse cx="363.364" cy="240.691" rx="40.6654" ry="37.8991" transform="rotate(-30 363.364 240.691)" fill="#868686"/>
<circle cx="357.266" cy="240.632" r="36.6357" transform="rotate(-30 357.266 240.632)" fill="#A9A9A9" stroke="#242D1F" stroke-width="4"/>
<path d="M345.793 248.467L345.798 248.467L345.799 248.467L355.485 237.544L355.493 237.551L355.486 237.538L346.25 221.541L346.245 221.543L346.241 221.546L346.24 221.546L345.788 248.467L345.793 248.467Z" fill="#4A564E" stroke="black" stroke-width="0.01"/>
<path d="M346.246 221.543L355.482 237.541L369.789 234.613L346.246 221.543Z" fill="#232D26"/>
<path d="M355.482 237.541L345.793 248.468L360.1 245.54L369.789 234.613L355.482 237.541Z" fill="#1B2217"/>
<path d="M348.102 252.467L348.103 252.472L348.103 252.473L369.334 261.542L369.336 261.537L369.338 261.533L369.339 261.531L362.413 249.537L362.423 249.531L362.408 249.534L348.101 252.462L348.102 252.467Z" fill="#4A564E" stroke="black" stroke-width="0.01"/>
<path d="M372.098 238.612L362.409 249.539L369.336 261.537L372.098 238.612Z" fill="#232D26"/>
</g>
</svg>
