<svg width="110" height="559" viewBox="0 0 110 559" fill="none" xmlns="http://www.w3.org/2000/svg">
<path d="M55 4V51.7169M55 153V102.358M55 51.7169L103.055 4M55 51.7169L6.94529 4M55 51.7169V102.358M55 102.358L106 153M55 102.358L4 153" stroke="#3672CB" stroke-width="10"/>
<path d="M38 343V282.5M38 282.5V194L77 244L38 282.5ZM38 282.5L95.5 340" stroke="#3672CB" stroke-width="10"/>
<path d="M19 406L56.1842 443.184M56.1842 443.184L93.6316 406M56.1842 443.184L91.2512 478.251L19 550.502M56.1842 443.184L19 480.368L93.6316 555" stroke="#3672CB" stroke-width="10"/>
</svg>
