<svg width="143" height="226" viewBox="0 0 143 226" fill="none" xmlns="http://www.w3.org/2000/svg">
<path d="M37.6937 4V35.5247M37.6937 102.438V68.9816M37.6937 35.5247L69.4416 4M37.6937 35.5247L5.94584 4M37.6937 35.5247V68.9816M37.6937 68.9816L71.3874 102.438M37.6937 68.9816L4 102.438" stroke="white" stroke-opacity="0.55" stroke-width="10"/>
<path d="M26.4624 224V184.03M26.4624 184.03V125.562L52.2282 158.595L26.4624 184.03ZM26.4624 184.03L64.4504 222.018" stroke="white" stroke-opacity="0.55" stroke-width="10"/>
<path d="M87.2432 57.5135L111.809 82.0797M111.809 82.0797L136.549 57.5135M111.809 82.0797L134.977 105.247L87.2432 152.981M111.809 82.0797L87.2432 106.646L136.549 155.952" stroke="white" stroke-opacity="0.55" stroke-width="10"/>
</svg>
