<svg width="28" height="33" viewBox="0 0 28 33" fill="none" xmlns="http://www.w3.org/2000/svg">
<path d="M27.9756 8.88368C27.955 8.83207 27.9162 8.75725 27.8853 8.71596C27.7742 8.56372 19.2667 0.0900361 19.1789 0.0461711C19.0627 -0.0131756 18.8097 -0.0157559 18.6883 0.0410105C18.6392 0.0616529 17.3121 1.15312 15.7423 2.46391C14.1724 3.7747 11.9468 5.63251 10.7978 6.5898C9.64885 7.54709 8.62897 8.40117 8.53086 8.48374C8.30623 8.67726 8.21586 8.85014 8.23909 9.04624C8.25975 9.2217 8.35012 9.37136 8.48954 9.46683L8.60573 9.54424L11.6163 9.55198L14.6269 9.55714L14.6708 9.7584C14.8489 10.6047 14.9703 11.8717 14.9703 12.8986C14.9677 17.2025 13.4366 21.2407 10.5164 24.6519C8.15647 27.4076 4.85672 29.8047 0.787546 31.7115C0.142055 32.0134 0.0413587 32.0986 0.00521118 32.3721C-0.0180265 32.5476 0.0361948 32.6972 0.173039 32.834C0.361522 33.0249 0.418325 33.0327 1.0664 32.9501C6.18643 32.2895 10.55 30.8033 13.86 28.592C16.0624 27.1186 17.8259 25.3356 19.1582 23.2327C20.6687 20.8485 21.6033 18.0437 21.9028 15.0016C21.9777 14.2352 21.9984 13.7527 21.9984 12.8341C21.9958 11.691 21.9364 10.7699 21.8022 9.84871L21.7712 9.63455L24.6914 9.62939C27.3508 9.62164 27.6167 9.61906 27.6864 9.57778C27.7871 9.52359 27.9008 9.41006 27.9498 9.31717C28.004 9.21138 28.0169 8.99463 27.9756 8.88368Z" fill="#FFD600"/>
</svg>
