<svg width="208" height="419" viewBox="0 0 208 419" fill="none" xmlns="http://www.w3.org/2000/svg">
<mask id="mask0_96_175" style="mask-type:alpha" maskUnits="userSpaceOnUse" x="0" y="0" width="208" height="419">
<rect width="208" height="419" fill="#D9D9D9"/>
</mask>
<g mask="url(#mask0_96_175)">
<circle cx="206.5" cy="211.5" r="206" transform="rotate(-36.1618 206.5 211.5)" fill="#FCE300" stroke="#FCA600"/>
<circle cx="206.5" cy="211.5" r="189.143" transform="rotate(-36.1618 206.5 211.5)" fill="#FFD600" stroke="#FCA600"/>
<path d="M325.259 281.403L235.757 346.817L104.209 189.653L217.012 107.209L325.259 281.403Z" fill="#A9A9A9" stroke="#242D1F"/>
<path d="M294.551 233.124L254.773 262.197L252.592 259.214L239.664 268.662L236.757 264.685L249.685 255.236L245.324 249.269L232.396 258.718L229.489 254.74L242.417 245.291L238.056 239.324L225.128 248.773L222.22 244.795L263.988 214.269C252.404 198.353 235.49 187.801 227.534 193.616" stroke="#242D1F"/>
<path d="M201.451 306.14L257.207 265.39L252.658 259.166L239.796 268.566L236.888 264.588L249.75 255.188L245.389 249.221L232.528 258.622L229.62 254.644L242.482 245.243L238.108 239.258L225.246 248.659L214.659 256.397L209.365 260.266L195.28 270.56C177.85 246.711 176.816 230.684 182.783 226.323" stroke="#242D1F"/>
<path d="M182.056 225.328L203.665 254.894C203.665 254.894 210.438 249.275 206.3 243.613L196.751 230.547C189.111 220.094 189.111 220.094 199.564 212.455L210.017 204.815C220.47 197.176 220.47 197.176 228.109 207.628L237.659 220.694C241.797 226.356 249.41 221.46 249.41 221.46L227.765 191.844C219.648 180.738 218.609 181.831 201.841 194.086L188.122 204.113C175.056 213.663 174.098 214.44 182.056 225.328Z" fill="#A9A9A9" stroke="#242D1F"/>
<path d="M147.826 181.94C138.634 188.658 137.574 200.801 144.208 209.877L161.544 233.598L142.462 247.544L100.905 190.683L218.439 104.781L259.996 161.642L241.909 174.862L224.572 151.141C221.222 146.557 215.859 144.147 210.229 143.707C204.601 143.268 198.655 144.791 194.08 148.134C189.49 151.489 187.282 155.947 187.074 160.714C186.867 165.465 188.646 170.48 191.942 174.99L203.737 191.128L188.263 202.438L176.468 186.299C169.811 177.192 156.987 175.244 147.826 181.94Z" fill="#A9A9A9" stroke="#242D1F"/>
<path d="M209.697 114.569L113.879 184.598L131.887 107.901L209.697 114.569Z" fill="#A9A9A9" stroke="#242D1F"/>
<path d="M100.905 190.683L218.439 104.781L228.035 117.911L110.501 203.813L100.905 190.683Z" fill="#A9A9A9" stroke="#242D1F"/>
<path d="M191.963 169.996C190.866 161.126 197.168 153.046 206.039 151.949" stroke="#242D1F"/>
<circle cx="202.287" cy="163.247" r="9.3541" transform="rotate(-36.1618 202.287 163.247)" fill="#A9A9A9" stroke="#242D1F"/>
<circle cx="202.287" cy="163.247" r="1.96352" transform="rotate(-36.1618 202.287 163.247)" fill="#A9A9A9" stroke="#242D1F"/>
<path d="M171.946 184.626C163.827 180.888 154.215 184.439 150.476 192.557" stroke="#242D1F"/>
<circle cx="9.8541" cy="9.8541" r="9.3541" transform="matrix(-0.807354 0.590068 0.590068 0.807354 164.649 178.549)" fill="#A9A9A9" stroke="#242D1F"/>
<circle cx="2.46352" cy="2.46352" r="1.96352" transform="matrix(-0.807354 0.590068 0.590068 0.807354 163.043 188.877)" fill="#A9A9A9" stroke="#242D1F"/>
<circle cx="150.236" cy="133.007" r="14.3722" transform="rotate(-36.1618 150.236 133.007)" stroke="#242D1F"/>
<path d="M144.652 125.366L145.699 136.881L149.332 131.77L144.652 125.366Z" fill="#4A564E" stroke="black" stroke-width="0.01"/>
<path d="M144.652 125.366L149.333 131.77L155.306 129.86L144.652 125.366Z" fill="#232D26"/>
<path d="M149.332 131.77L145.699 136.881L151.672 134.972L155.305 129.861L149.332 131.77Z" fill="#1B2217"/>
<path d="M152.842 136.573L146.87 138.482L156.353 141.376L152.842 136.573Z" fill="#4A564E" stroke="black" stroke-width="0.01"/>
<path d="M156.476 131.461L152.843 136.573L156.353 141.375L156.476 131.461Z" fill="#232D26"/>
</g>
</svg>
