<svg width="480" height="207" viewBox="0 0 480 207" fill="none" xmlns="http://www.w3.org/2000/svg">
<g opacity="0.9">
<path d="M147.147 102V101.947L147.135 101.894C145.417 93.9177 147.251 87.4546 151.81 82.2106C156.391 76.9412 163.754 72.8685 173.146 69.7873C191.929 63.6259 218.603 61.4998 246.613 61.4998C274.569 61.4998 299.128 67.1851 316.681 75.4358C325.459 79.5616 332.466 84.32 337.271 89.3123C342.079 94.308 344.646 99.4978 344.646 104.5C344.646 109.482 342.099 113.877 337.319 117.69C332.531 121.51 325.538 124.715 316.754 127.286C299.19 132.429 274.61 135 246.613 135C218.624 135 193.689 131.805 175.768 126.04C166.806 123.157 159.63 119.641 154.704 115.585C149.782 111.533 147.147 106.98 147.147 102Z" fill="#FCE300" stroke="#FCA600"/>
<path d="M348.579 93.4998C348.579 98.4802 345.85 103.287 340.776 107.72C335.704 112.152 328.336 116.166 319.187 119.547C300.894 126.308 275.589 130.5 247.613 130.5C219.637 130.5 194.332 126.308 176.039 119.547C166.89 116.166 159.521 112.152 154.449 107.72C149.376 103.287 146.646 98.4802 146.646 93.4998C146.646 88.5193 149.376 83.7126 154.449 79.2796C159.521 74.8475 166.89 70.8334 176.039 67.4522C194.332 60.6914 219.637 56.4998 247.613 56.4998C275.589 56.4998 300.894 60.6914 319.187 67.4522C328.336 70.8334 335.704 74.8475 340.776 79.2796C345.85 83.7126 348.579 88.5193 348.579 93.4998Z" fill="#FCE300" stroke="#FCA600"/>
<path d="M340.296 93.4998C340.296 98.0487 337.808 102.171 333.165 105.818C328.518 109.468 321.76 112.602 313.358 115.154C296.559 120.257 273.317 123 247.613 123C221.909 123 198.667 120.257 181.868 115.154C173.466 112.602 166.708 109.468 162.061 105.818C157.418 102.171 154.93 98.0487 154.93 93.4998C154.93 88.942 157.427 84.5379 162.081 80.4711C166.735 76.4053 173.497 72.721 181.896 69.6169C198.69 63.41 221.925 59.561 247.613 59.561C273.302 59.561 296.536 63.41 313.33 69.6169C321.729 72.721 328.491 76.4053 333.145 80.4711C337.799 84.5379 340.296 88.942 340.296 93.4998Z" fill="#C5A607" stroke="#FCA600"/>
<path d="M338.5 94.5653C338.5 99.0132 336.129 103.047 331.671 106.619C327.209 110.195 320.697 113.27 312.54 115.778C296.23 120.792 273.472 123.5 247.751 123.5C222.031 123.5 199.399 120.663 183.215 115.521C175.121 112.949 168.672 109.811 164.255 106.187C159.843 102.567 157.5 98.5003 157.5 94.0489C157.5 89.5916 159.85 85.3272 164.269 81.4145C168.69 77.5008 175.143 73.9775 183.236 71.0207C199.416 65.1085 222.042 61.4998 247.751 61.4998C273.457 61.4998 296.208 65.2371 312.513 71.2781C320.668 74.2994 327.184 77.8872 331.652 81.8499C336.121 85.8125 338.5 90.1094 338.5 94.5653Z" fill="#FFD600" stroke="#FCA600"/>
<path d="M198 104L199 102L201 75.4998H200.5L198 104Z" fill="#FCA600" stroke="#FCA600" stroke-width="0.4"/>
<path d="M253 107.5L198 104L199 102.5L253.5 105L254 105.5V107H282.5V103L302.5 88.4998V89.9998L284 104V108.5H253.5L253 107.5Z" fill="#FCA600" stroke="#FCA600" stroke-width="0.4"/>
<path d="M199.001 102.161L201 75.4998L280.5 69.9998L282.015 106.146L199.001 102.161Z" fill="#FFD600" stroke="#9B8200"/>
<path d="M222.177 103.117L222.177 90.3632L223.677 90.3632L223.677 86.218L225.677 86.218L225.677 90.3632L228.677 90.3632L228.677 86.218L230.677 86.218L230.677 90.3632L233.677 90.3632L233.677 86.218L235.677 86.218L235.677 99.6101C243.668 99.6201 251.177 97.6969 251.177 95.146" stroke="#9B8200"/>
<path d="M221.443 73.9998L221 89.9998L224.065 89.9998L224.065 85.9726L226.024 85.9726L226.024 89.9998L228.962 89.9998L228.962 85.9726L230.921 85.9726L230.921 89.9998L233.869 89.9998L233.869 85.9726L233.869 82.6576L233.869 81L233.869 76.5901C245.613 76.5901 251 78.7697 251 80.638" stroke="#9B8200"/>
<path d="M212.172 77.4956L212.172 86.4572L200.5 85.9998L201 75.4998" stroke="#9B8200"/>
<path d="M213 97.9998L212.5 88.4998L200 88.4998L199.033 102.161" stroke="#9B8200"/>
<path d="M251.677 80.7975L236.812 80.7975C236.812 80.7975 237.031 83.0714 239.878 83.0714L246.447 83.0714C251.703 83.0714 251.703 83.0714 251.703 86.4229L251.703 89.7744C251.703 93.1259 251.703 93.1259 246.447 93.1259L239.878 93.1259C237.031 93.1259 236.812 95.465 236.812 95.465L251.703 95.465C257.287 95.465 257.177 95.0809 257.177 89.7046L257.177 85.3057C257.177 81.1163 257.152 80.7975 251.677 80.7975Z" fill="#FFD600" stroke="#9B8200"/>
<path d="M274.393 80.271C274.393 78.6003 273.334 77.2379 271.779 76.3185C270.222 75.3982 268.108 74.8769 265.807 74.8769L254.208 74.8769L254.471 70.4998L279.041 70.4998L282.127 106.444L254.177 106.444L254.177 101.386L265.807 101.386C268.146 101.386 270.272 100.622 271.823 99.4699C273.362 98.3254 274.393 96.7468 274.393 95.1016C274.393 93.4144 273.314 92.1686 271.752 91.3715C270.195 90.5772 268.087 90.1821 265.807 90.1821L257.989 90.1821L257.989 85.9617L265.807 85.9617C268.121 85.9617 270.239 85.3606 271.794 84.3622C273.344 83.3673 274.393 81.9325 274.393 80.271Z" fill="#FFD600" stroke="#9B8200"/>
<path d="M281.355 103.492L280.5 73.9998L302.177 88.249L281.355 103.492Z" fill="#FFD600" stroke="#9B8200"/>
<path d="M274.523 69.9998L280.028 69.9998L282.142 106.444L276.143 106.444L274.523 69.9998Z" fill="#FFD600" stroke="#9B8200"/>
<path d="M267.438 91.3198C270.608 92.4455 271.746 94.9968 269.981 97.0182" stroke="#9B8200"/>
<path d="M267.177 96.5592C266.153 96.5592 265.25 96.2935 264.618 95.8905C263.98 95.4837 263.677 94.983 263.677 94.5083C263.677 94.0337 263.98 93.5329 264.618 93.1262C265.25 92.7231 266.153 92.4575 267.177 92.4575C268.201 92.4575 269.105 92.7231 269.737 93.1262C270.375 93.5329 270.677 94.0337 270.677 94.5083C270.677 94.983 270.375 95.4837 269.737 95.8905C269.105 96.2935 268.201 96.5592 267.177 96.5592Z" fill="#FFD600" stroke="#9B8200"/>
<mask id="path-18-inside-1_116_383" fill="white">
<ellipse cx="267.177" cy="94.5084" rx="0.637716" ry="1" transform="rotate(90 267.177 94.5084)"/>
</mask>
<ellipse cx="267.177" cy="94.5084" rx="0.637716" ry="1" transform="rotate(90 267.177 94.5084)" fill="#FFD600"/>
<path d="M267.177 94.1461C267.062 94.1461 267.005 94.1145 267.008 94.1162C267.011 94.1183 267.048 94.1423 267.089 94.2039C267.133 94.2703 267.177 94.3759 267.177 94.5084L265.177 94.5084C265.177 95.1439 265.579 95.5773 265.932 95.8025C266.297 96.035 266.74 96.1461 267.177 96.1461L267.177 94.1461ZM267.177 94.5084C267.177 94.6409 267.133 94.7464 267.089 94.8129C267.048 94.8745 267.011 94.8984 267.008 94.9006C267.005 94.9023 267.062 94.8707 267.177 94.8707L267.177 92.8707C266.74 92.8707 266.297 92.9818 265.932 93.2143C265.579 93.4394 265.177 93.8728 265.177 94.5084L267.177 94.5084ZM267.177 94.8707C267.292 94.8707 267.349 94.9023 267.347 94.9006C267.343 94.8984 267.306 94.8745 267.265 94.8129C267.221 94.7464 267.177 94.6409 267.177 94.5084L269.177 94.5084C269.177 93.8728 268.775 93.4394 268.422 93.2143C268.057 92.9818 267.615 92.8707 267.177 92.8707L267.177 94.8707ZM267.177 94.5084C267.177 94.3759 267.221 94.2703 267.265 94.2039C267.306 94.1423 267.343 94.1183 267.347 94.1162C267.349 94.1145 267.292 94.1461 267.177 94.1461L267.177 96.1461C267.615 96.1461 268.057 96.035 268.422 95.8025C268.775 95.5773 269.177 95.1439 269.177 94.5084L267.177 94.5084Z" fill="#9B8200" mask="url(#path-18-inside-1_116_383)"/>
<path d="M267.438 84.9016C270.608 83.7758 271.746 81.2246 269.981 79.2032" stroke="#9B8200"/>
<path d="M267.177 79.7032C266.153 79.7032 265.25 79.9689 264.618 80.3719C263.98 80.7787 263.677 81.2794 263.677 81.7541C263.677 82.2287 263.98 82.7295 264.618 83.1362C265.25 83.5393 266.153 83.8049 267.177 83.8049C268.201 83.8049 269.105 83.5393 269.737 83.1362C270.375 82.7295 270.677 82.2287 270.677 81.7541C270.677 81.2794 270.375 80.7787 269.737 80.3719C269.105 79.9689 268.201 79.7032 267.177 79.7032Z" fill="#FFD600" stroke="#9B8200"/>
<mask id="path-22-inside-2_116_383" fill="white">
<ellipse cx="0.637716" cy="1" rx="0.637716" ry="1" transform="matrix(4.37114e-08 -1 -1 -4.37114e-08 268.177 82.3918)"/>
</mask>
<ellipse cx="0.637716" cy="1" rx="0.637716" ry="1" transform="matrix(4.37114e-08 -1 -1 -4.37114e-08 268.177 82.3918)" fill="#FFD600"/>
<path d="M267.177 82.1164C267.062 82.1164 267.005 82.148 267.008 82.1463C267.011 82.1441 267.048 82.1202 267.089 82.0586C267.133 81.9921 267.177 81.8865 267.177 81.7541L265.177 81.7541C265.177 81.1185 265.579 80.6851 265.932 80.46C266.297 80.2275 266.74 80.1164 267.177 80.1164L267.177 82.1164ZM267.177 81.7541C267.177 81.6216 267.133 81.516 267.089 81.4496C267.048 81.388 267.011 81.364 267.008 81.3619C267.005 81.3601 267.062 81.3918 267.177 81.3918L267.177 83.3918C266.74 83.3918 266.297 83.2807 265.932 83.0481C265.579 82.823 265.177 82.3896 265.177 81.7541L267.177 81.7541ZM267.177 81.3918C267.292 81.3918 267.349 81.3601 267.347 81.3619C267.343 81.364 267.306 81.388 267.265 81.4496C267.221 81.516 267.177 81.6216 267.177 81.7541L269.177 81.7541C269.177 82.3896 268.775 82.823 268.422 83.0481C268.057 83.2807 267.615 83.3918 267.177 83.3918L267.177 81.3918ZM267.177 81.7541C267.177 81.8865 267.221 81.9921 267.265 82.0586C267.306 82.1202 267.343 82.1441 267.347 82.1463C267.349 82.148 267.292 82.1164 267.177 82.1164L267.177 80.1164C267.615 80.1164 268.057 80.2275 268.422 80.46C268.775 80.6851 269.177 81.1185 269.177 81.7541L267.177 81.7541Z" fill="#9B8200" mask="url(#path-22-inside-2_116_383)"/>
<path d="M289.554 91.5989C287.968 91.5989 286.555 91.1879 285.554 90.5497C284.548 89.9079 284.017 89.0824 284.017 88.249C284.017 87.4157 284.548 86.5902 285.554 85.9483C286.555 85.3102 287.968 84.8992 289.554 84.8992C291.141 84.8992 292.554 85.3102 293.554 85.9483C294.561 86.5902 295.091 87.4157 295.091 88.249C295.091 89.0824 294.561 89.9079 293.554 90.5497C292.554 91.1879 291.141 91.5989 289.554 91.5989Z" stroke="#9B8200"/>
<path d="M293.396 88.2491L289.371 86.7091L290.176 88.2491L293.396 88.2491Z" fill="#4A564E" stroke="black" stroke-width="0.01"/>
<path d="M293.396 88.2491L290.176 88.2491L289.371 89.789L293.396 88.2491Z" fill="#232D26"/>
<path d="M290.176 88.2491L289.371 86.7091L288.566 88.2491L289.371 89.789L290.176 88.2491Z" fill="#1B2217"/>
<path d="M287.761 88.2491L288.566 86.7091L285.347 88.2491L287.761 88.2491Z" fill="#4A564E" stroke="black" stroke-width="0.01"/>
<path d="M288.566 89.789L287.761 88.249L285.347 88.249L288.566 89.789Z" fill="#232D26"/>
<path d="M210.147 159V158.947L210.135 158.895C208.417 150.918 210.251 144.455 214.81 139.211C219.391 133.941 226.754 129.869 236.146 126.787C254.929 120.626 281.603 118.5 309.613 118.5C337.569 118.5 362.128 124.185 379.681 132.436C388.459 136.562 395.466 141.32 400.271 146.312C405.079 151.308 407.646 156.498 407.646 161.5C407.646 166.482 405.099 170.877 400.319 174.69C395.531 178.51 388.538 181.715 379.754 184.287C362.19 189.429 337.61 192 309.613 192C281.624 192 256.689 188.805 238.768 183.04C229.806 180.157 222.63 176.641 217.704 172.586C212.782 168.533 210.147 163.98 210.147 159Z" fill="#FCE300" stroke="#FCA600"/>
<path d="M411.579 150.5C411.579 155.48 408.85 160.287 403.776 164.72C398.704 169.152 391.336 173.166 382.187 176.547C363.894 183.308 338.589 187.5 310.613 187.5C282.637 187.5 257.332 183.308 239.039 176.547C229.89 173.166 222.521 169.152 217.449 164.72C212.376 160.287 209.646 155.48 209.646 150.5C209.646 145.519 212.376 140.713 217.449 136.28C222.521 131.848 229.89 127.833 239.039 124.452C257.332 117.692 282.637 113.5 310.613 113.5C338.589 113.5 363.894 117.692 382.187 124.452C391.336 127.833 398.704 131.848 403.776 136.28C408.85 140.713 411.579 145.519 411.579 150.5Z" fill="#FCE300" stroke="#FCA600"/>
<path d="M403.296 150.5C403.296 155.049 400.808 159.171 396.165 162.818C391.518 166.469 384.76 169.602 376.358 172.154C359.559 177.257 336.317 180 310.613 180C284.909 180 261.667 177.257 244.868 172.154C236.466 169.602 229.708 166.469 225.061 162.818C220.418 159.171 217.93 155.049 217.93 150.5C217.93 145.942 220.427 141.538 225.081 137.471C229.735 133.405 236.497 129.721 244.896 126.617C261.69 120.41 284.925 116.561 310.613 116.561C336.302 116.561 359.536 120.41 376.33 126.617C384.729 129.721 391.491 133.405 396.145 137.471C400.799 141.538 403.296 145.942 403.296 150.5Z" fill="#C5A607" stroke="#FCA600"/>
<path d="M401.5 151.565C401.5 156.013 399.129 160.047 394.671 163.619C390.209 167.195 383.697 170.27 375.54 172.778C359.23 177.792 336.472 180.5 310.751 180.5C285.031 180.5 262.399 177.663 246.215 172.521C238.121 169.949 231.672 166.811 227.255 163.187C222.843 159.568 220.5 155.5 220.5 151.049C220.5 146.592 222.85 142.327 227.269 138.415C231.69 134.501 238.143 130.978 246.236 128.021C262.416 122.109 285.042 118.5 310.751 118.5C336.457 118.5 359.208 122.237 375.513 128.278C383.668 131.299 390.184 134.887 394.652 138.85C399.121 142.813 401.5 147.109 401.5 151.565Z" fill="#FFD600" stroke="#FCA600"/>
<path d="M261 161L262 159L264 132.5H263.5L261 161Z" fill="#FCA600" stroke="#FCA600" stroke-width="0.4"/>
<path d="M316 164.5L261 161L262 159.5L316.5 162L317 162.5V164H345.5V160L365.5 145.5V147L347 161V165.5H316.5L316 164.5Z" fill="#FCA600" stroke="#FCA600" stroke-width="0.4"/>
<path d="M262.001 159.161L264 132.5L343.5 127L345.015 163.146L262.001 159.161Z" fill="#FFD600" stroke="#9B8200"/>
<path d="M285.177 160.118L285.177 147.363L286.677 147.363L286.677 143.218L288.677 143.218L288.677 147.363L291.677 147.363L291.677 143.218L293.677 143.218L293.677 147.363L296.677 147.363L296.677 143.218L298.677 143.218L298.677 156.61C306.668 156.62 314.177 154.697 314.177 152.146" stroke="#9B8200"/>
<path d="M284.443 131L284 147L287.065 147L287.065 142.973L289.024 142.973L289.024 147L291.962 147L291.962 142.973L293.921 142.973L293.921 147L296.869 147L296.869 142.973L296.869 139.658L296.869 138L296.869 133.59C308.613 133.59 314 135.77 314 137.638" stroke="#9B8200"/>
<path d="M275.172 134.496L275.172 143.457L263.5 143L264 132.5" stroke="#9B8200"/>
<path d="M276 155L275.5 145.5L263 145.5L262.033 159.161" stroke="#9B8200"/>
<path d="M314.677 137.798L299.812 137.798C299.812 137.798 300.031 140.072 302.878 140.072L309.447 140.072C314.703 140.072 314.703 140.072 314.703 143.423L314.703 146.775C314.703 150.126 314.703 150.126 309.447 150.126L302.878 150.126C300.031 150.126 299.812 152.465 299.812 152.465L314.703 152.465C320.287 152.465 320.177 152.081 320.177 146.705L320.177 142.306C320.177 138.116 320.152 137.798 314.677 137.798Z" fill="#FFD600" stroke="#9B8200"/>
<path d="M337.393 137.271C337.393 135.6 336.334 134.238 334.779 133.319C333.222 132.398 331.108 131.877 328.807 131.877L317.208 131.877L317.471 127.5L342.041 127.5L345.127 163.444L317.177 163.444L317.177 158.386L328.807 158.386C331.146 158.386 333.272 157.623 334.823 156.47C336.362 155.325 337.393 153.747 337.393 152.102C337.393 150.415 336.314 149.169 334.752 148.372C333.195 147.577 331.087 147.182 328.807 147.182L320.989 147.182L320.989 142.962L328.807 142.962C331.121 142.962 333.239 142.361 334.794 141.362C336.344 140.367 337.393 138.933 337.393 137.271Z" fill="#FFD600" stroke="#9B8200"/>
<path d="M344.355 160.492L343.5 131L365.177 145.249L344.355 160.492Z" fill="#FFD600" stroke="#9B8200"/>
<path d="M337.523 127L343.028 127L345.142 163.444L339.143 163.444L337.523 127Z" fill="#FFD600" stroke="#9B8200"/>
<path d="M330.438 148.32C333.608 149.446 334.746 151.997 332.981 154.018" stroke="#9B8200"/>
<path d="M330.177 153.559C329.153 153.559 328.25 153.294 327.618 152.891C326.98 152.484 326.677 151.983 326.677 151.508C326.677 151.034 326.98 150.533 327.618 150.126C328.25 149.723 329.153 149.458 330.177 149.458C331.201 149.458 332.105 149.723 332.737 150.126C333.375 150.533 333.677 151.034 333.677 151.508C333.677 151.983 333.375 152.484 332.737 152.891C332.105 153.294 331.201 153.559 330.177 153.559Z" fill="#FFD600" stroke="#9B8200"/>
<mask id="path-47-inside-3_116_383" fill="white">
<ellipse cx="330.177" cy="151.508" rx="0.637716" ry="1" transform="rotate(90 330.177 151.508)"/>
</mask>
<ellipse cx="330.177" cy="151.508" rx="0.637716" ry="1" transform="rotate(90 330.177 151.508)" fill="#FFD600"/>
<path d="M330.177 151.146C330.062 151.146 330.005 151.115 330.008 151.116C330.011 151.118 330.048 151.142 330.089 151.204C330.133 151.27 330.177 151.376 330.177 151.509L328.177 151.509C328.177 152.144 328.579 152.577 328.932 152.803C329.297 153.035 329.74 153.146 330.177 153.146L330.177 151.146ZM330.177 151.509C330.177 151.641 330.133 151.747 330.089 151.813C330.048 151.875 330.011 151.899 330.008 151.901C330.005 151.902 330.062 151.871 330.177 151.871L330.177 149.871C329.74 149.871 329.297 149.982 328.932 150.214C328.579 150.44 328.177 150.873 328.177 151.509L330.177 151.509ZM330.177 151.871C330.292 151.871 330.349 151.902 330.347 151.901C330.343 151.899 330.306 151.875 330.265 151.813C330.221 151.747 330.177 151.641 330.177 151.509L332.177 151.509C332.177 150.873 331.775 150.44 331.422 150.214C331.057 149.982 330.615 149.871 330.177 149.871L330.177 151.871ZM330.177 151.509C330.177 151.376 330.221 151.27 330.265 151.204C330.306 151.142 330.343 151.118 330.347 151.116C330.349 151.115 330.292 151.146 330.177 151.146L330.177 153.146C330.615 153.146 331.057 153.035 331.422 152.803C331.775 152.577 332.177 152.144 332.177 151.509L330.177 151.509Z" fill="#9B8200" mask="url(#path-47-inside-3_116_383)"/>
<path d="M330.438 141.902C333.608 140.776 334.746 138.225 332.981 136.203" stroke="#9B8200"/>
<path d="M330.177 136.703C329.153 136.703 328.25 136.969 327.618 137.372C326.98 137.779 326.677 138.28 326.677 138.754C326.677 139.229 326.98 139.73 327.618 140.136C328.25 140.539 329.153 140.805 330.177 140.805C331.201 140.805 332.105 140.539 332.737 140.136C333.375 139.73 333.677 139.229 333.677 138.754C333.677 138.28 333.375 137.779 332.737 137.372C332.105 136.969 331.201 136.703 330.177 136.703Z" fill="#FFD600" stroke="#9B8200"/>
<mask id="path-51-inside-4_116_383" fill="white">
<ellipse cx="0.637716" cy="1" rx="0.637716" ry="1" transform="matrix(4.37114e-08 -1 -1 -4.37114e-08 331.177 139.392)"/>
</mask>
<ellipse cx="0.637716" cy="1" rx="0.637716" ry="1" transform="matrix(4.37114e-08 -1 -1 -4.37114e-08 331.177 139.392)" fill="#FFD600"/>
<path d="M330.177 139.116C330.062 139.116 330.005 139.148 330.008 139.146C330.011 139.144 330.048 139.12 330.089 139.059C330.133 138.992 330.177 138.887 330.177 138.754L328.177 138.754C328.177 138.119 328.579 137.685 328.932 137.46C329.297 137.228 329.74 137.116 330.177 137.116L330.177 139.116ZM330.177 138.754C330.177 138.622 330.133 138.516 330.089 138.45C330.048 138.388 330.011 138.364 330.008 138.362C330.005 138.36 330.062 138.392 330.177 138.392L330.177 140.392C329.74 140.392 329.297 140.281 328.932 140.048C328.579 139.823 328.177 139.39 328.177 138.754L330.177 138.754ZM330.177 138.392C330.292 138.392 330.349 138.36 330.347 138.362C330.343 138.364 330.306 138.388 330.265 138.45C330.221 138.516 330.177 138.622 330.177 138.754L332.177 138.754C332.177 139.39 331.775 139.823 331.422 140.048C331.057 140.281 330.615 140.392 330.177 140.392L330.177 138.392ZM330.177 138.754C330.177 138.887 330.221 138.992 330.265 139.059C330.306 139.12 330.343 139.144 330.347 139.146C330.349 139.148 330.292 139.116 330.177 139.116L330.177 137.116C330.615 137.116 331.057 137.228 331.422 137.46C331.775 137.685 332.177 138.119 332.177 138.754L330.177 138.754Z" fill="#9B8200" mask="url(#path-51-inside-4_116_383)"/>
<path d="M352.554 148.599C350.968 148.599 349.555 148.188 348.554 147.55C347.548 146.908 347.017 146.083 347.017 145.249C347.017 144.416 347.548 143.59 348.554 142.948C349.555 142.31 350.968 141.899 352.554 141.899C354.141 141.899 355.554 142.31 356.554 142.948C357.561 143.59 358.091 144.416 358.091 145.249C358.091 146.083 357.561 146.908 356.554 147.55C355.554 148.188 354.141 148.599 352.554 148.599Z" stroke="#9B8200"/>
<path d="M356.396 145.249L352.371 143.709L353.176 145.249L356.396 145.249Z" fill="#4A564E" stroke="black" stroke-width="0.01"/>
<path d="M356.396 145.249L353.176 145.249L352.371 146.789L356.396 145.249Z" fill="#232D26"/>
<path d="M353.176 145.249L352.371 143.709L351.566 145.249L352.371 146.789L353.176 145.249Z" fill="#1B2217"/>
<path d="M350.761 145.249L351.566 143.709L348.347 145.249L350.761 145.249Z" fill="#4A564E" stroke="black" stroke-width="0.01"/>
<path d="M351.566 146.789L350.761 145.249L348.347 145.249L351.566 146.789Z" fill="#232D26"/>
<path d="M411.147 124V123.947L411.135 123.895C409.417 115.918 411.251 109.455 415.81 104.211C420.391 98.9413 427.754 94.8686 437.146 91.7875C455.929 85.626 482.603 83.4999 510.613 83.4999C538.569 83.4999 563.128 89.1853 580.681 97.4359C589.459 101.562 596.466 106.32 601.271 111.312C606.079 116.308 608.646 121.498 608.646 126.5C608.646 131.482 606.099 135.877 601.319 139.69C596.531 143.51 589.538 146.715 580.754 149.287C563.19 154.429 538.61 157 510.613 157C482.624 157 457.689 153.805 439.768 148.04C430.806 145.157 423.63 141.641 418.704 137.586C413.782 133.533 411.147 128.98 411.147 124Z" fill="#FCE300" stroke="#FCA600"/>
<path d="M612.579 115.5C612.579 120.48 609.85 125.287 604.776 129.72C599.704 134.152 592.336 138.166 583.187 141.547C564.894 148.308 539.589 152.5 511.613 152.5C483.637 152.5 458.332 148.308 440.039 141.547C430.89 138.166 423.521 134.152 418.449 129.72C413.376 125.287 410.646 120.48 410.646 115.5C410.646 110.519 413.376 105.713 418.449 101.28C423.521 96.8476 430.89 92.8335 440.039 89.4524C458.332 82.6915 483.637 78.4999 511.613 78.4999C539.589 78.4999 564.894 82.6915 583.187 89.4524C592.336 92.8335 599.704 96.8476 604.776 101.28C609.85 105.713 612.579 110.519 612.579 115.5Z" fill="#FCE300" stroke="#FCA600"/>
<path d="M604.296 115.5C604.296 120.049 601.808 124.171 597.165 127.818C592.518 131.469 585.76 134.602 577.358 137.154C560.559 142.257 537.317 145 511.613 145C485.909 145 462.667 142.257 445.868 137.154C437.466 134.602 430.708 131.469 426.061 127.818C421.418 124.171 418.93 120.049 418.93 115.5C418.93 110.942 421.427 106.538 426.081 102.471C430.735 98.4054 437.497 94.7211 445.896 91.617C462.69 85.4101 485.925 81.5611 511.613 81.5611C537.302 81.5611 560.536 85.4101 577.33 91.617C585.729 94.7211 592.491 98.4054 597.145 102.471C601.799 106.538 604.296 110.942 604.296 115.5Z" fill="#C5A607" stroke="#FCA600"/>
<path d="M602.5 116.565C602.5 121.013 600.129 125.047 595.671 128.619C591.209 132.195 584.697 135.27 576.54 137.778C560.23 142.792 537.472 145.5 511.751 145.5C486.031 145.5 463.399 142.663 447.215 137.521C439.121 134.949 432.672 131.811 428.255 128.187C423.843 124.568 421.5 120.5 421.5 116.049C421.5 111.592 423.85 107.327 428.269 103.415C432.69 99.5009 439.143 95.9776 447.236 93.0208C463.416 87.1086 486.042 83.4999 511.751 83.4999C537.457 83.4999 560.208 87.2372 576.513 93.2783C584.668 96.2995 591.184 99.8873 595.652 103.85C600.121 107.813 602.5 112.109 602.5 116.565Z" fill="#FFD600" stroke="#FCA600"/>
<path d="M462 126L463 124L465 97.4999H464.5L462 126Z" fill="#FCA600" stroke="#FCA600" stroke-width="0.4"/>
<path d="M517 129.5L462 126L463 124.5L517.5 127L518 127.5V129H546.5V125L566.5 110.5V112L548 126V130.5H517.5L517 129.5Z" fill="#FCA600" stroke="#FCA600" stroke-width="0.4"/>
<path d="M463.001 124.161L465 97.4999L544.5 91.9999L546.015 128.146L463.001 124.161Z" fill="#FFD600" stroke="#9B8200"/>
<path d="M476.172 99.4957L476.172 108.457L464.5 108L465 97.4999" stroke="#9B8200"/>
<path d="M477 120L476.5 110.5L464 110.5L463.033 124.161" stroke="#9B8200"/>
<path d="M415.073 150.828L415.078 150.775L415.073 150.722C414.25 142.604 416.79 136.384 421.902 131.678C427.039 126.949 434.808 123.718 444.484 121.697C463.834 117.657 490.58 118.502 518.417 121.608C546.201 124.709 569.978 133.083 586.508 143.229C594.773 148.303 601.209 153.809 605.431 159.303C609.656 164.801 611.632 170.244 611.077 175.215C610.524 180.166 607.505 184.252 602.332 187.511C597.15 190.777 589.844 193.186 580.829 194.768C562.804 197.93 538.09 197.76 510.266 194.655C482.449 191.551 458.022 185.611 440.852 177.894C432.265 174.035 425.522 169.745 421.076 165.168C416.634 160.595 414.52 155.777 415.073 150.828Z" fill="#FCE300" stroke="#FCA600"/>
<path d="M616.205 164.719C615.653 169.669 612.407 174.143 606.874 177.986C601.341 181.828 593.573 185.001 584.106 187.346C565.176 192.037 539.562 193.396 511.759 190.294C483.955 187.191 459.271 180.219 441.84 171.471C433.123 167.096 426.245 162.29 421.696 157.322C417.146 152.354 414.966 147.274 415.518 142.325C416.071 137.375 419.316 132.901 424.85 129.058C430.382 125.215 438.151 122.043 447.618 119.697C466.548 115.007 492.162 113.648 519.965 116.75C547.768 119.853 572.453 126.825 589.883 135.573C598.6 139.947 605.478 144.754 610.028 149.721C614.578 154.69 616.758 159.769 616.205 164.719Z" fill="#FCE300" stroke="#FCA600"/>
<path d="M607.974 163.801C607.469 168.321 604.539 172.142 599.52 175.252C594.497 178.364 587.434 180.729 578.8 182.334C561.539 185.542 538.136 185.691 512.591 182.84C487.045 179.989 464.25 174.686 448.121 167.751C440.054 164.283 433.685 160.42 429.472 156.277C425.262 152.137 423.246 147.764 423.75 143.243C424.256 138.714 427.226 134.614 432.303 131.088C437.378 127.563 444.507 124.652 453.199 122.498C470.578 118.192 494.096 116.944 519.626 119.792C545.156 122.641 567.82 129.043 583.823 137.074C591.826 141.091 598.137 145.502 602.311 150.059C606.485 154.617 608.479 159.271 607.974 163.801Z" fill="#C5A607" stroke="#FCA600"/>
<path d="M606.07 164.66C605.577 169.081 602.773 172.827 597.947 175.882C593.115 178.941 586.303 181.275 577.918 182.863C561.152 186.037 538.235 186.205 512.672 183.352C487.111 180.5 464.933 175.171 449.419 168.266C441.66 164.812 435.599 160.978 431.611 156.887C427.628 152.8 425.75 148.498 426.244 144.074C426.738 139.644 429.546 135.667 434.373 132.268C439.201 128.869 446.004 126.083 454.374 124.042C471.111 119.961 493.998 118.883 519.548 121.735C545.096 124.585 567.291 130.823 582.826 138.635C590.595 142.542 596.673 146.83 600.675 151.264C604.676 155.698 606.564 160.232 606.07 164.66Z" fill="#FFD600" stroke="#FCA600"/>
<path d="M465.391 158.455L466.606 156.578L471.533 130.463L471.036 130.408L465.391 158.455Z" fill="#FCA600" stroke="#FCA600" stroke-width="0.4"/>
<path d="M519.663 168.033L465.39 158.455L466.551 157.075L520.437 165.604L520.879 166.156L520.712 167.647L549.036 170.808L549.48 166.832L570.965 154.64L570.798 156.13L550.86 167.992L550.361 172.465L520.049 169.082L519.663 168.033Z" fill="#FCA600" stroke="#FCA600" stroke-width="0.4"/>
<path d="M466.589 156.739L471.533 130.464L551.152 133.814L548.65 169.905L466.589 156.739Z" fill="#FFD600" stroke="#9B8200"/>
<path d="M482.415 133.686L481.421 142.592L469.872 140.843L471.533 130.463" stroke="#9B8200"/>
<path d="M480.964 154.156L481.521 144.659L469.098 143.272L466.622 156.742" stroke="#9B8200"/>
<path d="M251.147 64.9999V64.9466L251.135 64.8946C249.417 56.9178 251.251 50.4547 255.81 45.2107C260.391 39.9413 267.754 35.8686 277.146 32.7875C295.929 26.626 322.603 24.4999 350.613 24.4999C378.569 24.4999 403.128 30.1853 420.681 38.4359C429.459 42.5617 436.466 47.3201 441.271 52.3124C446.079 57.3081 448.646 62.4979 448.646 67.4999C448.646 72.4818 446.099 76.8769 441.319 80.6901C436.531 84.51 429.538 87.7148 420.754 90.2865C403.19 95.4286 378.61 97.9999 350.613 97.9999C322.624 97.9999 297.689 94.8051 279.768 89.0404C270.806 86.1573 263.63 82.6412 258.704 78.5856C253.782 74.5333 251.147 69.9797 251.147 64.9999Z" fill="#FCE300" stroke="#FCA600"/>
<path d="M452.579 56.4999C452.579 61.4803 449.85 66.287 444.776 70.7201C439.704 75.1521 432.336 79.1663 423.187 82.5474C404.894 89.3082 379.589 93.4999 351.613 93.4999C323.637 93.4999 298.332 89.3082 280.039 82.5474C270.89 79.1663 263.521 75.1521 258.449 70.7201C253.376 66.287 250.646 61.4803 250.646 56.4999C250.646 51.5195 253.376 46.7127 258.449 42.2797C263.521 37.8476 270.89 33.8335 280.039 30.4524C298.332 23.6915 323.637 19.4999 351.613 19.4999C379.589 19.4999 404.894 23.6915 423.187 30.4524C432.336 33.8335 439.704 37.8476 444.776 42.2797C449.85 46.7127 452.579 51.5195 452.579 56.4999Z" fill="#FCE300" stroke="#FCA600"/>
<path d="M444.296 56.4999C444.296 61.0488 441.808 65.1709 437.165 68.8182C432.518 72.4685 425.76 75.6017 417.358 78.154C400.559 83.257 377.317 85.9999 351.613 85.9999C325.909 85.9999 302.667 83.257 285.868 78.154C277.466 75.6017 270.708 72.4685 266.061 68.8182C261.418 65.1709 258.93 61.0488 258.93 56.4999C258.93 51.9421 261.427 47.538 266.081 43.4713C270.735 39.4054 277.497 35.7211 285.896 32.617C302.69 26.4101 325.925 22.5611 351.613 22.5611C377.302 22.5611 400.536 26.4101 417.33 32.617C425.729 35.7211 432.491 39.4054 437.145 43.4713C441.799 47.538 444.296 51.9421 444.296 56.4999Z" fill="#C5A607" stroke="#FCA600"/>
<path d="M442.5 57.5655C442.5 62.0133 440.129 66.0473 435.671 69.6193C431.209 73.1952 424.697 76.2702 416.54 78.778C400.23 83.7921 377.472 86.4999 351.751 86.4999C326.031 86.4999 303.399 83.6633 287.215 78.5212C279.121 75.9494 272.672 72.8108 268.255 69.1872C263.843 65.5676 261.5 61.5005 261.5 57.0491C261.5 52.5917 263.85 48.3273 268.269 44.4146C272.69 40.5009 279.143 36.9776 287.236 34.0208C303.416 28.1086 326.042 24.4999 351.751 24.4999C377.457 24.4999 400.208 28.2372 416.513 34.2783C424.668 37.2995 431.184 40.8873 435.652 44.85C440.121 48.8126 442.5 53.1095 442.5 57.5655Z" fill="#FFD600" stroke="#FCA600"/>
<path d="M302 66.9999L303 64.9998L305 38.4999H304.5L302 66.9999Z" fill="#FCA600" stroke="#FCA600" stroke-width="0.4"/>
<path d="M357 70.4999L302 66.9999L303 65.4999L357.5 67.9999L358 68.4999V69.9999H386.5V65.9999L406.5 51.4999V52.9999L388 66.9999V71.4999H357.5L357 70.4999Z" fill="#FCA600" stroke="#FCA600" stroke-width="0.4"/>
<path d="M303.001 65.1611L305 38.4999L384.5 32.9999L386.015 69.1457L303.001 65.1611Z" fill="#FFD600" stroke="#9B8200"/>
<path d="M326.177 66.1176L326.177 53.3633L327.677 53.3633L327.677 49.2181L329.677 49.2181L329.677 53.3633L332.677 53.3633L332.677 49.2181L334.677 49.2181L334.677 53.3633L337.677 53.3633L337.677 49.2181L339.677 49.2181L339.677 62.6102C347.668 62.6203 355.177 60.697 355.177 58.1462" stroke="#9B8200"/>
<path d="M325.443 36.9999L325 52.9999L328.065 52.9999L328.065 48.9727L330.024 48.9727L330.024 52.9999L332.962 52.9999L332.962 48.9727L334.921 48.9727L334.921 52.9999L337.869 52.9999L337.869 48.9727L337.869 45.6577L337.869 44.0002L337.869 39.5902C349.613 39.5902 355 41.7698 355 43.6381" stroke="#9B8200"/>
<path d="M316.172 40.4957L316.172 49.4574L304.5 48.9999L305 38.4999" stroke="#9B8200"/>
<path d="M317 60.9999L316.5 51.4999L304 51.4999L303.033 65.1611" stroke="#9B8200"/>
<path d="M355.677 43.7976L340.812 43.7976C340.812 43.7976 341.031 46.0715 343.878 46.0715L350.447 46.0715C355.703 46.0715 355.703 46.0715 355.703 49.423L355.703 52.7745C355.703 56.126 355.703 56.126 350.447 56.126L343.878 56.126C341.031 56.126 340.812 58.4651 340.812 58.4651L355.703 58.4651C361.287 58.4651 361.177 58.0811 361.177 52.7047L361.177 48.3058C361.177 44.1165 361.152 43.7976 355.677 43.7976Z" fill="#FFD600" stroke="#9B8200"/>
<path d="M378.393 43.2711C378.393 41.6004 377.334 40.238 375.779 39.3187C374.222 38.3983 372.108 37.877 369.807 37.877L358.208 37.877L358.471 33.4999L383.041 33.4999L386.127 69.444L358.177 69.444L358.177 64.3857L369.807 64.3857C372.146 64.3857 374.272 63.6225 375.823 62.47C377.362 61.3255 378.393 59.747 378.393 58.1018C378.393 56.4145 377.314 55.1687 375.752 54.3716C374.195 53.5773 372.087 53.1822 369.807 53.1822L361.989 53.1822L361.989 48.9619L369.807 48.9619C372.121 48.9619 374.239 48.3607 375.794 47.3623C377.344 46.3674 378.393 44.9327 378.393 43.2711Z" fill="#FFD600" stroke="#9B8200"/>
<path d="M385.355 66.4923L384.5 36.9999L406.177 51.2491L385.355 66.4923Z" fill="#FFD600" stroke="#9B8200"/>
<path d="M378.523 32.9999L384.028 32.9999L386.142 69.444L380.143 69.444L378.523 32.9999Z" fill="#FFD600" stroke="#9B8200"/>
<path d="M371.438 54.3199C374.608 55.4456 375.746 57.9969 373.981 60.0183" stroke="#9B8200"/>
<path d="M371.177 59.5593C370.153 59.5593 369.25 59.2937 368.618 58.8906C367.98 58.4839 367.677 57.9831 367.677 57.5084C367.677 57.0338 367.98 56.533 368.618 56.1263C369.25 55.7232 370.153 55.4576 371.177 55.4576C372.201 55.4576 373.105 55.7232 373.737 56.1263C374.375 56.533 374.677 57.0338 374.677 57.5084C374.677 57.9831 374.375 58.4839 373.737 58.8906C373.105 59.2937 372.201 59.5593 371.177 59.5593Z" fill="#FFD600" stroke="#9B8200"/>
<mask id="path-94-inside-5_116_383" fill="white">
<ellipse cx="371.177" cy="57.5085" rx="0.637716" ry="1" transform="rotate(90 371.177 57.5085)"/>
</mask>
<ellipse cx="371.177" cy="57.5085" rx="0.637716" ry="1" transform="rotate(90 371.177 57.5085)" fill="#FFD600"/>
<path d="M371.177 57.1462C371.062 57.1462 371.005 57.1146 371.008 57.1163C371.011 57.1185 371.048 57.1424 371.089 57.204C371.133 57.2704 371.177 57.376 371.177 57.5085L369.177 57.5085C369.177 58.1441 369.579 58.5775 369.932 58.8026C370.297 59.0351 370.74 59.1462 371.177 59.1462L371.177 57.1462ZM371.177 57.5085C371.177 57.641 371.133 57.7466 371.089 57.813C371.048 57.8746 371.011 57.8986 371.008 57.9007C371.005 57.9024 371.062 57.8708 371.177 57.8708L371.177 55.8708C370.74 55.8708 370.297 55.9819 369.932 56.2144C369.579 56.4396 369.177 56.8729 369.177 57.5085L371.177 57.5085ZM371.177 57.8708C371.292 57.8708 371.349 57.9024 371.347 57.9007C371.343 57.8986 371.306 57.8746 371.265 57.813C371.221 57.7466 371.177 57.641 371.177 57.5085L373.177 57.5085C373.177 56.8729 372.775 56.4396 372.422 56.2144C372.057 55.9819 371.615 55.8708 371.177 55.8708L371.177 57.8708ZM371.177 57.5085C371.177 57.376 371.221 57.2704 371.265 57.204C371.306 57.1424 371.343 57.1185 371.347 57.1163C371.349 57.1146 371.292 57.1462 371.177 57.1462L371.177 59.1462C371.615 59.1462 372.057 59.0351 372.422 58.8026C372.775 58.5775 373.177 58.1441 373.177 57.5085L371.177 57.5085Z" fill="#9B8200" mask="url(#path-94-inside-5_116_383)"/>
<path d="M371.438 47.9017C374.608 46.776 375.746 44.2247 373.981 42.2033" stroke="#9B8200"/>
<path d="M371.177 42.7033C370.153 42.7033 369.25 42.969 368.618 43.372C367.98 43.7788 367.677 44.2795 367.677 44.7542C367.677 45.2289 367.98 45.7296 368.618 46.1363C369.25 46.5394 370.153 46.8051 371.177 46.8051C372.201 46.8051 373.105 46.5394 373.737 46.1364C374.375 45.7296 374.677 45.2289 374.677 44.7542C374.677 44.2795 374.375 43.7788 373.737 43.372C373.105 42.969 372.201 42.7033 371.177 42.7033Z" fill="#FFD600" stroke="#9B8200"/>
<mask id="path-98-inside-6_116_383" fill="white">
<ellipse cx="0.637716" cy="1" rx="0.637716" ry="1" transform="matrix(4.37114e-08 -1 -1 -4.37114e-08 372.177 45.3919)"/>
</mask>
<ellipse cx="0.637716" cy="1" rx="0.637716" ry="1" transform="matrix(4.37114e-08 -1 -1 -4.37114e-08 372.177 45.3919)" fill="#FFD600"/>
<path d="M371.177 45.1165C371.062 45.1165 371.005 45.1481 371.008 45.1464C371.011 45.1442 371.048 45.1203 371.089 45.0587C371.133 44.9923 371.177 44.8867 371.177 44.7542L369.177 44.7542C369.177 44.1186 369.579 43.6852 369.932 43.4601C370.297 43.2276 370.74 43.1165 371.177 43.1165L371.177 45.1165ZM371.177 44.7542C371.177 44.6217 371.133 44.5161 371.089 44.4497C371.048 44.3881 371.011 44.3641 371.008 44.362C371.005 44.3603 371.062 44.3919 371.177 44.3919L371.177 46.3919C370.74 46.3919 370.297 46.2808 369.932 46.0483C369.579 45.8231 369.177 45.3898 369.177 44.7542L371.177 44.7542ZM371.177 44.3919C371.292 44.3919 371.349 44.3603 371.347 44.362C371.343 44.3641 371.306 44.3881 371.265 44.4497C371.221 44.5161 371.177 44.6217 371.177 44.7542L373.177 44.7542C373.177 45.3898 372.775 45.8231 372.422 46.0483C372.057 46.2808 371.615 46.3919 371.177 46.3919L371.177 44.3919ZM371.177 44.7542C371.177 44.8867 371.221 44.9923 371.265 45.0587C371.306 45.1203 371.343 45.1442 371.347 45.1464C371.349 45.1481 371.292 45.1165 371.177 45.1165L371.177 43.1165C371.615 43.1165 372.057 43.2276 372.422 43.4601C372.775 43.6852 373.177 44.1186 373.177 44.7542L371.177 44.7542Z" fill="#9B8200" mask="url(#path-98-inside-6_116_383)"/>
<path d="M393.554 54.599C391.968 54.599 390.555 54.188 389.554 53.5498C388.548 52.908 388.017 52.0825 388.017 51.2492C388.017 50.4158 388.548 49.5903 389.554 48.9485C390.555 48.3103 391.968 47.8993 393.554 47.8993C395.141 47.8993 396.554 48.3103 397.554 48.9485C398.561 49.5903 399.091 50.4158 399.091 51.2492C399.091 52.0825 398.561 52.908 397.554 53.5498C396.554 54.188 395.141 54.599 393.554 54.599Z" stroke="#9B8200"/>
<path d="M397.396 51.2492L393.371 49.7092L394.176 51.2492L397.396 51.2492Z" fill="#4A564E" stroke="black" stroke-width="0.01"/>
<path d="M397.396 51.2492L394.176 51.2492L393.371 52.7892L397.396 51.2492Z" fill="#232D26"/>
<path d="M394.176 51.2492L393.371 49.7092L392.566 51.2492L393.371 52.7891L394.176 51.2492Z" fill="#1B2217"/>
<path d="M391.761 51.2492L392.566 49.7092L389.347 51.2492L391.761 51.2492Z" fill="#4A564E" stroke="black" stroke-width="0.01"/>
<path d="M392.566 52.7891L391.761 51.2491L389.347 51.2491L392.566 52.7891Z" fill="#232D26"/>
<path d="M350.96 79.9019L350.954 79.849L350.937 79.7984C348.393 72.0455 349.54 65.4259 353.524 59.7331C357.528 54.0128 364.423 49.1911 373.441 45.143C391.475 37.0477 417.78 32.1387 445.636 29.2043C473.438 26.2755 498.458 29.3567 516.778 35.723C525.94 38.9066 533.407 42.9047 538.708 47.3662C544.013 51.8306 547.11 56.7229 547.634 61.6973C548.156 66.6519 546.083 71.2897 541.729 75.5826C537.368 79.8831 530.749 83.8029 522.282 87.2808C505.354 94.2346 481.179 99.3668 453.336 102.3C425.501 105.232 400.368 104.667 381.942 100.812C372.727 98.8833 365.222 96.1384 359.898 92.6211C354.579 89.1069 351.481 84.8544 350.96 79.9019Z" fill="#FCE300" stroke="#FCA600"/>
<path d="M550.393 50.3459C550.915 55.2989 548.704 60.3651 544.123 65.3052C539.543 70.2443 532.636 75.0083 523.892 79.3293C506.407 87.9694 481.681 94.789 453.859 97.7199C426.037 100.651 400.432 99.1332 381.531 94.326C372.079 91.9219 364.33 88.7019 358.821 84.8256C353.312 80.9485 350.094 76.4541 349.572 71.5011C349.05 66.5481 351.261 61.4818 355.842 56.5417C360.422 51.6026 367.329 46.8386 376.073 42.5177C393.558 33.8776 418.285 27.0579 446.106 24.1271C473.928 21.1962 499.533 22.7138 518.434 27.5209C527.886 29.925 535.635 33.1451 541.144 37.0214C546.654 40.8985 549.872 45.3929 550.393 50.3459Z" fill="#FCE300" stroke="#FCA600"/>
<path d="M542.156 51.2136C542.632 55.7376 540.589 60.0976 536.354 64.2114C532.115 68.3284 525.723 72.1522 517.635 75.5707C501.463 82.4056 478.636 87.5683 453.073 90.2612C427.51 92.954 404.109 92.6612 386.868 89.3461C378.245 87.6881 371.196 85.2802 366.192 82.1368C361.193 78.9959 358.286 75.1573 357.809 70.6333C357.332 66.1007 359.354 61.4592 363.557 56.9272C367.758 52.3962 374.097 48.0238 382.125 44.0568C398.177 36.1247 420.88 29.8627 446.427 27.1715C471.974 24.4802 495.484 25.874 512.836 30.2872C521.514 32.4944 528.625 35.45 533.679 39.006C538.733 42.5628 541.678 46.681 542.156 51.2136Z" fill="#C5A607" stroke="#FCA600"/>
<path d="M540.481 52.4615C540.947 56.8849 539.012 61.1451 534.953 65.1644C530.89 69.1882 524.736 72.9284 516.886 76.277C501.191 82.9722 478.842 88.0493 453.262 90.744C427.684 93.4385 404.88 92.9885 388.246 89.5702C379.927 87.8605 373.184 85.4148 368.413 82.2739C363.646 79.1363 360.889 75.3371 360.423 70.9102C359.956 66.4774 361.846 61.9903 365.832 57.6361C369.818 53.2807 375.867 49.1008 383.604 45.3126C399.076 37.7377 421.2 31.7785 446.767 29.0851C472.332 26.392 495.349 27.7253 512.197 32.025C520.624 34.1753 527.48 37.0607 532.339 40.5334C537.198 44.0061 540.014 48.0301 540.481 52.4615Z" fill="#FFD600" stroke="#FCA600"/>
<path d="M401.743 76.5633L402.528 74.4695L401.74 47.9059L401.243 47.9582L401.743 76.5633Z" fill="#FCA600" stroke="#FCA600" stroke-width="0.4"/>
<path d="M456.807 74.2821L401.742 76.5633L402.58 74.9668L457.042 71.7434L457.591 72.1883L457.749 73.68L486.092 70.6943L485.673 66.7163L504.044 50.2008L504.201 51.6926L487.269 67.5536L487.741 72.0289L457.409 75.2242L456.807 74.2821Z" fill="#FCA600" stroke="#FCA600" stroke-width="0.4"/>
<path d="M402.544 74.63L401.74 47.9059L480.226 34.1075L485.52 69.8957L402.544 74.63Z" fill="#FFD600" stroke="#9B8200"/>
<path d="M425.694 73.1532L424.358 60.469L425.85 60.3119L425.415 56.1895L427.404 55.98L427.839 60.1024L430.822 59.7881L430.388 55.6657L432.377 55.4562L432.811 59.5785L435.795 59.2642L435.36 55.1419L437.349 54.9324L438.752 68.2507C446.7 67.4236 453.967 64.7243 453.699 62.1874" stroke="#9B8200"/>
<path d="M421.913 44.2725L423.149 60.2309L426.197 59.9098L425.775 55.9047L427.724 55.6995L428.145 59.7045L431.068 59.3967L430.646 55.3917L432.594 55.1865L433.016 59.1915L435.947 58.8827L435.525 54.8777L435.178 51.5809L435.004 49.9325L434.542 45.5468C446.222 44.3164 451.807 45.9197 452.003 47.7777" stroke="#9B8200"/>
<path d="M413.059 48.7203L413.998 57.6327L402.342 58.4005L401.74 47.9059" stroke="#9B8200"/>
<path d="M416.031 69.0249L414.539 59.6295L402.107 60.9391L402.577 74.6264" stroke="#9B8200"/>
<path d="M452.693 47.8654L437.91 49.4227C437.91 49.4227 438.366 51.6612 441.197 51.3629L447.73 50.6747C452.957 50.1241 452.957 50.1241 453.308 53.4572L453.659 56.7902C454.01 60.1233 454.01 60.1233 448.784 60.6739L442.25 61.3621C439.419 61.6603 439.447 64.0095 439.447 64.0095L454.255 62.4495C459.809 61.8645 459.659 61.494 459.096 56.1473L458.635 51.7726C458.196 47.6063 458.138 47.2919 452.693 47.8654Z" fill="#FFD600" stroke="#9B8200"/>
<path d="M475.229 44.962C475.054 43.3005 473.858 42.0565 472.215 41.3052C470.571 40.5529 468.413 40.256 466.125 40.4971L454.59 41.7122L454.393 37.3316L478.828 34.7576L485.662 70.1806L457.867 73.1087L457.337 68.0782L468.902 66.8599C471.228 66.6149 473.263 65.6331 474.684 64.3246C476.096 63.025 476.955 61.3472 476.782 59.711C476.606 58.0331 475.402 56.9072 473.765 56.2781C472.133 55.6513 469.996 55.4791 467.728 55.7181L459.954 56.5371L459.512 52.3399L467.286 51.521C469.587 51.2785 471.631 50.4587 473.073 49.3029C474.51 48.1511 475.403 46.6144 475.229 44.962Z" fill="#FFD600" stroke="#9B8200"/>
<path d="M474.282 34.7337L479.757 34.1569L485.677 70.179L479.711 70.8075L474.282 34.7337Z" fill="#FFD600" stroke="#9B8200"/>
<path d="M469.47 56.6786C472.74 57.466 474.14 59.8839 472.596 62.0792" stroke="#9B8200"/>
<path d="M469.759 61.9165C468.741 62.0238 467.814 61.8542 467.143 61.5196C466.466 61.1819 466.113 60.7156 466.063 60.2436C466.014 59.7715 466.262 59.2418 466.854 58.7705C467.44 58.3035 468.311 57.9446 469.329 57.8373C470.348 57.73 471.274 57.8996 471.945 58.2342C472.622 58.5719 472.975 59.0382 473.025 59.5102C473.075 59.9823 472.826 60.512 472.234 60.9833C471.648 61.4504 470.777 61.8092 469.759 61.9165Z" fill="#FFD600" stroke="#9B8200"/>
<mask id="path-122-inside-7_116_383" fill="white">
<ellipse cx="469.544" cy="59.8769" rx="0.637716" ry="1" transform="rotate(83.9864 469.544 59.8769)"/>
</mask>
<ellipse cx="469.544" cy="59.8769" rx="0.637716" ry="1" transform="rotate(83.9864 469.544 59.8769)" fill="#FFD600"/>
<path d="M469.507 59.5166C469.392 59.5287 469.332 59.5032 469.335 59.5046C469.338 59.5064 469.378 59.5263 469.425 59.5833C469.476 59.6448 469.531 59.7452 469.544 59.8769L467.555 60.0864C467.622 60.7185 468.067 61.1074 468.442 61.2943C468.829 61.4873 469.281 61.5514 469.716 61.5056L469.507 59.5166ZM469.544 59.8769C469.558 60.0087 469.526 60.1183 469.489 60.189C469.455 60.2545 469.42 60.2822 469.417 60.2847C469.415 60.2867 469.468 60.2492 469.582 60.2372L469.373 58.2482C468.938 58.294 468.509 58.4509 468.171 58.7204C467.843 58.9812 467.489 59.4544 467.555 60.0864L469.544 59.8769ZM469.582 60.2372C469.697 60.2252 469.757 60.2506 469.754 60.2492C469.75 60.2474 469.711 60.2275 469.664 60.1705C469.613 60.1091 469.558 60.0087 469.544 59.8769L471.533 59.6674C471.467 59.0353 471.022 58.6464 470.647 58.4595C470.26 58.2665 469.808 58.2024 469.373 58.2482L469.582 60.2372ZM469.544 59.8769C469.531 59.7452 469.563 59.6355 469.6 59.5649C469.634 59.4993 469.669 59.4716 469.672 59.4691C469.674 59.4671 469.621 59.5046 469.507 59.5166L469.716 61.5056C470.151 61.4598 470.58 61.3029 470.918 61.0335C471.245 60.7726 471.6 60.2995 471.533 59.6674L469.544 59.8769Z" fill="#9B8200" mask="url(#path-122-inside-7_116_383)"/>
<path d="M468.797 50.2957C471.832 48.8441 472.697 46.1876 470.729 44.3622" stroke="#9B8200"/>
<path d="M467.994 45.1533C466.975 45.2605 466.104 45.6194 465.518 46.0864C464.926 46.5578 464.678 47.0875 464.728 47.5595C464.777 48.0316 465.131 48.4978 465.808 48.8355C466.478 49.1702 467.405 49.3397 468.423 49.2324C469.442 49.1251 470.312 48.7663 470.899 48.2992C471.49 47.8279 471.739 47.2982 471.689 46.8262C471.639 46.3541 471.286 45.8878 470.609 45.5501C469.938 45.2155 469.012 45.046 467.994 45.1533Z" fill="#FFD600" stroke="#9B8200"/>
<mask id="path-126-inside-8_116_383" fill="white">
<ellipse cx="0.637716" cy="1" rx="0.637716" ry="1" transform="matrix(-0.104764 -0.994497 -0.994497 0.104764 469.27 47.7222)"/>
</mask>
<ellipse cx="0.637716" cy="1" rx="0.637716" ry="1" transform="matrix(-0.104764 -0.994497 -0.994497 0.104764 469.27 47.7222)" fill="#FFD600"/>
<path d="M468.247 47.5531C468.132 47.5651 468.079 47.6026 468.081 47.6006C468.084 47.5981 468.119 47.5704 468.153 47.5048C468.19 47.4341 468.223 47.3245 468.209 47.1928L466.22 47.4023C466.153 46.7702 466.508 46.2971 466.835 46.0362C467.173 45.7668 467.602 45.6099 468.037 45.5641L468.247 47.5531ZM468.209 47.1928C468.195 47.061 468.14 46.9606 468.089 46.8992C468.042 46.8422 468.003 46.8223 467.999 46.8205C467.996 46.8191 468.056 46.8445 468.171 46.8325L468.38 48.8215C467.945 48.8673 467.493 48.8032 467.106 48.6102C466.732 48.4233 466.286 48.0344 466.22 47.4023L468.209 47.1928ZM468.171 46.8325C468.285 46.8205 468.339 46.783 468.336 46.785C468.333 46.7875 468.299 46.8152 468.264 46.8807C468.228 46.9514 468.195 47.061 468.209 47.1928L470.198 46.9833C470.264 47.6153 469.91 48.0885 469.582 48.3493C469.244 48.6188 468.815 48.7757 468.38 48.8215L468.171 46.8325ZM468.209 47.1928C468.223 47.3245 468.277 47.4249 468.328 47.4864C468.375 47.5434 468.415 47.5633 468.418 47.5651C468.421 47.5665 468.361 47.541 468.247 47.5531L468.037 45.5641C468.472 45.5183 468.924 45.5824 469.311 45.7754C469.686 45.9623 470.131 46.3512 470.198 46.9833L468.209 47.1928Z" fill="#9B8200" mask="url(#path-126-inside-8_116_383)"/>
<path d="M11.8512 119.86L11.8388 119.808L11.8158 119.76C8.28336 112.405 8.55842 105.692 11.7672 99.529C14.9915 93.336 21.2006 87.6572 29.6144 82.469C46.44 72.094 71.8818 63.8007 99.1178 57.2633C126.302 50.7383 151.51 50.5347 170.504 54.4606C180.002 56.4238 187.926 59.4154 193.763 63.1483C199.605 66.8838 203.312 71.331 204.48 76.1948C205.643 81.0392 204.191 85.9075 200.434 90.7309C196.669 95.5628 190.617 100.311 182.676 104.862C166.797 113.962 143.497 122.199 116.273 128.733C89.0567 135.266 64.0644 137.979 45.2937 136.556C35.9059 135.845 28.1072 134.101 22.3705 131.307C16.6388 128.515 13.0135 124.702 11.8512 119.86Z" fill="#FCE300" stroke="#FCA600"/>
<path d="M205.737 64.5807C206.899 69.4236 205.367 74.7346 201.468 80.2293C197.571 85.7229 191.343 91.3459 183.236 96.7689C167.026 107.613 143.398 117.595 116.195 124.124C88.9916 130.654 63.407 132.484 44.041 130.18C34.356 129.027 26.254 126.844 20.2874 123.718C14.3195 120.591 10.5436 116.554 9.38121 111.711C8.21879 106.869 9.75091 101.558 13.6495 96.0629C17.5472 90.5694 23.7754 84.9463 31.8821 79.5233C48.0921 68.6796 71.7201 58.6975 98.9232 52.168C126.126 45.6385 151.711 43.8082 171.077 46.1127C180.762 47.2652 188.864 49.4486 194.83 52.5744C200.798 55.7009 204.574 59.7379 205.737 64.5807Z" fill="#FCE300" stroke="#FCA600"/>
<path d="M197.683 66.5139C198.745 70.9373 197.287 75.5263 193.623 80.1566C189.957 84.7907 184.117 89.4144 176.543 93.8573C161.399 102.74 139.439 110.832 114.445 116.831C89.4504 122.831 66.2098 125.588 48.6839 124.547C39.9182 124.026 32.6161 122.557 27.2456 120.092C21.8794 117.629 18.4975 114.202 17.4358 109.778C16.372 105.346 17.7727 100.481 21.3492 95.4402C24.9248 90.4006 30.6402 85.2398 38.0829 80.2611C52.9647 70.3059 74.6591 61.1403 99.6381 55.1446C124.617 49.149 148.108 47.4688 165.887 49.5845C174.779 50.6426 182.214 52.6468 187.688 55.5144C193.163 58.3825 196.619 62.0821 197.683 66.5139Z" fill="#C5A607" stroke="#FCA600"/>
<path d="M196.185 67.9694C197.223 72.2944 195.859 76.7703 192.358 81.2841C188.853 85.8028 183.239 90.3126 175.892 94.6551C161.203 103.337 139.706 111.282 114.695 117.285C89.6856 123.288 67.0169 125.812 50.0798 124.59C41.6088 123.978 34.6048 122.431 29.4647 119.939C24.3301 117.449 21.102 114.041 20.0631 109.712C19.0228 105.378 20.3121 100.683 23.6967 95.8468C27.0822 91.0094 32.5347 86.0773 39.7131 81.3135C54.0667 71.788 75.2256 62.9981 100.224 56.9978C125.221 50.9978 148.215 49.322 165.48 51.3906C174.115 52.4252 181.288 54.393 186.558 57.2033C191.828 60.0136 195.145 63.6365 196.185 67.9694Z" fill="#FFD600" stroke="#FCA600"/>
<path d="M61.7671 109.936L62.2727 107.758L58.0324 81.5226L57.5462 81.6393L61.7671 109.936Z" fill="#FCA600" stroke="#FCA600" stroke-width="0.4"/>
<path d="M116.065 100.502L61.7671 109.936L62.3894 108.244L115.968 97.9545L116.571 98.324L116.921 99.7826L144.633 93.1307L143.7 89.2412L159.763 70.4737L160.113 71.9323L145.392 89.8635L146.442 94.2392L116.785 101.358L116.065 100.502Z" fill="#FCA600" stroke="#FCA600" stroke-width="0.4"/>
<path d="M62.3104 107.914L58.0324 81.5227L134.053 57.6195L143.962 92.4134L62.3104 107.914Z" fill="#FFD600" stroke="#9B8200"/>
<path d="M85.0704 103.435L82.0936 91.0329L83.5522 90.6828L82.5847 86.6521L84.5295 86.1853L85.4969 90.216L88.4141 89.5158L87.4466 85.4851L89.3914 85.0183L90.3589 89.049L93.276 88.3488L92.3085 84.3181L94.2533 83.8513L97.379 96.8735C105.151 95.0183 112.004 91.3955 111.409 88.9151" stroke="#9B8200"/>
<path d="M77.5607 75.2928L80.8642 90.9543L83.8448 90.2388L82.9049 86.3229L84.8097 85.8657L85.7496 89.7816L88.6068 89.0958L87.6668 85.1799L89.5716 84.7227L90.5116 88.6386L93.3774 87.9508L92.4374 84.0348L91.6637 80.8114L91.2769 79.1996L90.2476 74.9114C101.668 72.1703 107.415 73.0324 107.851 74.8491" stroke="#9B8200"/>
<path d="M69.3613 80.8559L71.453 89.57L59.9967 91.8494L58.0322 81.5227" stroke="#9B8200"/>
<path d="M74.9526 100.6L72.2491 91.4795L60.0939 94.3971L62.3423 107.907" stroke="#9B8200"/>
<path d="M108.546 74.8461L94.092 78.3156C94.092 78.3156 94.8355 80.4756 97.6036 79.8112L103.992 78.2779C109.102 77.0513 109.102 77.0513 109.884 80.3102L110.666 83.5692C111.449 86.8281 111.449 86.8281 106.338 88.0547L99.9503 89.588C97.1822 90.2524 97.5153 92.578 97.5153 92.578L111.995 89.1026C117.424 87.7993 117.228 87.4514 115.973 82.2236L114.947 77.9462C113.969 73.8725 113.87 73.5684 108.546 74.8461Z" fill="#FFD600" stroke="#9B8200"/>
<path d="M130.511 69.0324C130.121 67.4078 128.774 66.3302 127.047 65.7992C125.319 65.2676 123.141 65.2541 120.903 65.7913L109.625 68.4983L108.859 64.1807L132.751 58.4461L144.141 92.6772L116.963 99.2006L115.782 94.282L127.09 91.5678C129.365 91.0219 131.254 89.7835 132.493 88.3009C133.723 86.8286 134.357 85.0532 133.973 83.4534C133.579 81.8128 132.239 80.8532 130.534 80.4427C128.835 80.0338 126.693 80.1414 124.476 80.6738L116.874 82.4983L115.889 78.3945L123.491 76.57C125.741 76.0298 127.66 74.9508 128.94 73.617C130.215 72.2879 130.899 70.6481 130.511 69.0324Z" fill="#FFD600" stroke="#9B8200"/>
<path d="M142.701 89.9873L134.986 61.509L159.391 70.3052L142.701 89.9873Z" fill="#FFD600" stroke="#9B8200"/>
<path d="M128.24 59.0145L133.594 57.7296L144.155 92.6738L138.322 94.074L128.24 59.0145Z" fill="#FFD600" stroke="#9B8200"/>
<path d="M126.328 81.3993C129.673 81.7541 131.375 83.9691 130.131 86.3467" stroke="#9B8200"/>
<path d="M127.297 86.5548C126.301 86.7938 125.36 86.7464 124.652 86.502C123.937 86.2554 123.526 85.8391 123.415 85.3775C123.304 84.9159 123.481 84.3584 124.007 83.814C124.527 83.2746 125.344 82.8054 126.339 82.5664C127.335 82.3274 128.276 82.3748 128.984 82.6192C129.7 82.8659 130.111 83.2822 130.221 83.7437C130.332 84.2053 130.155 84.7628 129.63 85.3072C129.109 85.8466 128.292 86.3158 127.297 86.5548Z" fill="#FFD600" stroke="#9B8200"/>
<mask id="path-145-inside-9_116_383" fill="white">
<ellipse cx="126.818" cy="84.5606" rx="0.637716" ry="1" transform="rotate(76.5028 126.818 84.5606)"/>
</mask>
<ellipse cx="126.818" cy="84.5606" rx="0.637716" ry="1" transform="rotate(76.5028 126.818 84.5606)" fill="#FFD600"/>
<path d="M126.734 84.2083C126.622 84.2351 126.559 84.2177 126.562 84.2188C126.566 84.2201 126.607 84.2347 126.661 84.2851C126.72 84.3394 126.787 84.4318 126.818 84.5606L124.873 85.0274C125.022 85.6454 125.514 85.973 125.91 86.1095C126.319 86.2505 126.775 86.2552 127.2 86.1531L126.734 84.2083ZM126.818 84.5606C126.849 84.6894 126.831 84.8023 126.804 84.8772C126.778 84.9467 126.748 84.9786 126.745 84.9815C126.743 84.9838 126.791 84.9397 126.903 84.9129L126.436 82.9681C126.011 83.0702 125.606 83.2816 125.306 83.5928C125.015 83.8941 124.725 84.4094 124.873 85.0274L126.818 84.5606ZM126.903 84.9129C127.014 84.886 127.077 84.9035 127.074 84.9024C127.071 84.9011 127.029 84.8865 126.975 84.8361C126.916 84.7818 126.849 84.6894 126.818 84.5606L128.763 84.0938C128.614 83.4758 128.122 83.1482 127.726 83.0117C127.318 82.8707 126.861 82.866 126.436 82.9681L126.903 84.9129ZM126.818 84.5606C126.787 84.4318 126.805 84.3188 126.833 84.244C126.858 84.1745 126.888 84.1426 126.891 84.1397C126.893 84.1374 126.845 84.1815 126.734 84.2083L127.2 86.1531C127.626 86.051 128.03 85.8396 128.331 85.5284C128.621 85.2271 128.911 84.7118 128.763 84.0938L126.818 84.5606Z" fill="#9B8200" mask="url(#path-145-inside-9_116_383)"/>
<path d="M124.83 75.1583C127.649 73.3239 128.161 70.5774 125.973 69.0238" stroke="#9B8200"/>
<path d="M123.363 70.1643C122.367 70.4033 121.551 70.8725 121.03 71.412C120.505 71.9564 120.328 72.5139 120.438 72.9755C120.549 73.437 120.96 73.8533 121.675 74.1C122.384 74.3444 123.325 74.3918 124.32 74.1528C125.316 73.9138 126.133 73.4446 126.653 72.9051C127.179 72.3608 127.356 71.8032 127.245 71.3417C127.134 70.8801 126.723 70.4638 126.008 70.2172C125.299 69.9728 124.359 69.9253 123.363 70.1643Z" fill="#FFD600" stroke="#9B8200"/>
<mask id="path-149-inside-10_116_383" fill="white">
<ellipse cx="0.637716" cy="1" rx="0.637716" ry="1" transform="matrix(-0.233398 -0.972381 -0.972381 0.233398 124.963 72.5453)"/>
</mask>
<ellipse cx="0.637716" cy="1" rx="0.637716" ry="1" transform="matrix(-0.233398 -0.972381 -0.972381 0.233398 124.963 72.5453)" fill="#FFD600"/>
<path d="M123.926 72.5109C123.814 72.5377 123.766 72.5818 123.768 72.5795C123.771 72.5766 123.802 72.5446 123.827 72.4752C123.854 72.4003 123.873 72.2874 123.842 72.1586L121.897 72.6254C121.749 72.0074 122.038 71.4921 122.329 71.1908C122.63 70.8796 123.034 70.6682 123.459 70.5661L123.926 72.5109ZM123.842 72.1586C123.811 72.0298 123.743 71.9374 123.685 71.883C123.631 71.8327 123.589 71.8181 123.585 71.8167C123.582 71.8157 123.645 71.8331 123.757 71.8063L124.224 73.7511C123.799 73.8531 123.342 73.8485 122.933 73.7075C122.537 73.5709 122.045 73.2434 121.897 72.6254L123.842 72.1586ZM123.757 71.8063C123.869 71.7795 123.917 71.7354 123.915 71.7377C123.912 71.7406 123.882 71.7725 123.856 71.8419C123.829 71.9168 123.811 72.0298 123.842 72.1586L125.786 71.6918C125.935 72.3098 125.645 72.8251 125.354 73.1264C125.054 73.4376 124.649 73.649 124.224 73.7511L123.757 71.8063ZM123.842 72.1586C123.873 72.2874 123.94 72.3798 123.998 72.4341C124.052 72.4845 124.094 72.4991 124.098 72.5004C124.101 72.5015 124.038 72.484 123.926 72.5109L123.459 70.5661C123.885 70.464 124.341 70.4687 124.75 70.6097C125.146 70.7462 125.638 71.0738 125.786 71.6918L123.842 72.1586Z" fill="#9B8200" mask="url(#path-149-inside-10_116_383)"/>
<path d="M147.899 76.5087C146.356 76.879 144.886 76.809 143.764 76.4221C142.636 76.0329 141.927 75.354 141.733 74.5437C141.538 73.7333 141.861 72.8068 142.69 71.9478C143.514 71.0937 144.792 70.3643 146.335 69.994C147.877 69.6237 149.347 69.6937 150.469 70.0806C151.598 70.4698 152.306 71.1487 152.501 71.959C152.695 72.7694 152.372 73.6959 151.543 74.5549C150.719 75.409 149.441 76.1384 147.899 76.5087Z" stroke="#9B8200"/>
<path d="M150.852 72.3547L146.579 71.7966L147.721 73.1062L150.852 72.3547Z" fill="#4A564E" stroke="black" stroke-width="0.01"/>
<path d="M150.852 72.3547L147.721 73.1062L147.298 74.7915L150.852 72.3547Z" fill="#232D26"/>
<path d="M147.721 73.1062L146.579 71.7967L146.156 73.482L147.298 74.7915L147.721 73.1062Z" fill="#1B2217"/>
<path d="M145.373 73.6698L145.796 71.9846L143.025 74.2334L145.373 73.6698Z" fill="#4A564E" stroke="black" stroke-width="0.01"/>
<path d="M146.515 74.9794L145.373 73.6699L143.025 74.2335L146.515 74.9794Z" fill="#232D26"/>
<path d="M287.038 108.234L287.045 108.181L287.041 108.128C286.418 99.992 289.109 93.8364 294.336 89.2572C299.587 84.6558 307.433 81.6164 317.156 79.834C336.599 76.2696 363.316 77.7709 391.068 81.5595C418.768 85.3408 442.332 94.2957 458.608 104.845C466.747 110.12 473.046 115.782 477.131 121.379C481.22 126.979 483.062 132.468 482.385 137.424C481.711 142.36 478.592 146.37 473.341 149.502C468.08 152.639 460.718 154.869 451.666 156.229C433.569 158.948 408.867 158.171 381.127 154.384C353.395 150.598 329.121 144.06 312.145 135.925C303.655 131.856 297.021 127.401 292.688 122.717C288.36 118.036 286.365 113.168 287.038 108.234Z" fill="#FCE300" stroke="#FCA600"/>
<path d="M487.769 127.057C487.096 131.992 483.741 136.385 478.115 140.091C472.49 143.797 464.646 146.777 455.124 148.89C436.085 153.114 410.445 153.845 382.726 150.061C355.008 146.277 330.502 138.701 313.291 129.528C304.684 124.94 297.926 119.967 293.5 114.889C289.073 109.811 287.019 104.679 287.692 99.7442C288.366 94.8096 291.72 90.4161 297.347 86.7101C302.972 83.0048 310.816 80.0242 320.337 77.9116C339.377 73.6872 365.017 72.9568 392.735 76.7407C420.454 80.5246 444.96 88.1005 462.17 97.2735C470.777 101.861 477.535 106.835 481.962 111.912C486.389 116.991 488.443 122.123 487.769 127.057Z" fill="#FCE300" stroke="#FCA600"/>
<path d="M479.563 125.937C478.948 130.444 475.925 134.192 470.831 137.177C465.733 140.166 458.614 142.356 449.944 143.748C432.609 146.532 409.209 146.106 383.741 142.63C358.273 139.153 335.616 133.292 319.661 125.963C311.682 122.298 305.41 118.28 301.3 114.034C297.193 109.792 295.285 105.372 295.9 100.865C296.516 96.3487 299.587 92.3229 304.748 88.923C309.908 85.5239 317.107 82.7881 325.848 80.8485C343.328 76.9702 366.869 76.2992 392.322 79.7738C417.774 83.2484 440.275 90.2047 456.075 98.626C463.977 102.838 470.179 107.403 474.239 112.061C478.301 116.72 480.18 121.421 479.563 125.937Z" fill="#C5A607" stroke="#FCA600"/>
<path d="M477.639 126.75C477.037 131.157 474.142 134.833 469.243 137.769C464.337 140.709 457.47 142.875 449.048 144.256C432.21 147.018 409.295 146.623 383.81 143.144C358.326 139.665 336.286 133.793 320.947 126.509C313.275 122.866 307.309 118.884 303.423 114.697C299.542 110.514 297.77 106.167 298.372 101.756C298.975 97.3399 301.88 93.4325 306.788 90.1536C311.698 86.8738 318.568 84.2558 326.986 82.4207C343.817 78.7513 366.723 78.2361 392.196 81.7134C417.666 85.1904 439.702 91.9706 455.04 100.162C462.711 104.258 468.682 108.694 472.574 113.225C476.465 117.755 478.241 122.335 477.639 126.75Z" fill="#FFD600" stroke="#FCA600"/>
<path d="M337.154 117.094L338.415 115.247L343.981 89.2613L343.486 89.1937L337.154 117.094Z" fill="#FCA600" stroke="#FCA600" stroke-width="0.4"/>
<path d="M391.175 128.001L337.154 117.094L338.348 115.743L392.009 125.591L392.436 126.154L392.234 127.641L420.472 131.495L421.013 127.532L442.79 115.871L442.587 117.357L422.364 128.726L421.755 133.184L391.535 129.059L391.175 128.001Z" fill="#FCA600" stroke="#FCA600" stroke-width="0.4"/>
<path d="M338.393 115.407L343.981 89.2614L423.494 94.5648L420.106 130.583L338.393 115.407Z" fill="#FFD600" stroke="#9B8200"/>
<path d="M361.228 119.49L362.953 106.853L364.439 107.056L365 102.948L366.981 103.219L366.421 107.326L369.393 107.732L369.954 103.625L371.935 103.895L371.375 108.002L374.347 108.408L374.908 104.301L376.89 104.572L375.078 117.841C382.994 118.931 390.694 118.041 391.039 115.514" stroke="#9B8200"/>
<path d="M364.439 90.5402L361.836 106.333L364.873 106.748L365.417 102.758L367.358 103.023L366.814 107.013L369.725 107.41L370.27 103.42L372.211 103.685L371.666 107.675L374.586 108.074L375.131 104.084L375.579 100.799L375.803 99.1568L376.4 94.7874C388.036 96.3759 393.079 99.2641 392.826 101.115" stroke="#9B8200"/>
<path d="M354.78 92.7499L353.568 101.629L342.065 99.5972L343.981 89.2613" stroke="#9B8200"/>
<path d="M352.828 113.178L353.618 103.697L341.232 102.007L338.426 115.411" stroke="#9B8200"/>
<path d="M393.476 101.365L378.747 99.3542C378.747 99.3542 378.657 101.637 381.477 102.022L387.986 102.91C393.193 103.621 393.193 103.621 392.74 106.942L392.287 110.263C391.833 113.583 391.833 113.583 386.626 112.873L380.117 111.984C377.297 111.599 376.764 113.887 376.764 113.887L391.517 115.901C397.05 116.656 396.993 116.261 397.72 110.934L398.315 106.576C398.882 102.425 398.9 102.105 393.476 101.365Z" fill="#FFD600" stroke="#9B8200"/>
<path d="M416.054 103.916C416.28 102.26 415.415 100.767 413.998 99.646C412.581 98.5235 410.556 97.7211 408.276 97.4098L396.784 95.8411L397.637 91.5396L421.981 94.863L420.177 130.894L392.484 127.114L393.168 122.102L404.69 123.675C407.008 123.991 409.218 123.523 410.91 122.591C412.591 121.665 413.825 120.24 414.048 118.61C414.276 116.938 413.376 115.558 411.935 114.557C410.5 113.559 408.466 112.883 406.206 112.574L398.461 111.517L399.031 107.335L406.777 108.393C409.07 108.706 411.25 108.397 412.926 107.618C414.596 106.842 415.829 105.562 416.054 103.916Z" fill="#FFD600" stroke="#9B8200"/>
<path d="M419.811 127.865L422.953 98.5281L442.504 115.578L419.811 127.865Z" fill="#FFD600" stroke="#9B8200"/>
<path d="M417.572 93.7564L423.027 94.501L420.192 130.896L414.248 130.085L417.572 93.7564Z" fill="#FFD600" stroke="#9B8200"/>
<path d="M407.669 113.922C410.657 115.466 411.44 118.148 409.418 119.912" stroke="#9B8200"/>
<path d="M406.701 119.078C405.687 118.94 404.828 118.554 404.256 118.069C403.679 117.58 403.447 117.043 403.511 116.573C403.575 116.102 403.943 115.647 404.63 115.33C405.31 115.017 406.242 114.876 407.256 115.014C408.271 115.153 409.13 115.538 409.702 116.023C410.279 116.512 410.511 117.049 410.447 117.52C410.382 117.99 410.015 118.445 409.328 118.762C408.647 119.076 407.716 119.217 406.701 119.078Z" fill="#FFD600" stroke="#9B8200"/>
<mask id="path-174-inside-11_116_383" fill="white">
<ellipse cx="406.979" cy="117.046" rx="0.637716" ry="1" transform="rotate(97.7735 406.979 117.046)"/>
</mask>
<ellipse cx="406.979" cy="117.046" rx="0.637716" ry="1" transform="rotate(97.7735 406.979 117.046)" fill="#FFD600"/>
<path d="M407.028 116.687C406.914 116.672 406.862 116.633 406.864 116.635C406.867 116.637 406.901 116.666 406.933 116.733C406.968 116.804 406.997 116.915 406.979 117.046L404.997 116.776C404.911 117.405 405.251 117.889 405.571 118.16C405.901 118.44 406.324 118.61 406.758 118.669L407.028 116.687ZM406.979 117.046C406.961 117.177 406.903 117.276 406.851 117.336C406.802 117.391 406.762 117.41 406.758 117.412C406.755 117.413 406.816 117.39 406.93 117.405L407.201 115.423C406.767 115.364 406.313 115.415 405.921 115.596C405.541 115.771 405.083 116.146 404.997 116.776L406.979 117.046ZM406.93 117.405C407.044 117.421 407.096 117.46 407.094 117.458C407.091 117.455 407.057 117.426 407.025 117.36C406.99 117.288 406.961 117.177 406.979 117.046L408.961 117.317C409.047 116.687 408.707 116.203 408.387 115.932C408.058 115.653 407.634 115.483 407.201 115.423L406.93 117.405ZM406.979 117.046C406.997 116.915 407.055 116.816 407.108 116.756C407.156 116.701 407.196 116.682 407.2 116.68C407.203 116.679 407.142 116.703 407.028 116.687L406.758 118.669C407.191 118.728 407.645 118.678 408.037 118.497C408.418 118.321 408.875 117.946 408.961 117.317L406.979 117.046Z" fill="#9B8200" mask="url(#path-174-inside-11_116_383)"/>
<path d="M408.537 107.563C411.83 106.876 413.303 104.503 411.827 102.261" stroke="#9B8200"/>
<path d="M408.982 102.377C407.967 102.239 407.036 102.38 406.355 102.693C405.668 103.01 405.301 103.465 405.237 103.936C405.172 104.406 405.405 104.943 405.982 105.432C406.553 105.917 407.413 106.303 408.427 106.441C409.442 106.58 410.373 106.439 411.054 106.125C411.741 105.808 412.108 105.353 412.172 104.883C412.237 104.412 412.005 103.875 411.428 103.386C410.856 102.901 409.996 102.516 408.982 102.377Z" fill="#FFD600" stroke="#9B8200"/>
<mask id="path-178-inside-12_116_383" fill="white">
<ellipse cx="0.637716" cy="1" rx="0.637716" ry="1" transform="matrix(0.135258 -0.990811 -0.990811 -0.135258 409.609 105.176)"/>
</mask>
<ellipse cx="0.637716" cy="1" rx="0.637716" ry="1" transform="matrix(0.135258 -0.990811 -0.990811 -0.135258 409.609 105.176)" fill="#FFD600"/>
<path d="M408.655 104.768C408.541 104.753 408.481 104.776 408.483 104.775C408.487 104.773 408.527 104.754 408.576 104.699C408.629 104.639 408.686 104.54 408.704 104.409L406.723 104.139C406.809 103.509 407.266 103.134 407.646 102.959C408.039 102.778 408.493 102.727 408.926 102.786L408.655 104.768ZM408.704 104.409C408.722 104.278 408.693 104.167 408.658 104.096C408.626 104.029 408.593 104 408.59 103.998C408.587 103.996 408.639 104.035 408.753 104.05L408.483 106.032C408.049 105.973 407.626 105.803 407.296 105.523C406.977 105.252 406.637 104.768 406.723 104.139L408.704 104.409ZM408.753 104.05C408.867 104.066 408.928 104.042 408.925 104.043C408.922 104.045 408.882 104.064 408.833 104.119C408.78 104.179 408.722 104.278 408.704 104.409L410.686 104.68C410.6 105.309 410.143 105.684 409.763 105.86C409.37 106.041 408.916 106.091 408.483 106.032L408.753 104.05ZM408.704 104.409C408.686 104.54 408.716 104.651 408.75 104.723C408.783 104.789 408.816 104.818 408.819 104.821C408.822 104.823 408.769 104.784 408.655 104.768L408.926 102.786C409.359 102.846 409.783 103.016 410.113 103.295C410.432 103.566 410.772 104.05 410.686 104.68L408.704 104.409Z" fill="#9B8200" mask="url(#path-178-inside-12_116_383)"/>
<path d="M429.544 117.19C427.972 116.976 426.628 116.377 425.723 115.61C424.813 114.838 424.399 113.948 424.511 113.122C424.624 112.297 425.261 111.55 426.345 111.051C427.423 110.554 428.879 110.338 430.45 110.552C432.022 110.767 433.367 111.365 434.272 112.133C435.182 112.905 435.596 113.794 435.483 114.62C435.371 115.446 434.733 116.192 433.649 116.692C432.572 117.189 431.116 117.405 429.544 117.19Z" stroke="#9B8200"/>
<path d="M433.804 114.391L430.025 112.321L430.614 113.955L433.804 114.391Z" fill="#4A564E" stroke="black" stroke-width="0.01"/>
<path d="M433.804 114.391L430.614 113.955L429.608 115.372L433.804 114.391Z" fill="#232D26"/>
<path d="M430.614 113.955L430.025 112.321L429.019 113.738L429.608 115.372L430.614 113.955Z" fill="#1B2217"/>
<path d="M428.221 113.629L429.227 112.212L425.829 113.302L428.221 113.629Z" fill="#4A564E" stroke="black" stroke-width="0.01"/>
<path d="M428.81 115.263L428.221 113.629L425.828 113.302L428.81 115.263Z" fill="#232D26"/>
<path d="M163.954 45.4986L163.963 45.4462L163.961 45.393C163.656 37.239 166.586 31.1933 171.988 26.8218C177.415 22.4292 185.374 19.6988 195.159 18.2978C214.726 15.4961 241.364 18.0406 268.947 22.911C296.478 27.7721 319.674 37.6413 335.525 48.8184C343.452 54.4076 349.524 60.3119 353.388 66.0637C357.254 71.8193 358.88 77.3765 358.011 82.3023C357.144 87.2083 353.871 91.0934 348.501 94.0175C343.122 96.9466 335.678 98.8865 326.58 99.8917C308.39 101.901 283.738 100.16 256.167 95.2913C228.605 90.4246 204.605 82.9427 187.96 74.1498C179.635 69.7522 173.18 65.0419 169.034 60.1914C164.891 55.3451 163.088 50.4026 163.954 45.4986Z" fill="#FCE300" stroke="#FCA600"/>
<path d="M363.797 72.1537C362.931 77.0582 359.407 81.3172 353.64 84.8005C347.874 88.2831 339.92 90.9548 330.323 92.6936C311.133 96.1706 285.484 95.8983 257.935 91.0338C230.385 86.1693 206.194 77.6414 189.355 67.8027C180.934 62.8823 174.376 57.6481 170.151 52.4015C165.926 47.1539 164.074 41.9457 164.94 37.0412C165.806 32.1367 169.33 27.8777 175.097 24.3944C180.862 20.9118 188.817 18.2401 198.414 16.5013C217.604 13.0243 243.252 13.2966 270.802 18.1611C298.352 23.0256 322.542 31.5535 339.381 41.3922C347.803 46.3126 354.361 51.5468 358.585 56.7934C362.811 62.041 364.663 67.2492 363.797 72.1537Z" fill="#FCE300" stroke="#FCA600"/>
<path d="M355.64 70.7135C354.849 75.1932 351.681 78.8197 346.475 81.6041C341.264 84.3908 334.065 86.3012 325.347 87.3536C307.916 89.4579 284.551 88.1176 259.239 83.6481C233.926 79.1786 211.515 72.4361 195.859 64.4898C188.029 60.5154 181.919 56.255 177.978 51.8523C174.04 47.4531 172.306 42.9612 173.097 38.4815C173.889 33.9932 177.115 30.0905 182.405 26.8949C187.694 23.7001 194.994 21.2478 203.805 19.6514C221.423 16.4593 244.973 16.7089 270.27 21.1757C295.567 25.6425 317.778 33.4729 333.237 42.5055C340.969 47.0228 346.987 51.8268 350.862 56.6398C354.738 61.4539 356.432 66.2252 355.64 70.7135Z" fill="#C5A607" stroke="#FCA600"/>
<path d="M353.685 71.4504C352.912 75.8306 349.876 79.3908 344.865 82.1333C339.848 84.8788 332.901 86.7746 324.432 87.8258C307.499 89.9275 284.617 88.6369 259.287 84.1644C233.959 79.6922 212.166 72.9636 197.122 65.0857C189.599 61.1457 183.793 56.9333 180.074 52.5971C176.359 48.2655 174.758 43.8528 175.532 39.4692C176.307 35.0798 179.363 31.2888 184.396 28.2043C189.43 25.119 196.397 22.7714 204.88 21.2668C221.842 18.258 244.751 18.6386 270.068 23.1089C295.383 27.5788 317.137 35.2151 332.143 43.9993C339.648 48.3924 345.441 53.0586 349.153 57.738C352.864 62.4172 354.46 67.0623 353.685 71.4504Z" fill="#FFD600" stroke="#FCA600"/>
<path d="M213.685 56.3107L215.018 54.515L221.595 28.7665L221.103 28.6795L213.685 56.3107Z" fill="#FCA600" stroke="#FCA600" stroke-width="0.4"/>
<path d="M267.239 69.3209L213.686 56.3107L214.931 55.0074L268.166 66.9459L268.572 67.5252L268.311 69.0024L296.377 73.958L297.072 70.019L319.289 59.2175L319.028 60.6947L298.376 71.2646L297.593 75.696L267.558 70.3926L267.239 69.3209Z" fill="#FCA600" stroke="#FCA600" stroke-width="0.4"/>
<path d="M214.99 54.6738L221.595 28.7665L300.84 37.1738L296.047 73.0325L214.99 54.6738Z" fill="#FFD600" stroke="#9B8200"/>
<path d="M237.648 59.6458L239.866 47.0858L241.343 47.3466L242.063 43.2646L244.033 43.6124L243.312 47.6944L246.267 48.216L246.987 44.134L248.957 44.4818L248.236 48.5638L251.19 49.0855L251.911 45.0034L253.881 45.3512L251.552 58.5392C259.419 59.9386 267.149 59.3504 267.592 56.8384" stroke="#9B8200"/>
<path d="M241.988 30.844L238.77 46.5232L241.788 47.0562L242.488 43.0904L244.417 43.431L243.717 47.3968L246.611 47.9077L247.311 43.9419L249.24 44.2825L248.54 48.2483L251.442 48.7608L252.142 44.795L252.719 41.5305L253.007 39.8982L253.774 35.5554C265.339 37.5975 270.265 40.6807 269.94 42.5205" stroke="#9B8200"/>
<path d="M232.25 32.6744L230.691 41.4995L219.277 39.0195L221.595 28.7664" stroke="#9B8200"/>
<path d="M229.5 53.0103L230.66 43.5681L218.35 41.3945L215.022 54.6794" stroke="#9B8200"/>
<path d="M270.579 42.7953L255.941 40.2105C255.941 40.2105 255.761 42.4879 258.564 42.9828L265.034 44.1251C270.209 45.039 270.209 45.039 269.626 48.3394L269.043 51.6399C268.461 54.9403 268.461 54.9403 263.285 54.0265L256.816 52.8842C254.013 52.3892 253.39 54.6546 253.39 54.6546L268.054 57.2438C273.553 58.2147 273.512 57.8175 274.447 52.523L275.212 48.1912C275.94 44.0656 275.97 43.7472 270.579 42.7953Z" fill="#FFD600" stroke="#9B8200"/>
<path d="M293.04 46.2267C293.33 44.5814 292.524 43.0556 291.153 41.8799C289.78 40.7029 287.789 39.822 285.523 39.4218L274.101 37.4051L275.121 33.1402L299.317 37.4126L296.106 73.3457L268.582 68.4858L269.461 63.5045L280.913 65.5266C283.217 65.9334 285.443 65.5515 287.171 64.6862C288.886 63.8269 290.175 62.4515 290.461 60.8314C290.755 59.1699 289.909 57.7555 288.509 56.6988C287.114 55.6459 285.107 54.8904 282.861 54.4938L275.163 53.1346L275.897 48.9785L283.595 50.3378C285.874 50.7401 288.065 50.5165 289.77 49.8037C291.469 49.0935 292.751 47.8629 293.04 46.2267Z" fill="#FFD600" stroke="#9B8200"/>
<path d="M295.859 70.3048L300.145 41.1129L319.014 58.9144L295.859 70.3048Z" fill="#FFD600" stroke="#9B8200"/>
<path d="M294.954 36.1345L300.376 37.0918L296.12 73.3483L290.212 72.3051L294.954 36.1345Z" fill="#FFD600" stroke="#9B8200"/>
<path d="M284.27 55.8979C287.196 57.5576 287.873 60.268 285.783 61.9517" stroke="#9B8200"/>
<path d="M283.102 61.0121C282.094 60.834 281.25 60.4153 280.698 59.9085C280.14 59.397 279.929 58.8513 280.012 58.3839C280.095 57.9164 280.48 57.4759 281.178 57.1863C281.871 56.8993 282.807 56.7948 283.815 56.9728C284.824 57.1509 285.667 57.5696 286.22 58.0764C286.777 58.5879 286.988 59.1336 286.905 59.601C286.823 60.0685 286.438 60.509 285.739 60.7986C285.046 61.0856 284.11 61.1901 283.102 61.0121Z" fill="#FFD600" stroke="#9B8200"/>
<mask id="path-203-inside-13_116_383" fill="white">
<ellipse cx="283.459" cy="58.9925" rx="0.637716" ry="1" transform="rotate(100.014 283.459 58.9925)"/>
</mask>
<ellipse cx="283.459" cy="58.9925" rx="0.637716" ry="1" transform="rotate(100.014 283.459 58.9925)" fill="#FFD600"/>
<path d="M283.522 58.6357C283.409 58.6157 283.358 58.5746 283.36 58.5768C283.363 58.5795 283.396 58.6095 283.425 58.6773C283.457 58.7504 283.482 58.862 283.459 58.9924L281.49 58.6447C281.379 59.2706 281.7 59.7673 282.008 60.0504C282.327 60.3428 282.744 60.5292 283.174 60.6052L283.522 58.6357ZM283.459 58.9924C283.436 59.1229 283.374 59.2192 283.319 59.277C283.268 59.3305 283.228 59.3477 283.224 59.3492C283.221 59.3505 283.283 59.3292 283.396 59.3492L283.744 57.3797C283.313 57.3036 282.858 57.3361 282.458 57.5016C282.071 57.6619 281.6 58.0188 281.49 58.6447L283.459 58.9924ZM283.396 59.3492C283.509 59.3692 283.56 59.4103 283.558 59.4081C283.555 59.4054 283.522 59.3754 283.493 59.3076C283.461 59.2345 283.436 59.1229 283.459 58.9924L285.429 59.3402C285.539 58.7143 285.218 58.2176 284.91 57.9345C284.591 57.6421 284.174 57.4557 283.744 57.3797L283.396 59.3492ZM283.459 58.9924C283.482 58.862 283.544 58.7657 283.599 58.7079C283.65 58.6543 283.69 58.6372 283.694 58.6357C283.697 58.6344 283.635 58.6557 283.522 58.6357L283.174 60.6052C283.605 60.6813 284.06 60.6488 284.46 60.4833C284.847 60.323 285.318 59.9661 285.429 59.3402L283.459 58.9924Z" fill="#9B8200" mask="url(#path-203-inside-13_116_383)"/>
<path d="M285.386 49.5774C288.703 49.02 290.268 46.7056 288.882 44.4081" stroke="#9B8200"/>
<path d="M286.033 44.4129C285.025 44.2349 284.089 44.3394 283.397 44.6264C282.698 44.916 282.313 45.3565 282.23 45.824C282.148 46.2914 282.359 46.8371 282.916 47.3486C283.468 47.8554 284.312 48.2741 285.32 48.4522C286.329 48.6302 287.265 48.5257 287.957 48.2387C288.656 47.9491 289.041 47.5086 289.124 47.0411C289.206 46.5737 288.995 46.028 288.438 45.5165C287.885 45.0097 287.042 44.591 286.033 44.4129Z" fill="#FFD600" stroke="#9B8200"/>
<mask id="path-207-inside-14_116_383" fill="white">
<ellipse cx="0.637716" cy="1" rx="0.637716" ry="1" transform="matrix(0.173882 -0.984767 -0.984767 -0.173882 286.551 47.2344)"/>
</mask>
<ellipse cx="0.637716" cy="1" rx="0.637716" ry="1" transform="matrix(0.173882 -0.984767 -0.984767 -0.173882 286.551 47.2344)" fill="#FFD600"/>
<path d="M285.614 46.7893C285.501 46.7693 285.439 46.7905 285.442 46.7893C285.446 46.7877 285.486 46.7706 285.537 46.717C285.592 46.6593 285.654 46.5629 285.677 46.4325L283.707 46.0847C283.818 45.4588 284.289 45.102 284.676 44.9417C285.076 44.7761 285.531 44.7437 285.962 44.8197L285.614 46.7893ZM285.677 46.4325C285.7 46.302 285.675 46.1904 285.643 46.1173C285.614 46.0496 285.581 46.0195 285.578 46.0168C285.576 46.0146 285.627 46.0557 285.74 46.0757L285.392 48.0453C284.961 47.9692 284.545 47.7828 284.226 47.4904C283.918 47.2073 283.597 46.7106 283.707 46.0847L285.677 46.4325ZM285.74 46.0757C285.853 46.0957 285.915 46.0745 285.912 46.0757C285.908 46.0773 285.867 46.0944 285.817 46.1479C285.762 46.2057 285.7 46.302 285.677 46.4325L287.646 46.7803C287.536 47.4061 287.064 47.763 286.678 47.9233C286.278 48.0889 285.823 48.1213 285.392 48.0453L285.74 46.0757ZM285.677 46.4325C285.654 46.5629 285.679 46.6746 285.711 46.7477C285.74 46.8154 285.773 46.8455 285.776 46.8482C285.778 46.8504 285.727 46.8092 285.614 46.7893L285.962 44.8197C286.392 44.8958 286.809 45.0822 287.128 45.3746C287.436 45.6577 287.757 46.1544 287.646 46.7803L285.677 46.4325Z" fill="#9B8200" mask="url(#path-207-inside-14_116_383)"/>
<path d="M306.001 60.0184C304.439 59.7426 303.119 59.0921 302.245 58.2897C301.365 57.4827 300.986 56.5775 301.131 55.7568C301.276 54.9361 301.942 54.2155 303.045 53.7584C304.141 53.304 305.604 53.1449 307.166 53.4208C308.729 53.6966 310.048 54.3471 310.923 55.1495C311.802 55.9565 312.181 56.8617 312.036 57.6824C311.892 58.503 311.225 59.2237 310.123 59.6807C309.026 60.1352 307.564 60.2943 306.001 60.0184Z" stroke="#9B8200"/>
<path d="M310.367 57.3876L306.671 55.1713L307.196 56.8277L310.367 57.3876Z" fill="#4A564E" stroke="black" stroke-width="0.01"/>
<path d="M310.367 57.3876L307.196 56.8277L306.136 58.2042L310.367 57.3876Z" fill="#232D26"/>
<path d="M307.196 56.8278L306.671 55.1713L305.611 56.5478L306.136 58.2043L307.196 56.8278Z" fill="#1B2217"/>
<path d="M304.818 56.4078L305.879 55.0313L302.44 55.9879L304.818 56.4078Z" fill="#4A564E" stroke="black" stroke-width="0.01"/>
<path d="M305.343 58.0643L304.818 56.4078L302.44 55.9879L305.343 58.0643Z" fill="#232D26"/>
</g>
</svg>
