<svg width="453" height="171" viewBox="0 0 453 171" fill="none" xmlns="http://www.w3.org/2000/svg">
<g opacity="0.9">
<path d="M1.14659 103V102.947L1.13538 102.895C-0.582724 94.9184 1.25147 88.4554 5.81011 83.2113C10.3908 77.9419 17.7538 73.8692 27.1462 70.7881C45.9285 64.6266 72.6033 62.5005 100.613 62.5005C128.569 62.5005 153.128 68.1859 170.681 76.4365C179.459 80.5623 186.466 85.3207 191.271 90.313C196.079 95.3087 198.646 100.499 198.646 105.5C198.646 110.482 196.099 114.878 191.319 118.691C186.531 122.511 179.538 125.715 170.754 128.287C153.19 133.429 128.61 136 100.613 136C72.624 136 47.6887 132.806 29.7685 127.041C20.8062 124.158 13.6298 120.642 8.70373 116.586C3.7818 112.534 1.14659 107.98 1.14659 103Z" fill="#FCE300" stroke="#FCA600"/>
<path d="M202.579 94.5005C202.579 99.4809 199.85 104.288 194.777 108.721C189.704 113.153 182.336 117.167 173.187 120.548C154.894 127.309 129.589 131.5 101.613 131.5C73.6372 131.5 48.332 127.309 30.0387 120.548C20.8902 117.167 13.5216 113.153 8.44933 108.721C3.376 104.288 0.646606 99.4809 0.646606 94.5005C0.646606 89.5201 3.376 84.7133 8.44933 80.2803C13.5216 75.8482 20.8902 71.8341 30.0387 68.453C48.332 61.6922 73.6372 57.5005 101.613 57.5005C129.589 57.5005 154.894 61.6922 173.187 68.453C182.336 71.8341 189.704 75.8482 194.777 80.2803C199.85 84.7133 202.579 89.5201 202.579 94.5005Z" fill="#FCE300" stroke="#FCA600"/>
<path d="M194.297 94.5005C194.297 99.0495 191.808 103.172 187.165 106.819C182.518 110.469 175.76 113.602 167.358 116.155C150.56 121.258 127.317 124 101.613 124C75.9091 124 52.6668 121.258 35.8679 116.155C27.4659 113.602 20.7084 110.469 16.0615 106.819C11.4183 103.172 8.92981 99.0495 8.92981 94.5005C8.92981 89.9427 11.4274 85.5386 16.0816 81.4719C20.7347 77.406 27.4968 73.7217 35.8959 70.6176C52.6902 64.4107 75.9247 60.5617 101.613 60.5617C127.302 60.5617 150.536 64.4107 167.33 70.6176C175.73 73.7217 182.492 77.406 187.145 81.4719C191.799 85.5386 194.297 89.9427 194.297 94.5005Z" fill="#FFD600" stroke="#FCA600"/>
<g opacity="0.6">
<path d="M120.054 86.581L112.752 114.334L57.5254 103.41L66.7274 68.4318L120.054 86.581Z" fill="#A9A9A9" stroke="#242D1F"/>
<path d="M105.126 81.6647L101.881 93.9993L100.899 93.741L99.8443 97.7497L98.5351 97.4053L99.5897 93.3966L97.626 92.88L96.5714 96.8887L95.2622 96.5443L96.3168 92.5355L94.3531 92.0189L93.2985 96.0277L91.9893 95.6833L95.3965 82.7319C90.1687 81.3461 84.7637 81.9129 84.1148 84.3798" stroke="#242D1F"/>
<path d="M98.4045 111.548L102.953 94.2596L100.904 93.7207L99.855 97.7089L98.5458 97.3645L99.595 93.3763L97.6313 92.8596L96.5821 96.8479L95.2729 96.5035L96.3221 92.5152L94.3524 91.997L93.3032 95.9853L92.4395 99.2682L92.0077 100.91L90.8587 105.277C83.0097 103.212 79.9774 100.106 80.4641 98.2562" stroke="#242D1F"/>
<path d="M105.156 108.166L107.436 99.4997L116.037 101.762L112.731 114.328" stroke="#242D1F"/>
<path d="M110.408 88.2042L108.147 96.7987L116.747 99.0613L120.032 86.5754" stroke="#242D1F"/>
<path d="M80.1368 98.1702L89.8672 100.73C89.8672 100.73 90.3025 98.4933 88.4391 98.003L84.1389 96.8717C80.6987 95.9667 80.6987 95.9667 81.5514 92.7255L82.4041 89.4843C83.2568 86.2431 83.2568 86.2431 86.697 87.1481L90.9971 88.2794C92.8606 88.7696 93.599 86.5452 93.599 86.5452L83.8519 83.981C80.1967 83.0194 80.1708 83.4096 78.8029 88.6091L77.6837 92.8632C76.6179 96.9147 76.5533 97.2274 80.1368 98.1702Z" fill="#A9A9A9" stroke="#242D1F"/>
<path d="M64.9775 94.7264C64.1623 97.8252 66.2549 100.64 69.3817 101.463L76.8377 103.424L75.4696 108.624L57.4574 103.886L66.8569 68.1574L84.869 72.896L83.5821 77.7879L76.1261 75.8264C74.5038 75.3996 72.8515 75.8014 71.522 76.6628C70.1947 77.5227 69.1505 78.8642 68.7508 80.3838C68.3452 81.9254 68.6934 83.3109 69.5562 84.4051C70.4078 85.4852 71.7379 86.2566 73.2757 86.6611L78.2364 87.9662L77.1627 92.0477L72.2019 90.7426C69.0361 89.9098 65.7834 91.6631 64.9775 94.7264Z" fill="#A9A9A9" stroke="#242D1F"/>
<path d="M66.4842 71.1114L58.6679 100.823L48.9763 82.2673L66.4842 71.1114Z" fill="#A9A9A9" stroke="#242D1F"/>
<path d="M57.4574 103.886L66.8569 68.1574L70.4766 69.1097L61.0772 104.838L57.4574 103.886Z" fill="#A9A9A9" stroke="#242D1F"/>
<path d="M72.4972 85.2799C70.7088 83.6454 70.6125 80.982 72.2823 79.3311" stroke="#242D1F"/>
<path d="M74.001 80.2578C75.2076 80.5753 75.8952 81.7342 75.614 82.8028C75.3329 83.8715 74.164 84.542 72.9575 84.2246C71.7509 83.9072 71.0633 82.7483 71.3445 81.6796C71.6256 80.6109 72.7945 79.9404 74.001 80.2578Z" fill="#A9A9A9" stroke="#242D1F"/>
<mask id="path-15-inside-1_54_660" fill="white">
<ellipse cx="73.4792" cy="82.2412" rx="0.637716" ry="0.676856" transform="rotate(-75.2606 73.4792 82.2412)"/>
</mask>
<ellipse cx="73.4792" cy="82.2412" rx="0.637716" ry="0.676856" transform="rotate(-75.2606 73.4792 82.2412)" fill="#A9A9A9"/>
<path d="M73.387 82.5916C73.2695 82.5607 73.1017 82.406 73.1667 82.159L75.1009 82.6678C75.345 81.7397 74.7364 80.8785 73.8959 80.6574L73.387 82.5916ZM73.1667 82.159C73.2316 81.912 73.4538 81.8599 73.5714 81.8908L73.0625 83.825C73.9031 84.0462 74.8567 83.596 75.1009 82.6678L73.1667 82.159ZM73.5714 81.8908C73.6889 81.9218 73.8567 82.0765 73.7917 82.3234L71.8575 81.8146C71.6133 82.7428 72.222 83.6039 73.0625 83.825L73.5714 81.8908ZM73.7917 82.3234C73.7267 82.5704 73.5045 82.6225 73.387 82.5916L73.8959 80.6574C73.0553 80.4363 72.1017 80.8864 71.8575 81.8146L73.7917 82.3234Z" fill="#242D1F" mask="url(#path-15-inside-1_54_660)"/>
<path d="M70.8644 91.487C68.5031 92.0298 67.1086 94.301 67.7498 96.5599" stroke="#242D1F"/>
<path d="M69.7124 96.5591C70.919 96.8766 72.0879 96.206 72.369 95.1374C72.6502 94.0687 71.9626 92.9098 70.756 92.5924C69.5495 92.275 68.3806 92.9455 68.0994 94.0141C67.8183 95.0828 68.5059 96.2417 69.7124 96.5591Z" fill="#A9A9A9" stroke="#242D1F"/>
<mask id="path-19-inside-2_54_660" fill="white">
<ellipse cx="0.637716" cy="0.676856" rx="0.637716" ry="0.676856" transform="matrix(-0.254422 0.967093 0.967093 0.254422 69.7418 93.7869)"/>
</mask>
<ellipse cx="0.637716" cy="0.676856" rx="0.637716" ry="0.676856" transform="matrix(-0.254422 0.967093 0.967093 0.254422 69.7418 93.7869)" fill="#A9A9A9"/>
<path d="M70.3263 94.2254C70.2088 94.1945 69.9866 94.2466 69.9216 94.4936L71.8558 95.0024C71.6116 95.9306 70.658 96.3808 69.8175 96.1596L70.3263 94.2254ZM69.9216 94.4936C69.8567 94.7406 70.0245 94.8952 70.142 94.9262L70.6508 92.992C71.4914 93.2131 72.1 94.0742 71.8558 95.0024L69.9216 94.4936ZM70.142 94.9262C70.2595 94.9571 70.4817 94.905 70.5467 94.658L68.6125 94.1492C68.8567 93.221 69.8103 92.7708 70.6508 92.992L70.142 94.9262ZM70.5467 94.658C70.6116 94.4111 70.4438 94.2564 70.3263 94.2254L69.8175 96.1596C68.9769 95.9385 68.3683 95.0774 68.6125 94.1492L70.5467 94.658Z" fill="#242D1F" mask="url(#path-19-inside-2_54_660)"/>
<path d="M58.0911 81.2013C60.034 81.7125 61.1706 83.5909 60.7069 85.3534C60.2433 87.1158 58.3295 88.1918 56.3865 87.6806C54.4436 87.1695 53.307 85.291 53.7707 83.5286C54.2343 81.7661 56.1481 80.6902 58.0911 81.2013Z" stroke="#242D1F"/>
<path d="M54.7242 83.7794L56.9669 85.9618L56.8318 84.3339L54.7242 83.7794Z" fill="#4A564E" stroke="black" stroke-width="0.01"/>
<path d="M54.7242 83.7794L56.8318 84.3339L57.7505 82.9833L54.7242 83.7794Z" fill="#232D26"/>
<path d="M56.8317 84.3339L56.9668 85.9617L57.8855 84.6111L57.7504 82.9832L56.8317 84.3339Z" fill="#1B2217"/>
<path d="M58.4125 84.7497L57.4938 86.1004L59.9931 85.1656L58.4125 84.7497Z" fill="#4A564E" stroke="black" stroke-width="0.01"/>
<path d="M58.2774 83.1218L58.4125 84.7497L59.9932 85.1656L58.2774 83.1218Z" fill="#232D26"/>
</g>
</g>
<path d="M94.2931 89.4336V89.3803L94.2819 89.3283C92.5638 81.3515 94.3979 74.8884 98.9566 69.6444C103.537 64.375 110.9 60.3023 120.293 57.2212C139.075 51.0597 165.75 48.9336 193.759 48.9336C221.716 48.9336 246.275 54.619 263.828 62.8696C272.605 66.9954 279.612 71.7538 284.417 76.7461C289.226 81.7418 291.793 86.9316 291.793 91.9336C291.793 96.9155 289.245 101.311 284.466 105.124C279.678 108.944 272.684 112.148 263.9 114.72C246.337 119.862 221.757 122.434 193.759 122.434C165.77 122.434 140.835 119.239 122.915 113.474C113.953 110.591 106.776 107.075 101.85 103.019C96.9283 98.967 94.2931 94.4134 94.2931 89.4336Z" fill="#FCE300" stroke="#FCA600"/>
<path d="M295.726 80.9336C295.726 85.914 292.996 90.7207 287.923 95.1537C282.851 99.5858 275.482 103.6 266.334 106.981C248.04 113.742 222.735 117.934 194.759 117.934C166.784 117.934 141.478 113.742 123.185 106.981C114.037 103.6 106.668 99.5858 101.596 95.1537C96.5225 90.7207 93.7931 85.914 93.7931 80.9336C93.7931 75.9532 96.5225 71.1464 101.596 66.7134C106.668 62.2813 114.037 58.2672 123.185 54.8861C141.478 48.1252 166.784 43.9336 194.759 43.9336C222.735 43.9336 248.04 48.1252 266.334 54.8861C275.482 58.2672 282.851 62.2813 287.923 66.7134C292.996 71.1464 295.726 75.9532 295.726 80.9336Z" fill="#FCE300" stroke="#FCA600"/>
<path d="M287.443 80.9336C287.443 85.4825 284.954 89.6046 280.311 93.2519C275.664 96.9022 268.907 100.035 260.505 102.588C243.706 107.691 220.464 110.434 194.76 110.434C169.056 110.434 145.813 107.691 129.014 102.588C120.612 100.035 113.855 96.9022 109.208 93.2519C104.565 89.6046 102.076 85.4825 102.076 80.9336C102.076 76.3758 104.574 71.9717 109.228 67.9049C113.881 63.8391 120.643 60.1548 129.042 57.0507C145.837 50.8438 169.071 46.9948 194.76 46.9948C220.448 46.9948 243.683 50.8438 260.477 57.0507C268.876 60.1548 275.638 63.8391 280.291 67.9049C284.945 71.9717 287.443 76.3758 287.443 80.9336Z" fill="#FFD600" stroke="#FCA600"/>
<g opacity="0.6">
<path d="M134 92.1612L134 63.464L217.015 59.9775L217.015 96.1458L134 92.1612Z" fill="#A9A9A9" stroke="#242D1F"/>
<path d="M157.177 93.1178L157.177 80.3634L158.677 80.3634L158.677 76.2183L160.677 76.2183L160.677 80.3634L163.677 80.3634L163.677 76.2183L165.677 76.2183L165.677 80.3634L168.677 80.3634L168.677 76.2183L170.677 76.2183L170.677 89.6103C178.667 89.6204 186.177 87.6972 186.177 85.1463" stroke="#242D1F"/>
<path d="M155.547 62.5074L155.547 80.3844L158.677 80.3844L158.677 76.2605L160.677 76.2605L160.677 80.3844L163.677 80.3844L163.677 76.2605L165.677 76.2605L165.677 80.3844L168.686 80.3844L168.686 76.2605L168.686 72.8658L168.686 71.1685L168.686 66.6525C180.677 66.6525 186.177 68.8845 186.177 70.7977" stroke="#242D1F"/>
<path d="M147.172 67.4958L147.172 76.4574L134.033 76.4574L134.033 63.464" stroke="#242D1F"/>
<path d="M147.171 88.1373L147.171 79.2503L134.033 79.2503L134.033 92.1612" stroke="#242D1F"/>
<path d="M186.677 70.7977L171.812 70.7977C171.812 70.7977 172.031 73.0716 174.878 73.0716L181.447 73.0716C186.702 73.0716 186.702 73.0716 186.702 76.4231L186.702 79.7746C186.702 83.1261 186.702 83.1261 181.447 83.1261L174.878 83.1261C172.031 83.1261 171.812 85.4652 171.812 85.4652L186.702 85.4652C192.286 85.4652 192.177 85.0812 192.177 79.7048L192.177 75.306C192.177 71.1166 192.151 70.7977 186.677 70.7977Z" fill="#A9A9A9" stroke="#242D1F"/>
<path d="M209.392 70.2713C209.392 68.6005 208.333 67.2381 206.779 66.3188C205.222 65.3984 203.108 64.8772 200.806 64.8772L189.177 64.8772L189.177 59.5L217.172 59.5L217.172 96.4441L189.177 96.4441L189.177 91.3858L200.806 91.3858C203.145 91.3858 205.272 90.6226 206.822 89.4702C208.362 88.3256 209.392 86.7471 209.392 85.1019C209.392 83.4147 208.314 82.1689 206.751 81.3717C205.194 80.5774 203.087 80.1824 200.806 80.1824L192.989 80.1824L192.989 75.962L200.806 75.962C203.12 75.962 205.239 75.3608 206.794 74.3624C208.344 73.3675 209.392 71.9328 209.392 70.2713Z" fill="#A9A9A9" stroke="#242D1F"/>
<path d="M216.355 93.4925L216.355 62.7704L237.177 78.2493L216.355 93.4925Z" fill="#A9A9A9" stroke="#242D1F"/>
<path d="M217.172 59.5L217.172 96.4441L211.164 96.4441L211.164 59.5L217.172 59.5Z" fill="#A9A9A9" stroke="#242D1F"/>
<path d="M202.438 81.32C205.608 82.4457 206.746 84.997 204.981 87.0184" stroke="#242D1F"/>
<path d="M202.177 86.5594C201.153 86.5594 200.249 86.2938 199.617 85.8907C198.98 85.4839 198.677 84.9832 198.677 84.5085C198.677 84.0339 198.98 83.5331 199.617 83.1264C200.249 82.7233 201.153 82.4577 202.177 82.4577C203.201 82.4577 204.105 82.7233 204.737 83.1264C205.374 83.5331 205.677 84.0339 205.677 84.5085C205.677 84.9832 205.374 85.4839 204.737 85.8907C204.105 86.2938 203.201 86.5594 202.177 86.5594Z" fill="#A9A9A9" stroke="#242D1F"/>
<mask id="path-41-inside-3_54_660" fill="white">
<ellipse cx="202.177" cy="84.5086" rx="0.637716" ry="1" transform="rotate(90 202.177 84.5086)"/>
</mask>
<ellipse cx="202.177" cy="84.5086" rx="0.637716" ry="1" transform="rotate(90 202.177 84.5086)" fill="#A9A9A9"/>
<path d="M202.177 84.1463C202.062 84.1463 202.005 84.1146 202.008 84.1164C202.011 84.1185 202.048 84.1425 202.089 84.2041C202.133 84.2705 202.177 84.3761 202.177 84.5086L200.177 84.5086C200.177 85.1441 200.579 85.5775 200.932 85.8026C201.297 86.0352 201.74 86.1463 202.177 86.1463L202.177 84.1463ZM202.177 84.5086C202.177 84.641 202.133 84.7466 202.089 84.8131C202.048 84.8747 202.011 84.8986 202.008 84.9008C202.005 84.9025 202.062 84.8708 202.177 84.8708L202.177 82.8708C201.74 82.8708 201.297 82.982 200.932 83.2145C200.579 83.4396 200.177 83.873 200.177 84.5086L202.177 84.5086ZM202.177 84.8708C202.292 84.8708 202.349 84.9025 202.346 84.9008C202.343 84.8986 202.306 84.8747 202.265 84.8131C202.221 84.7466 202.177 84.641 202.177 84.5086L204.177 84.5086C204.177 83.873 203.775 83.4396 203.422 83.2145C203.057 82.982 202.614 82.8708 202.177 82.8708L202.177 84.8708ZM202.177 84.5086C202.177 84.3761 202.221 84.2705 202.265 84.2041C202.306 84.1425 202.343 84.1185 202.346 84.1164C202.349 84.1146 202.292 84.1463 202.177 84.1463L202.177 86.1463C202.614 86.1463 203.057 86.0352 203.422 85.8026C203.775 85.5775 204.177 85.1441 204.177 84.5086L202.177 84.5086Z" fill="#242D1F" mask="url(#path-41-inside-3_54_660)"/>
<path d="M202.438 74.9018C205.607 73.7761 206.746 71.2248 204.981 69.2034" stroke="#242D1F"/>
<path d="M202.177 69.7034C201.153 69.7034 200.249 69.9691 199.617 70.3721C198.98 70.7789 198.677 71.2796 198.677 71.7543C198.677 72.2289 198.98 72.7297 199.617 73.1364C200.249 73.5395 201.153 73.8051 202.177 73.8051C203.201 73.8051 204.105 73.5395 204.737 73.1364C205.374 72.7297 205.677 72.2289 205.677 71.7543C205.677 71.2796 205.374 70.7789 204.737 70.3721C204.105 69.9691 203.201 69.7034 202.177 69.7034Z" fill="#A9A9A9" stroke="#242D1F"/>
<mask id="path-45-inside-4_54_660" fill="white">
<ellipse cx="0.637716" cy="1" rx="0.637716" ry="1" transform="matrix(4.37114e-08 -1 -1 -4.37114e-08 203.177 72.392)"/>
</mask>
<ellipse cx="0.637716" cy="1" rx="0.637716" ry="1" transform="matrix(4.37114e-08 -1 -1 -4.37114e-08 203.177 72.392)" fill="#A9A9A9"/>
<path d="M202.177 72.1166C202.062 72.1166 202.005 72.1482 202.008 72.1465C202.011 72.1443 202.048 72.1204 202.089 72.0588C202.133 71.9923 202.177 71.8868 202.177 71.7543L200.177 71.7543C200.177 71.1187 200.579 70.6853 200.932 70.4602C201.297 70.2277 201.74 70.1166 202.177 70.1166L202.177 72.1166ZM202.177 71.7543C202.177 71.6218 202.133 71.5162 202.089 71.4498C202.048 71.3882 202.011 71.3642 202.008 71.3621C202.005 71.3603 202.062 71.392 202.177 71.392L202.177 73.392C201.74 73.392 201.297 73.2809 200.932 73.0484C200.579 72.8232 200.177 72.3898 200.177 71.7543L202.177 71.7543ZM202.177 71.392C202.292 71.392 202.349 71.3603 202.346 71.3621C202.343 71.3642 202.306 71.3882 202.265 71.4498C202.221 71.5162 202.177 71.6218 202.177 71.7543L204.177 71.7543C204.177 72.3898 203.775 72.8232 203.422 73.0484C203.057 73.2809 202.614 73.392 202.177 73.392L202.177 71.392ZM202.177 71.7543C202.177 71.8868 202.221 71.9923 202.265 72.0588C202.306 72.1204 202.343 72.1443 202.346 72.1465C202.349 72.1482 202.292 72.1166 202.177 72.1166L202.177 70.1166C202.614 70.1166 203.057 70.2277 203.422 70.4602C203.775 70.6853 204.177 71.1187 204.177 71.7543L202.177 71.7543Z" fill="#242D1F" mask="url(#path-45-inside-4_54_660)"/>
<path d="M224.554 81.5991C222.968 81.5991 221.555 81.1881 220.554 80.55C219.548 79.9081 219.017 79.0827 219.017 78.2493C219.017 77.4159 219.548 76.5904 220.554 75.9486C221.555 75.3105 222.968 74.8994 224.554 74.8994C226.141 74.8994 227.554 75.3105 228.554 75.9486C229.561 76.5904 230.091 77.4159 230.091 78.2493C230.091 79.0827 229.561 79.9081 228.554 80.55C227.554 81.1881 226.141 81.5991 224.554 81.5991Z" stroke="#242D1F"/>
<path d="M228.396 78.2493L224.371 76.7094L225.176 78.2493L228.396 78.2493Z" fill="#4A564E" stroke="black" stroke-width="0.01"/>
<path d="M228.396 78.2493L225.176 78.2493L224.371 79.7892L228.396 78.2493Z" fill="#232D26"/>
<path d="M225.176 78.2493L224.371 76.7094L223.566 78.2493L224.371 79.7892L225.176 78.2493Z" fill="#1B2217"/>
<path d="M222.761 78.2493L223.566 76.7094L220.347 78.2493L222.761 78.2493Z" fill="#4A564E" stroke="black" stroke-width="0.01"/>
<path d="M223.566 79.7892L222.761 78.2493L220.347 78.2493L223.566 79.7892Z" fill="#232D26"/>
</g>
<path d="M238.44 113.434V113.38L238.428 113.328C236.71 105.352 238.544 98.8884 243.103 93.6444C247.684 88.375 255.047 84.3023 264.439 81.2212C283.222 75.0597 309.896 72.9336 337.906 72.9336C365.862 72.9336 390.421 78.619 407.974 86.8696C416.752 90.9954 423.759 95.7538 428.564 100.746C433.372 105.742 435.939 110.932 435.939 115.934C435.939 120.916 433.392 125.311 428.612 129.124C423.824 132.944 416.831 136.148 408.047 138.72C390.483 143.862 365.903 146.434 337.906 146.434C309.917 146.434 284.982 143.239 267.061 137.474C258.099 134.591 250.923 131.075 245.997 127.019C241.075 122.967 238.44 118.413 238.44 113.434Z" fill="#FCE300" stroke="#FCA600"/>
<path d="M439.872 104.934C439.872 109.914 437.143 114.721 432.069 119.154C426.997 123.586 419.629 127.6 410.48 130.981C392.187 137.742 366.882 141.934 338.906 141.934C310.93 141.934 285.625 137.742 267.332 130.981C258.183 127.6 250.815 123.586 245.742 119.154C240.669 114.721 237.94 109.914 237.94 104.934C237.94 99.9532 240.669 95.1464 245.742 90.7134C250.815 86.2813 258.183 82.2672 267.332 78.8861C285.625 72.1252 310.93 67.9336 338.906 67.9336C366.882 67.9336 392.187 72.1252 410.48 78.8861C419.629 82.2672 426.997 86.2813 432.069 90.7134C437.143 95.1464 439.872 99.9532 439.872 104.934Z" fill="#FCE300" stroke="#FCA600"/>
<path d="M431.589 104.934C431.589 109.483 429.101 113.605 424.458 117.252C419.811 120.902 413.053 124.035 404.651 126.588C387.853 131.691 364.61 134.434 338.906 134.434C313.202 134.434 289.96 131.691 273.161 126.588C264.759 124.035 258.001 120.902 253.354 117.252C248.711 113.605 246.223 109.483 246.223 104.934C246.223 100.376 248.72 95.9717 253.375 91.9049C258.028 87.8391 264.79 84.1548 273.189 81.0507C289.983 74.8438 313.218 70.9948 338.906 70.9948C364.595 70.9948 387.829 74.8438 404.623 81.0507C413.022 84.1548 419.785 87.8391 424.438 91.9049C429.092 95.9717 431.589 100.376 431.589 104.934Z" fill="#FFD600" stroke="#FCA600"/>
<g opacity="0.6">
<path d="M276.425 107.998L280.87 79.6475L363.423 89.063L357.82 124.795L276.425 107.998Z" fill="#A9A9A9" stroke="#242D1F"/>
<path d="M299.174 112.534L301.15 99.9333L302.631 100.166L303.274 96.0706L305.249 96.3804L304.607 100.476L307.571 100.94L308.213 96.8451L310.189 97.155L309.547 101.25L312.511 101.715L313.153 97.6197L315.129 97.9295L313.054 111.16C320.947 112.408 328.663 111.671 329.059 109.151" stroke="#242D1F"/>
<path d="M302.306 82.0404L299.536 99.7016L302.628 100.186L303.267 96.1123L305.243 96.4221L304.604 100.496L307.568 100.961L308.207 96.8868L310.183 97.1967L309.544 101.271L312.517 101.737L313.155 97.6628L313.681 94.3091L313.944 92.6323L314.644 88.1708C326.49 90.0284 331.578 93.0854 331.281 94.9755" stroke="#242D1F"/>
<path d="M293.258 85.6711L291.87 94.5245L278.89 92.4892L280.903 79.6526" stroke="#242D1F"/>
<path d="M290.061 106.063L291.437 97.2837L278.457 95.2484L276.457 108.003" stroke="#242D1F"/>
<path d="M331.775 95.0529L317.09 92.7502C317.09 92.7502 316.954 95.0305 319.766 95.4715L326.256 96.4892C331.448 97.3033 331.448 97.3033 330.929 100.614L330.41 103.925C329.891 107.236 329.891 107.236 324.699 106.422L318.208 105.405C315.396 104.964 314.818 107.241 314.818 107.241L329.528 109.547C335.045 110.412 334.996 110.016 335.829 104.704L336.51 100.359C337.159 96.2199 337.184 95.901 331.775 95.0529Z" fill="#A9A9A9" stroke="#242D1F"/>
<path d="M354.298 98.0517C354.557 96.4011 353.722 94.8911 352.328 93.742C350.933 92.5916 348.925 91.7491 346.651 91.3926L335.162 89.5911L335.995 84.2789L363.652 88.6155L357.929 125.114L330.272 120.777L331.056 115.78L342.545 117.581C344.856 117.944 347.075 117.519 348.785 116.621C350.483 115.728 351.746 114.329 352.001 112.703C352.262 111.036 351.389 109.639 349.969 108.609C348.554 107.583 346.534 106.866 344.28 106.513L336.557 105.302L337.211 101.133L344.934 102.344C347.22 102.702 349.406 102.436 351.097 101.691C352.783 100.948 354.041 99.6931 354.298 98.0517Z" fill="#A9A9A9" stroke="#242D1F"/>
<path d="M357.579 122.071L362.338 91.7199L380.511 110.237L357.579 122.071Z" fill="#A9A9A9" stroke="#242D1F"/>
<path d="M363.652 88.6155L357.929 125.114L351.994 124.183L357.717 87.6849L363.652 88.6155Z" fill="#A9A9A9" stroke="#242D1F"/>
<path d="M345.716 107.89C348.673 109.493 349.403 112.19 347.345 113.913" stroke="#242D1F"/>
<path d="M344.646 113.025C343.635 112.867 342.783 112.464 342.221 111.968C341.654 111.468 341.433 110.926 341.506 110.457C341.58 109.988 341.956 109.54 342.65 109.237C343.336 108.937 344.27 108.815 345.282 108.973C346.293 109.132 347.145 109.534 347.707 110.03C348.274 110.531 348.495 111.073 348.422 111.542C348.348 112.01 347.972 112.458 347.279 112.761C346.592 113.062 345.658 113.184 344.646 113.025Z" fill="#A9A9A9" stroke="#242D1F"/>
<mask id="path-67-inside-5_54_660" fill="white">
<ellipse cx="344.964" cy="110.999" rx="0.637716" ry="1" transform="rotate(98.9116 344.964 110.999)"/>
</mask>
<ellipse cx="344.964" cy="110.999" rx="0.637716" ry="1" transform="rotate(98.9116 344.964 110.999)" fill="#A9A9A9"/>
<path d="M345.02 110.641C344.907 110.624 344.855 110.584 344.858 110.586C344.861 110.588 344.894 110.618 344.924 110.685C344.958 110.757 344.985 110.869 344.964 110.999L342.988 110.69C342.89 111.317 343.22 111.808 343.534 112.085C343.858 112.371 344.278 112.55 344.71 112.617L345.02 110.641ZM344.964 110.999C344.944 111.13 344.884 111.228 344.83 111.287C344.78 111.341 344.74 111.359 344.736 111.361C344.733 111.362 344.795 111.34 344.908 111.357L345.218 109.381C344.786 109.314 344.331 109.355 343.935 109.528C343.551 109.696 343.087 110.062 342.988 110.69L344.964 110.999ZM344.908 111.357C345.022 111.375 345.073 111.415 345.071 111.413C345.068 111.41 345.035 111.381 345.004 111.314C344.971 111.241 344.944 111.13 344.964 110.999L346.94 111.309C347.038 110.681 346.708 110.191 346.394 109.914C346.07 109.628 345.65 109.449 345.218 109.381L344.908 111.357ZM344.964 110.999C344.985 110.869 345.045 110.771 345.098 110.712C345.148 110.658 345.189 110.64 345.192 110.638C345.195 110.637 345.134 110.659 345.02 110.641L344.71 112.617C345.143 112.685 345.597 112.644 345.993 112.471C346.377 112.303 346.842 111.937 346.94 111.309L344.964 110.999Z" fill="#242D1F" mask="url(#path-67-inside-5_54_660)"/>
<path d="M346.71 101.549C350.016 100.928 351.536 98.5838 350.105 96.3133" stroke="#242D1F"/>
<path d="M347.258 96.373C346.246 96.2143 345.312 96.3368 344.625 96.6371C343.932 96.9401 343.556 97.3879 343.482 97.8569C343.409 98.3258 343.63 98.8674 344.197 99.368C344.759 99.8641 345.611 100.267 346.622 100.425C347.634 100.584 348.568 100.461 349.255 100.161C349.948 99.858 350.324 99.4102 350.398 98.9413C350.471 98.4723 350.25 97.9308 349.683 97.4301C349.121 96.934 348.269 96.5316 347.258 96.373Z" fill="#A9A9A9" stroke="#242D1F"/>
<mask id="path-71-inside-6_54_660" fill="white">
<ellipse cx="0.637716" cy="1" rx="0.637716" ry="1" transform="matrix(0.15491 -0.987929 -0.987929 -0.15491 347.829 99.184)"/>
</mask>
<ellipse cx="0.637716" cy="1" rx="0.637716" ry="1" transform="matrix(0.15491 -0.987929 -0.987929 -0.15491 347.829 99.184)" fill="#A9A9A9"/>
<path d="M346.884 98.757C346.77 98.7392 346.709 98.7616 346.712 98.7603C346.716 98.7587 346.756 98.7408 346.806 98.6862C346.86 98.6274 346.919 98.5299 346.94 98.3991L344.964 98.0892C345.063 97.4613 345.527 97.0955 345.911 96.9278C346.307 96.7545 346.762 96.7134 347.194 96.7811L346.884 98.757ZM346.94 98.3991C346.96 98.2682 346.933 98.1571 346.9 98.0846C346.869 98.0174 346.836 97.988 346.833 97.9853C346.831 97.9832 346.883 98.0233 346.996 98.0412L346.686 100.017C346.254 99.9493 345.834 99.7709 345.51 99.4847C345.196 99.2076 344.866 98.7171 344.964 98.0892L346.94 98.3991ZM346.996 98.0412C347.11 98.059 347.171 98.0365 347.168 98.0378C347.164 98.0394 347.124 98.0574 347.074 98.1119C347.02 98.1707 346.96 98.2682 346.94 98.3991L348.916 98.7089C348.817 99.3368 348.353 99.7026 347.969 99.8704C347.573 100.044 347.118 100.085 346.686 100.017L346.996 98.0412ZM346.94 98.3991C346.919 98.5299 346.947 98.6411 346.98 98.7135C347.011 98.7807 347.044 98.8101 347.047 98.8128C347.049 98.8149 346.997 98.7748 346.884 98.757L347.194 96.7811C347.626 96.8489 348.046 97.0272 348.37 97.3134C348.684 97.5905 349.014 98.081 348.916 98.7089L346.94 98.3991Z" fill="#242D1F" mask="url(#path-71-inside-6_54_660)"/>
<path d="M367.522 111.592C365.955 111.346 364.623 110.721 363.733 109.935C362.838 109.145 362.442 108.248 362.571 107.424C362.7 106.601 363.352 105.868 364.446 105.39C365.533 104.914 366.993 104.727 368.56 104.973C370.127 105.218 371.459 105.843 372.349 106.629C373.244 107.419 373.64 108.317 373.511 109.14C373.382 109.963 372.73 110.697 371.636 111.175C370.549 111.65 369.089 111.837 367.522 111.592Z" stroke="#242D1F"/>
<path d="M371.836 108.877L368.099 106.732L368.656 108.378L371.836 108.877Z" fill="#4A564E" stroke="black" stroke-width="0.01"/>
<path d="M371.836 108.877L368.655 108.378L367.622 109.775L371.836 108.877Z" fill="#232D26"/>
<path d="M368.655 108.379L368.099 106.732L367.065 108.129L367.622 109.775L368.655 108.379Z" fill="#1B2217"/>
<path d="M366.27 108.004L367.304 106.608L363.884 107.63L366.27 108.004Z" fill="#4A564E" stroke="black" stroke-width="0.01"/>
<path d="M366.826 109.65L366.27 108.004L363.884 107.63L366.826 109.65Z" fill="#232D26"/>
</g>
<path d="M335.44 78.4336V78.3803L335.428 78.3283C333.71 70.3515 335.544 63.8884 340.103 58.6444C344.684 53.375 352.047 49.3023 361.439 46.2212C380.222 40.0597 406.896 37.9336 434.906 37.9336C462.862 37.9336 487.421 43.619 504.974 51.8696C513.752 55.9954 520.759 60.7538 525.564 65.7461C530.372 70.7418 532.939 75.9316 532.939 80.9336C532.939 85.9155 530.392 90.3106 525.612 94.1238C520.824 97.9437 513.831 101.148 505.047 103.72C487.483 108.862 462.903 111.434 434.906 111.434C406.917 111.434 381.982 108.239 364.061 102.474C355.099 99.591 347.923 96.0749 342.997 92.0192C338.075 87.967 335.44 83.4134 335.44 78.4336Z" fill="#FCE300" stroke="#FCA600"/>
<path d="M536.872 69.9336C536.872 74.914 534.143 79.7207 529.069 84.1537C523.997 88.5858 516.629 92.5999 507.48 95.9811C489.187 102.742 463.882 106.934 435.906 106.934C407.93 106.934 382.625 102.742 364.332 95.9811C355.183 92.5999 347.815 88.5858 342.742 84.1537C337.669 79.7207 334.94 74.914 334.94 69.9336C334.94 64.9532 337.669 60.1464 342.742 55.7134C347.815 51.2813 355.183 47.2672 364.332 43.8861C382.625 37.1252 407.93 32.9336 435.906 32.9336C463.882 32.9336 489.187 37.1252 507.48 43.8861C516.629 47.2672 523.997 51.2813 529.069 55.7134C534.143 60.1464 536.872 64.9532 536.872 69.9336Z" fill="#FCE300" stroke="#FCA600"/>
<path d="M528.589 69.9336C528.589 74.4825 526.101 78.6046 521.458 82.2519C516.811 85.9022 510.053 89.0353 501.651 91.5877C484.853 96.6907 461.61 99.4336 435.906 99.4336C410.202 99.4336 386.96 96.6907 370.161 91.5877C361.759 89.0353 355.001 85.9022 350.354 82.2519C345.711 78.6046 343.223 74.4825 343.223 69.9336C343.223 65.3758 345.72 60.9717 350.375 56.9049C355.028 52.8391 361.79 49.1548 370.189 46.0507C386.983 39.8438 410.218 35.9948 435.906 35.9948C461.595 35.9948 484.829 39.8438 501.623 46.0507C510.022 49.1548 516.785 52.8391 521.438 56.9049C526.092 60.9717 528.589 65.3758 528.589 69.9336Z" fill="#FFD600" stroke="#FCA600"/>
<g opacity="0.6">
<path d="M435.125 90.5683H410.786L407.829 51.491H438.505L435.125 90.5683Z" fill="#A9A9A9" stroke="#242D1F"/>
<path d="M435.937 79.6583H425.119V78.9522H421.604V78.0108H425.119V76.5986H421.604V75.6571H425.119V74.2449H421.604V73.3035H432.962C432.97 69.5422 431.339 66.0072 429.176 66.0072" stroke="#242D1F"/>
<path d="M409.975 80.4253H425.137V78.9522H421.639V78.0107H425.137V76.5985H421.639V75.6571H425.137V74.2406L421.639 74.2406L418.76 74.2406L417.321 74.2406L413.491 74.2406C413.491 68.5961 415.384 66.0071 417.006 66.0071" stroke="#242D1F"/>
<path d="M414.206 84.3682H421.806V90.5529L410.786 90.5529" stroke="#242D1F"/>
<path d="M431.712 84.3682H424.175V90.5529H435.125" stroke="#242D1F"/>
<path d="M417.006 65.7717V72.7691C417.006 72.7691 418.935 72.6661 418.935 71.3261V68.2337C418.935 65.7598 418.935 65.7598 421.777 65.7598H424.62C427.462 65.7598 427.462 65.7598 427.462 68.2337V71.3261C427.462 72.6661 429.446 72.7691 429.446 72.7691V65.7598C429.446 63.1312 429.121 63.1828 424.561 63.1828H420.83C417.277 63.1828 417.006 63.1948 417.006 65.7717Z" fill="#A9A9A9" stroke="#242D1F"/>
<path d="M416.56 54.8144C413.882 54.8144 411.909 56.7131 411.909 59.1207V64.3303H407.5V51.6818H438.682V64.3303H434.544V59.1207C434.544 57.8631 433.806 56.7782 432.802 56.0286C431.795 55.2766 430.464 54.8144 429.138 54.8144C427.798 54.8144 426.722 55.2879 425.984 56.0909C425.252 56.8876 424.89 57.9673 424.89 59.1207V62.5359H421.462V59.1207C421.462 56.6766 419.196 54.8144 416.56 54.8144Z" fill="#A9A9A9" stroke="#242D1F"/>
<path d="M436.254 51.8016H410.198L423.326 42.0001L436.254 51.8016Z" fill="#A9A9A9" stroke="#242D1F"/>
<path d="M407.5 51.6818H438.682V53.9803H407.5V51.6818Z" fill="#A9A9A9" stroke="#242D1F"/>
<path d="M425.93 58.3527C426.885 56.8606 429.049 56.3246 430.763 57.1556" stroke="#242D1F"/>
<path d="M430.298 58.4756C430.298 59.1764 429.621 59.8585 428.635 59.8585C427.648 59.8585 426.971 59.1764 426.971 58.4756C426.971 57.7748 427.648 57.0927 428.635 57.0927C429.621 57.0927 430.298 57.7748 430.298 58.4756Z" fill="#A9A9A9" stroke="#242D1F"/>
<mask id="path-93-inside-7_54_660" fill="white">
<ellipse cx="428.635" cy="58.4755" rx="0.540871" ry="0.470728"/>
</mask>
<ellipse cx="428.635" cy="58.4755" rx="0.540871" ry="0.470728" fill="#A9A9A9"/>
<path d="M428.176 58.4755C428.176 58.2805 428.269 58.134 428.361 58.0541C428.451 57.9759 428.55 57.9463 428.635 57.9463L428.635 59.9463C429.351 59.9463 430.176 59.4137 430.176 58.4755H428.176ZM428.635 57.9463C428.719 57.9463 428.819 57.9759 428.909 58.0541C429.001 58.134 429.094 58.2805 429.094 58.4755L427.094 58.4755C427.094 59.4137 427.919 59.9463 428.635 59.9463L428.635 57.9463ZM429.094 58.4755C429.094 58.6706 429.001 58.8171 428.909 58.897C428.819 58.9752 428.719 59.0048 428.635 59.0048V57.0048C427.919 57.0048 427.094 57.5374 427.094 58.4755L429.094 58.4755ZM428.635 59.0048C428.55 59.0048 428.451 58.9752 428.361 58.897C428.269 58.8171 428.176 58.6706 428.176 58.4755H430.176C430.176 57.5374 429.351 57.0048 428.635 57.0048V59.0048Z" fill="#242D1F" mask="url(#path-93-inside-7_54_660)"/>
<path d="M420.487 58.3528C419.532 56.8607 417.368 56.3248 415.654 57.1557" stroke="#242D1F"/>
<path d="M416.154 58.4754C416.154 59.1762 416.831 59.8583 417.817 59.8583C418.804 59.8583 419.481 59.1762 419.481 58.4754C419.481 57.7746 418.804 57.0925 417.817 57.0925C416.831 57.0925 416.154 57.7746 416.154 58.4754Z" fill="#A9A9A9" stroke="#242D1F"/>
<mask id="path-97-inside-8_54_660" fill="white">
<ellipse cx="0.540871" cy="0.470728" rx="0.540871" ry="0.470728" transform="matrix(-1 0 0 1 418.358 58.0047)"/>
</mask>
<ellipse cx="0.540871" cy="0.470728" rx="0.540871" ry="0.470728" transform="matrix(-1 0 0 1 418.358 58.0047)" fill="#A9A9A9"/>
<path d="M418.277 58.4755C418.277 58.2804 418.183 58.134 418.091 58.054C418.002 57.9758 417.902 57.9462 417.817 57.9462V59.9462C417.101 59.9462 416.277 59.4136 416.277 58.4755L418.277 58.4755ZM417.817 57.9462C417.733 57.9462 417.633 57.9758 417.543 58.054C417.451 58.134 417.358 58.2804 417.358 58.4755L419.358 58.4755C419.358 59.4136 418.533 59.9462 417.817 59.9462V57.9462ZM417.358 58.4755C417.358 58.6705 417.451 58.817 417.543 58.8969C417.633 58.9751 417.733 59.0047 417.817 59.0047V57.0047C418.533 57.0047 419.358 57.5373 419.358 58.4755L417.358 58.4755ZM417.817 59.0047C417.902 59.0047 418.002 58.9751 418.091 58.8969C418.183 58.817 418.277 58.6705 418.277 58.4755L416.277 58.4755C416.277 57.5373 417.101 57.0047 417.817 57.0047V59.0047Z" fill="#242D1F" mask="url(#path-97-inside-8_54_660)"/>
<path d="M426.091 47.9419C426.091 49.1722 424.921 50.2836 423.326 50.2836C421.731 50.2836 420.561 49.1722 420.561 47.9419C420.561 46.7115 421.731 45.6001 423.326 45.6001C424.921 45.6001 426.091 46.7115 426.091 47.9419Z" stroke="#242D1F"/>
<path d="M423.326 46.1334L422.02 48.0279L423.326 47.649V46.1334Z" fill="#4A564E" stroke="black" stroke-width="0.01"/>
<path d="M423.326 46.1334V47.649L424.632 48.0279L423.326 46.1334Z" fill="#232D26"/>
<path d="M423.326 47.6491L422.02 48.028L423.326 48.4069L424.632 48.028L423.326 47.6491Z" fill="#1B2217"/>
<path d="M423.326 48.7858L422.02 48.4069L423.326 49.9225V48.7858Z" fill="#4A564E" stroke="black" stroke-width="0.01"/>
<path d="M424.632 48.4069L423.326 48.7858V49.9225L424.632 48.4069Z" fill="#232D26"/>
</g>
<path d="M364.311 117.55L364.316 117.497L364.31 117.444C363.383 109.337 365.843 103.085 370.894 98.3139C375.97 93.5196 383.697 90.1892 393.346 88.0448C412.643 83.7566 439.397 84.2588 467.272 87.008C495.093 89.7519 518.976 97.8203 535.634 107.754C543.964 112.721 550.47 118.144 554.762 123.584C559.057 129.028 561.103 134.445 560.612 139.422C560.123 144.38 557.156 148.504 552.025 151.83C546.885 155.161 539.611 157.664 530.617 159.361C512.634 162.755 487.92 162.901 460.058 160.153C432.204 157.406 407.703 151.779 390.435 144.284C381.799 140.535 375.002 136.331 370.498 131.812C365.998 127.296 363.822 122.506 364.311 117.55Z" fill="#FCE300" stroke="#FCA600"/>
<path d="M565.605 128.861C565.116 133.818 561.928 138.333 556.444 142.247C550.961 146.16 543.235 149.431 533.798 151.898C514.93 156.831 489.335 158.519 461.495 155.773C433.654 153.027 408.882 146.372 391.341 137.848C382.569 133.586 375.63 128.868 371.017 123.959C366.403 119.05 364.159 113.998 364.647 109.042C365.136 104.085 368.324 99.5698 373.808 95.6561C379.291 91.7432 387.018 88.4717 396.454 86.0049C415.323 81.0722 440.917 79.3844 468.758 82.1303C496.598 84.8761 521.37 91.5312 538.911 100.055C547.684 104.318 554.623 109.036 559.236 113.944C563.849 118.854 566.094 123.905 565.605 128.861Z" fill="#FCE300" stroke="#FCA600"/>
<path d="M557.362 128.049C556.916 132.576 554.035 136.433 549.056 139.607C544.073 142.784 537.041 145.239 528.429 146.954C511.21 150.384 487.811 150.832 462.231 148.309C436.651 145.786 413.79 140.776 397.573 134.048C389.462 130.684 383.045 126.902 378.779 122.814C374.516 118.728 372.444 114.382 372.891 109.855C373.338 105.319 376.256 101.181 381.287 97.591C386.316 94.0015 393.407 90.9987 402.071 88.7339C419.393 84.2054 442.893 82.6554 468.458 85.1767C494.022 87.6981 516.766 93.809 532.871 101.634C540.924 105.548 547.292 109.878 551.524 114.381C555.756 118.885 557.81 123.513 557.362 128.049Z" fill="#FFD600" stroke="#FCA600"/>
<g opacity="0.6">
<path d="M506.596 123.213L496.637 150.127L417.571 124.591L430.122 90.6698L506.596 123.213Z" fill="#A9A9A9" stroke="#242D1F"/>
<path d="M485.191 114.274L480.765 126.236L479.358 125.715L477.92 129.603L476.044 128.909L477.482 125.021L474.669 123.98L473.23 127.868L471.355 127.174L472.793 123.286L469.98 122.245L468.541 126.133L466.665 125.439L471.313 112.879C463.822 110.096 456.112 109.294 455.227 111.687" stroke="#242D1F"/>
<path d="M476.097 143.548L482.301 126.781L479.365 125.695L477.934 129.563L476.059 128.869L477.49 125.001L474.676 123.96L473.245 127.828L471.369 127.134L472.8 123.266L469.978 122.222L468.547 126.09L467.369 129.274L466.78 130.865L465.213 135.101C453.967 130.94 449.584 126.938 450.248 125.144" stroke="#242D1F"/>
<path d="M449.779 124.97L463.72 130.128C463.72 130.128 464.304 127.92 461.634 126.932L455.473 124.652C450.544 122.829 450.544 122.829 451.707 119.686L452.87 116.542C454.033 113.399 454.033 113.399 458.962 115.223L465.123 117.502C467.793 118.49 468.81 116.372 468.81 116.372L454.844 111.205C449.607 109.268 449.577 109.666 447.711 114.708L446.185 118.834C444.731 122.763 444.644 123.071 449.779 124.97Z" fill="#A9A9A9" stroke="#242D1F"/>
<path d="M428.292 117.582C427.712 119.148 428.233 120.794 429.372 122.195C430.512 123.599 432.314 124.821 434.473 125.62L445.379 129.655L443.513 134.698L417.258 124.984L430.078 90.3355L456.333 100.05L454.578 104.794L443.671 100.758C441.478 99.9467 439.219 99.9246 437.365 100.467C435.523 101.007 434.009 102.129 433.438 103.672C432.853 105.255 433.432 106.798 434.621 108.087C435.805 109.372 437.645 110.474 439.784 111.266L447.115 113.978L445.651 117.936L438.319 115.224C436.149 114.421 433.954 114.25 432.148 114.646C430.35 115.041 428.869 116.023 428.292 117.582Z" fill="#A9A9A9" stroke="#242D1F"/>
<path d="M429.82 93.3872L419.159 122.2L405.002 100.458L429.82 93.3872Z" fill="#A9A9A9" stroke="#242D1F"/>
<path d="M417.258 124.984L430.078 90.3355L435.712 92.4201L422.892 127.069L417.258 124.984Z" fill="#A9A9A9" stroke="#242D1F"/>
<path d="M438.648 109.633C436.066 107.477 435.884 104.689 438.241 103.406" stroke="#242D1F"/>
<path d="M440.711 104.809C441.672 105.165 442.427 105.727 442.88 106.325C443.337 106.927 443.447 107.502 443.282 107.947C443.117 108.392 442.66 108.757 441.92 108.917C441.188 109.076 440.248 109.011 439.288 108.656C438.328 108.301 437.572 107.738 437.119 107.141C436.662 106.538 436.552 105.963 436.717 105.518C436.882 105.073 437.339 104.708 438.079 104.548C438.811 104.39 439.751 104.454 440.711 104.809Z" fill="#A9A9A9" stroke="#242D1F"/>
<mask id="path-117-inside-9_54_660" fill="white">
<ellipse cx="439.999" cy="106.733" rx="0.637716" ry="1" transform="rotate(-69.6956 439.999 106.733)"/>
</mask>
<ellipse cx="439.999" cy="106.733" rx="0.637716" ry="1" transform="rotate(-69.6956 439.999 106.733)" fill="#A9A9A9"/>
<path d="M439.874 107.072C439.982 107.112 440.024 107.162 440.022 107.159C440.02 107.156 439.993 107.121 439.976 107.049C439.958 106.971 439.954 106.857 439.999 106.733L441.875 107.427C442.096 106.831 441.869 106.285 441.616 105.951C441.355 105.606 440.978 105.348 440.568 105.197L439.874 107.072ZM439.999 106.733C440.045 106.608 440.123 106.525 440.188 106.478C440.247 106.434 440.291 106.424 440.294 106.424C440.298 106.423 440.233 106.433 440.125 106.393L439.431 108.269C439.841 108.42 440.295 108.47 440.718 108.378C441.127 108.29 441.655 108.023 441.875 107.427L439.999 106.733ZM440.125 106.393C440.017 106.353 439.975 106.304 439.977 106.306C439.979 106.309 440.006 106.345 440.023 106.417C440.041 106.494 440.045 106.608 439.999 106.733L438.124 106.039C437.903 106.635 438.13 107.181 438.383 107.514C438.644 107.859 439.021 108.117 439.431 108.269L440.125 106.393ZM439.999 106.733C439.954 106.857 439.876 106.941 439.811 106.988C439.752 107.031 439.708 107.041 439.704 107.042C439.701 107.042 439.766 107.033 439.874 107.072L440.568 105.197C440.158 105.045 439.704 104.996 439.281 105.087C438.872 105.176 438.344 105.443 438.124 106.039L439.999 106.733Z" fill="#242D1F" mask="url(#path-117-inside-9_54_660)"/>
<path d="M436.421 115.652C433.058 115.608 431.105 117.606 432.059 120.114" stroke="#242D1F"/>
<path d="M434.862 120.618C435.822 120.973 436.762 121.038 437.494 120.879C438.234 120.719 438.691 120.354 438.856 119.909C439.021 119.464 438.911 118.889 438.454 118.286C438.001 117.689 437.246 117.126 436.285 116.771C435.325 116.416 434.385 116.351 433.653 116.51C432.913 116.67 432.456 117.035 432.291 117.48C432.126 117.925 432.236 118.5 432.693 119.103C433.146 119.7 433.902 120.263 434.862 120.618Z" fill="#A9A9A9" stroke="#242D1F"/>
<mask id="path-121-inside-10_54_660" fill="white">
<ellipse cx="0.637716" cy="1" rx="0.637716" ry="1" transform="matrix(-0.347007 0.937863 0.937863 0.347007 434.857 117.749)"/>
</mask>
<ellipse cx="0.637716" cy="1" rx="0.637716" ry="1" transform="matrix(-0.347007 0.937863 0.937863 0.347007 434.857 117.749)" fill="#A9A9A9"/>
<path d="M435.699 118.355C435.807 118.395 435.872 118.385 435.869 118.385C435.865 118.386 435.822 118.396 435.762 118.439C435.697 118.486 435.62 118.57 435.574 118.694L437.449 119.388C437.229 119.985 436.701 120.251 436.292 120.34C435.869 120.432 435.416 120.382 435.005 120.23L435.699 118.355ZM435.574 118.694C435.528 118.819 435.532 118.933 435.551 119.011C435.567 119.082 435.594 119.118 435.596 119.121C435.598 119.124 435.556 119.074 435.448 119.034L436.142 117.158C436.552 117.31 436.929 117.568 437.19 117.913C437.443 118.246 437.67 118.792 437.449 119.388L435.574 118.694ZM435.448 119.034C435.34 118.994 435.276 119.004 435.279 119.003C435.283 119.003 435.326 118.993 435.385 118.949C435.45 118.902 435.528 118.819 435.574 118.694L433.698 118C433.918 117.404 434.446 117.137 434.855 117.049C435.278 116.957 435.732 117.007 436.142 117.158L435.448 119.034ZM435.574 118.694C435.62 118.57 435.615 118.456 435.597 118.378C435.58 118.306 435.553 118.271 435.551 118.268C435.549 118.265 435.592 118.315 435.699 118.355L435.005 120.23C434.595 120.079 434.218 119.821 433.957 119.476C433.704 119.143 433.477 118.596 433.698 118L435.574 118.694Z" fill="#242D1F" mask="url(#path-121-inside-10_54_660)"/>
<path d="M418.003 101.696C419.491 102.247 420.673 103.122 421.39 104.068C422.112 105.019 422.323 105.978 422.034 106.759C421.744 107.541 420.96 108.131 419.794 108.384C418.634 108.635 417.166 108.53 415.678 107.98C414.19 107.429 413.008 106.553 412.291 105.608C411.57 104.656 411.359 103.698 411.648 102.917C411.937 102.135 412.721 101.545 413.888 101.292C415.048 101.041 416.515 101.146 418.003 101.696Z" stroke="#242D1F"/>
<path d="M413.238 103.505L416.478 106.346L416.257 104.622L413.238 103.505Z" fill="#4A564E" stroke="black" stroke-width="0.01"/>
<path d="M413.238 103.505L416.257 104.622L417.547 103.457L413.238 103.505Z" fill="#232D26"/>
<path d="M416.257 104.622L416.478 106.346L417.767 105.181L417.547 103.457L416.257 104.622Z" fill="#1B2217"/>
<path d="M418.522 105.46L417.233 106.625L420.787 106.298L418.522 105.46Z" fill="#4A564E" stroke="black" stroke-width="0.01"/>
<path d="M418.302 103.736L418.522 105.46L420.787 106.298L418.302 103.736Z" fill="#232D26"/>
</g>
<path d="M225.289 75.0594L225.281 75.0068L225.263 74.9569C222.396 67.3175 223.264 60.6556 227.006 54.8008C230.766 48.9177 237.454 43.8112 246.294 39.3886C263.972 30.5446 290.049 24.5373 317.757 20.4379C345.412 16.3462 370.539 18.376 389.11 23.9688C398.397 26.7655 406.025 30.4471 411.509 34.6825C416.997 38.9206 420.296 43.6788 421.028 48.6269C421.757 53.5552 419.88 58.2758 415.71 62.7475C411.533 67.227 405.084 71.4209 396.771 75.2505C380.149 82.9078 356.21 89.0488 328.514 93.1464C300.827 97.2428 275.692 97.7319 257.121 94.652C247.834 93.1117 240.22 90.6838 234.753 87.3928C229.291 84.1045 226.018 79.9856 225.289 75.0594Z" fill="#FCE300" stroke="#FCA600"/>
<path d="M423.309 37.1697C424.037 42.0965 422.041 47.251 417.671 52.3788C413.302 57.5055 406.6 62.5548 398.045 67.2385C380.938 76.6039 356.519 84.454 328.845 88.5485C301.17 92.643 275.524 92.2001 256.438 88.1894C246.893 86.1836 239.017 83.2912 233.35 79.6492C227.683 76.0064 224.279 71.6509 223.55 66.7241C222.821 61.7973 224.818 56.6429 229.188 51.5151C233.557 46.3884 240.259 41.339 248.814 36.6553C265.921 27.29 290.34 19.4398 318.014 15.3454C345.689 11.2509 371.335 11.6938 390.421 15.7045C399.966 17.7102 407.842 20.6027 413.509 24.2447C419.176 27.8874 422.58 32.243 423.309 37.1697Z" fill="#FCE300" stroke="#FCA600"/>
<path d="M415.115 38.382C415.781 42.882 413.922 47.3238 409.863 51.6115C405.801 55.9026 399.574 59.991 391.636 63.7455C375.765 71.2522 353.175 77.3672 327.747 81.1292C302.32 84.8912 278.927 85.5796 261.562 82.9901C252.877 81.695 245.733 79.5846 240.602 76.6538C235.475 73.7252 232.41 70.0118 231.744 65.5118C231.077 61.0031 232.904 56.2809 236.912 51.5768C240.92 46.8737 247.07 42.2394 254.925 37.9394C270.63 29.3414 293.051 22.1333 318.463 18.3736C343.874 14.6139 367.422 15.0209 384.944 18.7029C393.707 20.5444 400.935 23.1993 406.133 26.5404C411.333 29.8822 414.448 33.8733 415.115 38.382Z" fill="#FFD600" stroke="#FCA600"/>
<g opacity="0.6">
<path d="M276.433 75.1335L270.166 47.1289L350.416 25.5981L358.314 60.8935L276.433 75.1335Z" fill="#A9A9A9" stroke="#242D1F"/>
<path d="M299.259 71.0057L296.474 58.5592L297.938 58.2316L297.032 54.1865L298.984 53.7498L299.889 57.7949L302.817 57.1397L301.912 53.0946L303.864 52.6579L304.769 56.703L307.696 56.0479L306.791 52.0027L308.743 51.566L311.667 64.6348C319.467 62.8997 326.375 59.383 325.818 56.8937" stroke="#242D1F"/>
<path d="M290.984 41.49L294.888 58.9355L297.942 58.2521L297.042 54.2277L298.993 53.7909L299.894 57.8154L302.822 57.1602L301.921 53.1358L303.873 52.6991L304.773 56.7235L307.71 56.0664L306.809 52.042L306.068 48.7292L305.697 47.0729L304.711 42.6659C316.413 40.0474 322.267 41.0244 322.685 42.8914" stroke="#242D1F"/>
<path d="M283.9 48.1871L285.857 56.9324L273.035 59.8016L270.198 47.1217" stroke="#242D1F"/>
<path d="M288.408 68.3304L286.467 59.6579L273.645 62.5271L276.465 75.1263" stroke="#242D1F"/>
<path d="M323.173 42.7822L308.667 46.0284C308.667 46.0284 309.377 48.1996 312.155 47.578L318.566 46.1434C323.694 44.9957 323.694 44.9957 324.426 48.2663L325.158 51.5369C325.89 54.8075 325.89 54.8075 320.761 55.9552L314.351 57.3898C311.573 58.0115 311.87 60.3419 311.87 60.3419L326.401 57.0901C331.85 55.8707 331.659 55.5199 330.485 50.2733L329.525 45.9806C328.61 41.8923 328.515 41.5867 323.173 42.7822Z" fill="#A9A9A9" stroke="#242D1F"/>
<path d="M345.225 37.3079C344.86 35.6775 343.529 34.5793 341.811 34.0217C340.091 33.4635 337.914 33.4165 335.668 33.919L324.32 36.4586L323.146 31.2112L350.464 25.0979L358.532 61.1503L331.213 67.2636L330.109 62.3274L341.457 59.7879C343.74 59.2771 345.648 58.068 346.91 56.6047C348.162 55.1515 348.823 53.3861 348.464 51.7806C348.095 50.1341 346.771 49.1539 345.072 48.7172C343.379 48.2821 341.236 48.3567 339.011 48.8548L331.382 50.5619L330.46 46.4434L338.089 44.7363C340.347 44.231 342.283 43.1817 343.583 41.8678C344.878 40.5584 345.588 38.9294 345.225 37.3079Z" fill="#A9A9A9" stroke="#242D1F"/>
<path d="M357.091 58.4483L350.382 28.4677L374.081 39.0259L357.091 58.4483Z" fill="#A9A9A9" stroke="#242D1F"/>
<path d="M350.464 25.0979L358.532 61.1503L352.67 62.4622L344.602 26.4097L350.464 25.0979Z" fill="#A9A9A9" stroke="#242D1F"/>
<path d="M340.851 49.6088C344.19 50.0151 345.859 52.2561 344.577 54.6142" stroke="#242D1F"/>
<path d="M341.741 54.7787C340.742 55.0023 339.802 54.9404 339.097 54.6851C338.386 54.4274 337.981 54.0048 337.877 53.5416C337.774 53.0784 337.96 52.5237 338.493 51.9874C339.022 51.4561 339.846 50.9995 340.845 50.7759C341.844 50.5523 342.784 50.6142 343.489 50.8695C344.2 51.1272 344.605 51.5498 344.709 52.013C344.812 52.4762 344.626 53.0309 344.093 53.5671C343.564 54.0985 342.74 54.5551 341.741 54.7787Z" fill="#A9A9A9" stroke="#242D1F"/>
<mask id="path-143-inside-11_54_660" fill="white">
<ellipse cx="341.293" cy="52.7773" rx="0.637716" ry="1" transform="rotate(77.3863 341.293 52.7773)"/>
</mask>
<ellipse cx="341.293" cy="52.7773" rx="0.637716" ry="1" transform="rotate(77.3863 341.293 52.7773)" fill="#A9A9A9"/>
<path d="M341.214 52.4237C341.102 52.4488 341.039 52.4304 341.042 52.4315C341.046 52.4329 341.087 52.4482 341.141 52.4994C341.198 52.5546 341.264 52.648 341.293 52.7773L339.341 53.214C339.48 53.8343 339.967 54.1694 340.361 54.312C340.767 54.4593 341.224 54.471 341.651 54.3755L341.214 52.4237ZM341.293 52.7773C341.322 52.9066 341.302 53.0192 341.274 53.0937C341.247 53.1627 341.216 53.1942 341.213 53.197C341.211 53.1993 341.26 53.1559 341.372 53.1308L340.935 51.1791C340.509 51.2746 340.101 51.4797 339.796 51.7863C339.5 52.0831 339.203 52.5938 339.341 53.214L341.293 52.7773ZM341.372 53.1308C341.484 53.1057 341.547 53.1241 341.544 53.123C341.54 53.1217 341.499 53.1064 341.445 53.0552C341.388 53 341.322 52.9066 341.293 52.7773L343.245 52.3405C343.106 51.7203 342.619 51.3852 342.225 51.2426C341.819 51.0953 341.362 51.0836 340.935 51.1791L341.372 53.1308ZM341.293 52.7773C341.264 52.648 341.284 52.5354 341.312 52.4609C341.339 52.3919 341.37 52.3604 341.373 52.3575C341.375 52.3553 341.326 52.3986 341.214 52.4237L341.651 54.3755C342.077 54.28 342.485 54.0748 342.79 53.7683C343.086 53.4715 343.384 52.9608 343.245 52.3405L341.293 52.7773Z" fill="#242D1F" mask="url(#path-143-inside-11_54_660)"/>
<path d="M339.449 43.3455C342.297 41.5547 342.851 38.8164 340.687 37.2293" stroke="#242D1F"/>
<path d="M338.06 38.3295C337.061 38.5531 336.237 39.0096 335.708 39.541C335.175 40.0772 334.989 40.6319 335.092 41.0952C335.196 41.5584 335.601 41.9809 336.312 42.2386C337.017 42.4939 337.956 42.5558 338.956 42.3322C339.955 42.1086 340.779 41.652 341.308 41.1207C341.841 40.5845 342.027 40.0297 341.923 39.5665C341.82 39.1033 341.415 38.6807 340.704 38.4231C339.999 38.1678 339.059 38.1059 338.06 38.3295Z" fill="#A9A9A9" stroke="#242D1F"/>
<mask id="path-147-inside-12_54_660" fill="white">
<ellipse cx="0.637716" cy="1" rx="0.637716" ry="1" transform="matrix(-0.218377 -0.975865 -0.975865 0.218377 339.623 40.7348)"/>
</mask>
<ellipse cx="0.637716" cy="1" rx="0.637716" ry="1" transform="matrix(-0.218377 -0.975865 -0.975865 0.218377 339.623 40.7348)" fill="#A9A9A9"/>
<path d="M338.587 40.6844C338.475 40.7095 338.426 40.7529 338.428 40.7506C338.431 40.7477 338.462 40.7163 338.488 40.6472C338.517 40.5728 338.537 40.4601 338.508 40.3309L336.556 40.7676C336.417 40.1474 336.715 39.6366 337.01 39.3398C337.315 39.0333 337.723 38.8282 338.15 38.7327L338.587 40.6844ZM338.508 40.3309C338.479 40.2016 338.413 40.1081 338.355 40.0529C338.302 40.0017 338.261 39.9865 338.257 39.9851C338.254 39.984 338.317 40.0024 338.429 39.9773L338.865 41.929C338.439 42.0246 337.982 42.0128 337.576 41.8655C337.182 41.7229 336.695 41.3878 336.556 40.7676L338.508 40.3309ZM338.429 39.9773C338.541 39.9522 338.59 39.9088 338.587 39.9111C338.585 39.914 338.554 39.9455 338.527 40.0145C338.499 40.0889 338.479 40.2016 338.508 40.3309L340.46 39.8941C340.598 40.5143 340.3 41.0251 340.005 41.3219C339.7 41.6284 339.292 41.8335 338.865 41.929L338.429 39.9773ZM338.508 40.3309C338.537 40.4601 338.603 40.5536 338.66 40.6088C338.714 40.66 338.755 40.6752 338.759 40.6766C338.762 40.6777 338.699 40.6593 338.587 40.6844L338.15 38.7327C338.577 38.6372 339.033 38.6489 339.44 38.7962C339.834 38.9388 340.321 39.2739 340.46 39.8941L338.508 40.3309Z" fill="#242D1F" mask="url(#path-147-inside-12_54_660)"/>
<path d="M362.495 45.0514C360.947 45.3979 359.478 45.3053 358.362 44.9011C357.24 44.4945 356.542 43.8048 356.36 42.9915C356.178 42.1783 356.516 41.2568 357.358 40.4107C358.195 39.5695 359.484 38.8598 361.032 38.5134C362.58 38.1669 364.049 38.2595 365.164 38.6637C366.287 39.0703 366.985 39.76 367.167 40.5733C367.349 41.3865 367.011 42.3079 366.169 43.1541C365.332 43.9953 364.043 44.705 362.495 45.0514Z" stroke="#242D1F"/>
<path d="M365.512 40.9435L361.249 40.3196L362.37 41.6466L365.512 40.9435Z" fill="#4A564E" stroke="black" stroke-width="0.01"/>
<path d="M365.512 40.9435L362.37 41.6466L361.921 43.3252L365.512 40.9435Z" fill="#232D26"/>
<path d="M362.37 41.6466L361.248 40.3196L360.799 41.9982L361.921 43.3252L362.37 41.6466Z" fill="#1B2217"/>
<path d="M360.014 42.1739L360.463 40.4954L357.657 42.7013L360.014 42.1739Z" fill="#4A564E" stroke="black" stroke-width="0.01"/>
<path d="M361.135 43.5009L360.014 42.1739L357.657 42.7013L361.135 43.5009Z" fill="#232D26"/>
</g>
</svg>
