<svg width="100" height="100" viewBox="0 0 100 100" fill="none" xmlns="http://www.w3.org/2000/svg">
<path d="M65.7144 86.5551H33.5716L29.6665 27.2589H70.1775L65.7144 86.5551Z" fill="#A9A9A9" stroke="#242D1F"/>
<path d="M66.7855 70H52.4998V68.9286H47.8569V67.5H52.4998V65.3571H47.8569V63.9286H52.4998V61.7857H47.8569V60.3571H62.8569C62.8682 54.6497 60.7141 49.2857 57.8569 49.2857" stroke="#242D1F"/>
<path d="M32.5 71.164H52.5235V68.9286H47.9044V67.5H52.5235V65.3572H47.9044V63.9286H52.5235V61.7792L47.9044 61.7793L44.1022 61.7793L42.201 61.7793L37.1429 61.7792C37.1429 53.2143 39.6429 49.2857 41.7857 49.2857" stroke="#242D1F"/>
<path d="M38.0873 77.1468H48.1249V86.5315L33.5713 86.5316" stroke="#242D1F"/>
<path d="M61.2073 77.1467H51.2534V86.5315H65.7144" stroke="#242D1F"/>
<path d="M41.7856 48.9286V59.5465C41.7856 59.5465 44.3326 59.3901 44.3326 57.3567V52.6643C44.3326 48.9104 44.3326 48.9104 48.0865 48.9104H51.8404C55.5943 48.9104 55.5943 48.9104 55.5943 52.6643V57.3567C55.5943 59.3901 58.2142 59.5465 58.2142 59.5465V48.9104C58.2142 44.9219 57.7841 45.0001 51.7622 45.0001H46.8352C42.1428 45.0001 41.7856 45.0182 41.7856 48.9286Z" fill="#A9A9A9" stroke="#242D1F"/>
<path d="M41.1959 32.5605C37.6738 32.5605 35.2141 35.4066 35.2141 38.8363V47H29.0713V27.2896H70.5713V47H64.7856V38.8363C64.7856 37.0638 63.8785 35.4902 62.5761 34.3727C61.2746 33.2561 59.5415 32.5605 57.8072 32.5605C56.0529 32.5605 54.6705 33.2737 53.7375 34.4399C52.8146 35.5936 52.357 37.1562 52.357 38.8363V44.2771H47.5098V38.8363C47.5098 35.3672 44.6799 32.5605 41.1959 32.5605Z" fill="#A9A9A9" stroke="#242D1F"/>
<path d="M67.2053 27.7301H32.7944L50.1318 12.8571L67.2053 27.7301Z" fill="#A9A9A9" stroke="#242D1F"/>
<path d="M29.0713 27.2896H70.5713V31.2949H29.0713V27.2896Z" fill="#A9A9A9" stroke="#242D1F"/>
<path d="M53.5715 37.671C54.8324 35.4069 57.6899 34.5936 59.9541 35.8544" stroke="#242D1F"/>
<circle cx="57.1428" cy="37.8572" r="2.35714" fill="#A9A9A9" stroke="#242D1F"/>
<circle cx="57.143" cy="37.8572" r="0.5" fill="#A9A9A9" stroke="#242D1F" stroke-width="0.428571"/>
<path d="M46.3826 37.671C45.1217 35.4069 42.2642 34.5936 40 35.8544" stroke="#242D1F"/>
<circle cx="2.85714" cy="2.85714" r="2.35714" transform="matrix(-1 0 0 1 45.7144 35)" fill="#A9A9A9" stroke="#242D1F"/>
<circle cx="0.714286" cy="0.714286" r="0.5" transform="matrix(-1 0 0 1 43.5713 37.1429)" fill="#A9A9A9" stroke="#242D1F" stroke-width="0.428571"/>
<circle cx="50.1319" cy="21.8734" r="3.81211" stroke="#242D1F"/>
<path d="M50.1321 19.1293L48.4072 22.004L50.1321 21.4291V19.1293Z" fill="#4A564E" stroke="black" stroke-width="0.01"/>
<path d="M50.1323 19.1293V21.4291L51.8572 22.004L50.1323 19.1293Z" fill="#232D26"/>
<path d="M50.1321 21.4291L48.4072 22.0041L50.1321 22.579L51.8569 22.0041L50.1321 21.4291Z" fill="#1B2217"/>
<path d="M50.1321 23.154L48.4072 22.579L50.1321 24.8788V23.154Z" fill="#4A564E" stroke="black" stroke-width="0.01"/>
<path d="M51.8572 22.579L50.1323 23.154V24.8788L51.8572 22.579Z" fill="#232D26"/>
<circle cx="50" cy="50" r="49" stroke="white" stroke-width="2"/>
</svg>
