<svg width="100" height="100" viewBox="0 0 100 100" fill="none" xmlns="http://www.w3.org/2000/svg">
<path d="M65.2194 85.6014H34.2207L30.4546 28.416H69.5235L65.2194 85.6014Z" fill="#868686"/>
<path fill-rule="evenodd" clip-rule="evenodd" d="M33.8469 86L30.0283 28.0174H69.9526L65.5885 86H33.8469ZM65.2188 85.6014H34.2201L30.454 28.416H69.5229L65.2188 85.6014Z" fill="#242D1F"/>
<path d="M63.8903 84.2781H34.2267L30.4614 28.4107H68.1935L63.8903 84.2781Z" fill="#A9A9A9"/>
<path fill-rule="evenodd" clip-rule="evenodd" d="M48.0654 76.7051H38.5659V76.3066H48.464V85.6067H48.0654V76.7051Z" fill="#242D1F"/>
<path fill-rule="evenodd" clip-rule="evenodd" d="M51.4532 76.7051H60.8862V76.3065H51.0546V85.6067H51.4532V76.7051Z" fill="#242D1F"/>
<path d="M49.3276 49.6682C58.4285 49.9007 62.68 49.3028 62.0489 60.5959C60.9196 53.8533 62.4143 50.7975 49.3276 50.7975V49.6682Z" fill="#868686"/>
<path fill-rule="evenodd" clip-rule="evenodd" d="M48.929 28.2778H69.9184L66.7701 70.5936H47.999V60.3302H62.001C61.9958 60.1838 61.9907 60.0395 61.9857 59.8972C61.9153 57.9063 61.8588 56.311 61.6684 55.0159C61.4525 53.5482 61.0726 52.5369 60.3629 51.8119C59.6514 51.0852 58.5537 50.5904 56.7766 50.2839C54.9995 49.9774 52.5968 49.8675 49.3276 49.8675H48.929V28.2778ZM62.3999 60.3302C62.4046 60.4615 62.4094 60.5944 62.4143 60.7288H48.3976V70.195H66.4001L69.4891 28.6764H49.3276V49.4689C62.0162 49.4689 62.0743 51.1152 62.384 59.8824C62.3892 60.0296 62.3945 60.1789 62.3999 60.3302Z" fill="#242D1F"/>
<path d="M51.9846 30.005H31.2918L33.4507 73.6161H53.9775V70.6268H49.3607V69.6636H53.9775V67.0064H49.3607V65.711H53.9775V63.4524H38.898C39.2467 53.9437 38.898 50.7311 51.9846 50.7311V30.005Z" fill="#868686"/>
<path d="M50.6555 28.6764H29.9627L33.3174 72.0882H52.6484V70.6268H48.0316V68.335H52.6484V66.6078H48.0316V64.3824H52.6484V62.7216H37.5689C37.9176 53.213 37.5689 49.4025 50.6555 49.4025V28.6764Z" fill="#A9A9A9"/>
<path fill-rule="evenodd" clip-rule="evenodd" d="M51.0545 28.2778H29.5325L32.9488 72.4868H53.0474V70.2282H48.4305V68.7335H53.0474V66.2092H48.4305V64.781H53.0474V62.3231H37.9824C37.9894 62.1267 37.9961 61.9331 38.0028 61.7422C38.071 59.7865 38.1292 58.1141 38.3161 56.6806C38.5334 55.0132 38.9191 53.7247 39.6557 52.7342C41.1176 50.7682 44.102 49.8011 50.6559 49.8011H51.0545V28.2778ZM37.5836 62.3231C37.5789 62.4548 37.5741 62.5877 37.5692 62.7217H52.6488V64.3824H48.0319V66.6078H52.6488V68.335H48.0319V70.6268H52.6488V72.0883H33.3177L29.963 28.6764H50.6559V49.4025C38.0335 49.4025 37.9101 52.9474 37.6043 61.731C37.5976 61.9258 37.5907 62.1231 37.5836 62.3231Z" fill="#242D1F"/>
<path d="M41.7871 50.1603V61.1273C41.7871 61.1273 45.9267 60.267 45.9267 58.306V53.7806C45.9267 50.1603 45.9267 50.1603 49.547 50.1603H53.1673C56.7876 50.1603 56.7876 50.1603 56.7876 53.7806V58.5034C56.7876 60.4644 59.3142 60.2305 59.3142 60.2305V50.1603C59.3142 46.3137 58.8994 46.3892 53.0919 46.3892H48.3402L48.3402 46.3892C43.8149 46.3892 41.7871 46.3892 41.7871 50.1603Z" fill="#868686"/>
<path fill-rule="evenodd" clip-rule="evenodd" d="M62.3885 59.9869C62.3967 60.2159 62.4051 60.4496 62.4138 60.6882L62.0155 60.7029C62.0068 60.4654 61.9985 60.2331 61.9904 60.006C61.9169 57.9525 61.8582 56.3149 61.6567 54.9995C61.4335 53.5421 61.0391 52.5153 60.2837 51.7751C59.5262 51.0328 58.3776 50.5513 56.5837 50.2506C54.7905 49.95 52.3805 49.8343 49.126 49.8011L49.13 49.4025C52.3856 49.4357 54.8229 49.5513 56.6496 49.8575C58.4756 50.1636 59.7196 50.6644 60.5626 51.4904C61.4078 52.3184 61.822 53.4459 62.0507 54.9392C62.256 56.2791 62.3154 57.9417 62.3885 59.9869Z" fill="#242D1F"/>
<path d="M42.1421 49.5135V59.7535C42.1421 59.7535 44.5984 59.6027 44.5984 57.6417V53.1163C44.5984 49.4961 44.5984 49.4961 48.2186 49.4961H51.8389C55.4592 49.4961 55.4592 49.4961 55.4592 53.1163V57.6417C55.4592 59.6027 57.9859 59.7535 57.9859 59.7535V49.496C57.9859 45.6495 57.571 45.7249 51.7635 45.7249H47.0119C42.4865 45.7249 42.1421 45.7424 42.1421 49.5135Z" fill="#A9A9A9"/>
<path fill-rule="evenodd" clip-rule="evenodd" d="M41.7437 60.1773V49.5135C41.7437 48.5751 41.7641 47.8299 41.8754 47.2549C41.9891 46.6679 42.2079 46.2023 42.6451 45.8831C43.0623 45.5786 43.6215 45.4516 44.306 45.3896C44.9968 45.3271 45.8877 45.3263 47.012 45.3263H51.7636C51.877 45.3263 51.9883 45.3263 52.0978 45.3263C53.3843 45.3259 54.4077 45.3257 55.2106 45.3754C56.0726 45.4288 56.7476 45.542 57.2466 45.8198C57.781 46.1174 58.0687 46.5761 58.2178 47.1899C58.3604 47.7772 58.3846 48.5406 58.3846 49.496V60.1765L57.9623 60.1513L57.986 59.7535V49.496C57.986 45.7234 57.587 45.7235 52.0925 45.7249C51.9849 45.7249 51.8752 45.7249 51.7636 45.7249H47.012C42.4867 45.7249 42.1422 45.7424 42.1422 49.5135V59.7535L42.1667 60.1513L41.7437 60.1773ZM42.5408 59.6964C42.3023 59.7436 42.1422 59.7535 42.1422 59.7535C42.1667 60.1513 42.1668 60.1513 42.167 60.1513L42.1683 60.1512L42.1709 60.151C42.173 60.1509 42.1756 60.1507 42.1788 60.1505C42.1852 60.15 42.1939 60.1493 42.2048 60.1483C42.2265 60.1464 42.2568 60.1434 42.2946 60.139C42.3702 60.13 42.476 60.115 42.6021 60.0905C42.8525 60.0418 43.1924 59.9537 43.5371 59.795C44.2297 59.476 44.9971 58.8367 44.9971 57.6417V53.1163C44.9971 52.2015 44.9977 51.5492 45.0512 51.0674C45.1051 50.5826 45.2054 50.3579 45.3329 50.2304C45.4604 50.1029 45.685 50.0026 46.1698 49.9488C46.6517 49.8952 47.304 49.8946 48.2188 49.8946H51.8391C52.7539 49.8946 53.4062 49.8952 53.888 49.9488C54.3728 50.0026 54.5975 50.1029 54.725 50.2304C54.8525 50.3579 54.9528 50.5826 55.0066 51.0674C55.0602 51.5492 55.0608 52.2015 55.0608 53.1163V57.6417C55.0608 58.843 55.8537 59.4806 56.5598 59.7967C56.9127 59.9547 57.2607 60.0424 57.5172 60.0909C57.6464 60.1153 57.7547 60.1302 57.8319 60.1391C57.8705 60.1436 57.9015 60.1465 57.9237 60.1484C57.9347 60.1494 57.9436 60.1501 57.9501 60.1505C57.9515 60.1506 57.9528 60.1507 57.954 60.1508C57.9555 60.1509 57.9568 60.151 57.958 60.1511L57.9606 60.1512L57.9615 60.1513L57.9619 60.1513C57.9621 60.1513 57.9623 60.1513 57.986 59.7535C57.986 59.7535 57.8264 59.7439 57.5874 59.6985C56.8756 59.5633 55.4594 59.1098 55.4594 57.6417V53.1163C55.4594 51.3062 55.4594 50.4011 55.0068 49.9486C54.5543 49.496 53.6492 49.496 51.8391 49.496H48.2188C46.4086 49.496 45.5036 49.496 45.051 49.9486C44.5985 50.4011 44.5985 51.3062 44.5985 53.1163V57.6417C44.5985 59.102 43.2364 59.5585 42.5408 59.6964Z" fill="#242D1F"/>
<path d="M43.1951 35.3397C40.0985 35.3397 37.6159 37.8335 37.6159 40.9099V49.2651H31.5577L31.4248 47.5757L31.5909 29.292H67.7947V49.2651H63.444V45.2838L65.1703 40.9099C65.1703 37.8335 62.5596 35.3397 59.4629 35.3397C56.3663 35.3397 54.1485 37.8335 54.1485 40.9099V45.317H48.5095V40.9099C48.5095 37.8335 46.2918 35.3397 43.1951 35.3397Z" fill="#868686"/>
<path d="M61.0191 39.272C61.0191 41.1614 59.4428 42.6931 57.4983 42.6931C55.5538 42.6931 53.9775 41.1614 53.9775 39.272C53.9775 37.3825 55.5538 35.8508 57.4983 35.8508C59.4428 35.8508 61.0191 37.3825 61.0191 39.272Z" fill="#868686"/>
<path d="M59.7077 38.637C59.7077 40.1588 58.474 41.3924 56.9522 41.3924C55.4304 41.3924 54.1968 40.1588 54.1968 38.637C54.1968 37.1152 55.4304 35.8815 56.9522 35.8815C58.474 35.8815 59.7077 37.1152 59.7077 38.637Z" fill="#A9A9A9"/>
<path fill-rule="evenodd" clip-rule="evenodd" d="M60.1069 38.637C60.1069 40.3789 58.6948 41.791 56.9528 41.791C55.2109 41.791 53.7988 40.3789 53.7988 38.637C53.7988 36.8951 55.2109 35.483 56.9528 35.483C58.6948 35.483 60.1069 36.8951 60.1069 38.637ZM56.9528 41.3924C58.4746 41.3924 59.7083 40.1588 59.7083 38.637C59.7083 37.1152 58.4746 35.8815 56.9528 35.8815C55.4311 35.8815 54.1974 37.1152 54.1974 38.637C54.1974 40.1588 55.4311 41.3924 56.9528 41.3924Z" fill="#242D1F"/>
<path d="M57.6414 38.637C57.6414 39.0174 57.333 39.3258 56.9525 39.3258C56.5721 39.3258 56.2637 39.0174 56.2637 38.637C56.2637 38.2565 56.5721 37.9481 56.9525 37.9481C57.333 37.9481 57.6414 38.2565 57.6414 38.637Z" fill="#242D1F"/>
<path fill-rule="evenodd" clip-rule="evenodd" d="M58.0406 38.637C58.0406 39.2375 57.5537 39.7244 56.9532 39.7244C56.3526 39.7244 55.8657 39.2375 55.8657 38.637C55.8657 38.0364 56.3526 37.5495 56.9532 37.5495C57.5537 37.5495 58.0406 38.0364 58.0406 38.637ZM56.9532 39.3258C57.3336 39.3258 57.642 39.0174 57.642 38.637C57.642 38.2565 57.3336 37.9481 56.9532 37.9481C56.5727 37.9481 56.2643 38.2565 56.2643 38.637C56.2643 39.0174 56.5727 39.3258 56.9532 39.3258Z" fill="#242D1F"/>
<path d="M40.4258 39.272C40.4258 41.1614 41.9575 42.6931 43.8469 42.6931C45.7364 42.6931 47.2681 41.1614 47.2681 39.272C47.2681 37.3825 45.7364 35.8508 43.8469 35.8508C41.9575 35.8508 40.4258 37.3825 40.4258 39.272Z" fill="#868686"/>
<path d="M40.4203 38.637C40.4203 40.1588 41.6539 41.3924 43.1757 41.3924C44.6975 41.3924 45.9312 40.1588 45.9312 38.637C45.9312 37.1152 44.6975 35.8815 43.1757 35.8815C41.6539 35.8815 40.4203 37.1152 40.4203 38.637Z" fill="#A9A9A9"/>
<path fill-rule="evenodd" clip-rule="evenodd" d="M40.0211 38.637C40.0211 40.3789 41.4332 41.791 43.1751 41.791C44.917 41.791 46.3291 40.3789 46.3291 38.637C46.3291 36.8951 44.917 35.483 43.1751 35.483C41.4332 35.483 40.0211 36.8951 40.0211 38.637ZM43.1751 41.3924C41.6533 41.3924 40.4196 40.1588 40.4196 38.637C40.4196 37.1152 41.6533 35.8815 43.1751 35.8815C44.6969 35.8815 45.9305 37.1152 45.9305 38.637C45.9305 40.1588 44.6969 41.3924 43.1751 41.3924Z" fill="#242D1F"/>
<path d="M42.4865 38.637C42.4865 39.0174 42.795 39.3258 43.1754 39.3258C43.5558 39.3258 43.8643 39.0174 43.8643 38.637C43.8643 38.2565 43.5558 37.9481 43.1754 37.9481C42.795 37.9481 42.4865 38.2565 42.4865 38.637Z" fill="#242D1F"/>
<path fill-rule="evenodd" clip-rule="evenodd" d="M42.0878 38.637C42.0878 39.2375 42.5747 39.7244 43.1753 39.7244C43.7758 39.7244 44.2627 39.2375 44.2627 38.637C44.2627 38.0364 43.7758 37.5495 43.1753 37.5495C42.5747 37.5495 42.0878 38.0364 42.0878 38.637ZM43.1753 39.3258C42.7948 39.3258 42.4864 39.0174 42.4864 38.637C42.4864 38.2565 42.7948 37.9481 43.1753 37.9481C43.5557 37.9481 43.8641 38.2565 43.8641 38.637C43.8641 39.0174 43.5557 39.3258 43.1753 39.3258Z" fill="#242D1F"/>
<path d="M41.8658 34.0111C38.7691 34.0111 36.2865 36.5049 36.2865 39.5813V47.9365H29.3979V27.9634H70.3851V47.9365H63.841V39.5813C63.841 36.5049 61.2302 34.0111 58.1336 34.0111C55.0369 34.0111 52.8192 36.5049 52.8192 39.5813V45.3106H47.1801V39.5813C47.1801 36.5049 44.9624 34.0111 41.8658 34.0111Z" fill="#A9A9A9"/>
<path fill-rule="evenodd" clip-rule="evenodd" d="M36.6858 48.3351H29V27.5648H70.7843V48.3351H63.443V39.5813C63.443 36.7366 61.0225 34.4097 58.1342 34.4097C55.2829 34.4097 53.2184 36.699 53.2184 39.5813V45.7092H46.7822V39.5813C46.7822 36.699 44.7177 34.4097 41.8664 34.4097C38.99 34.4097 36.6858 36.725 36.6858 39.5813V48.3351ZM47.1808 45.3106V39.5813C47.1808 36.5049 44.9631 34.0111 41.8664 34.0111C38.7697 34.0111 36.2872 36.5049 36.2872 39.5813V47.9365H29.3986V27.9634H70.3857V47.9365H63.8416V39.5813C63.8416 36.5049 61.2309 34.0111 58.1342 34.0111C55.0375 34.0111 52.8198 36.5049 52.8198 39.5813V45.3106H47.1808Z" fill="#242D1F"/>
<path d="M66.6571 28.8704H33.4712L50.1914 14.5269L66.6571 28.8704Z" fill="#A9A9A9"/>
<path fill-rule="evenodd" clip-rule="evenodd" d="M32.394 29.2689L50.1931 14L67.7211 29.2689H32.394ZM66.6568 28.8703L50.1911 14.5269L33.4708 28.8703H66.6568Z" fill="#242D1F"/>
<path d="M29.3979 27.9634H70.3851V32.7905H29.3979V27.9634Z" fill="#A9A9A9"/>
<path fill-rule="evenodd" clip-rule="evenodd" d="M29 27.5648H70.7843V33.189H29V27.5648ZM29.3986 27.9634V32.7905H70.3857V27.9634H29.3986Z" fill="#242D1F"/>
<path d="M29.3979 27.9634H70.3851V32.7905H29.3979V27.9634Z" fill="#A9A9A9"/>
<path fill-rule="evenodd" clip-rule="evenodd" d="M29 27.5648H70.7843V33.1891H29V27.5648ZM29.3986 27.9634V32.7905H70.3857V27.9634H29.3986Z" fill="#242D1F"/>
<path d="M69.0571 27.9457H70.3857V32.7951H69.0571V27.9457Z" fill="#868686"/>
<path d="M69.0571 33.1936H70.3857V47.941H69.0571V33.1936Z" fill="#868686"/>
<path d="M48.4634 76.3065H49.792V85.6067H48.4634V76.3065Z" fill="#868686"/>
<path d="M55.7051 22.9967C55.7051 25.5098 53.5191 27.5471 50.8225 27.5471C48.126 27.5471 45.9399 25.5098 45.9399 22.9967C45.9399 20.4835 48.126 18.4462 50.8225 18.4462C53.5191 18.4462 55.7051 20.4835 55.7051 22.9967Z" fill="#868686"/>
<path d="M54.3509 22.6243C54.3509 24.9211 52.489 26.7829 50.1923 26.7829C47.8956 26.7829 46.0337 24.9211 46.0337 22.6243C46.0337 20.3276 47.8956 18.4657 50.1923 18.4657C52.489 18.4657 54.3509 20.3276 54.3509 22.6243Z" fill="#A9A9A9"/>
<path fill-rule="evenodd" clip-rule="evenodd" d="M54.6162 22.6243C54.6162 25.0678 52.6354 27.0487 50.1919 27.0487C47.7484 27.0487 45.7676 25.0678 45.7676 22.6243C45.7676 20.1808 47.7484 18.2 50.1919 18.2C52.6354 18.2 54.6162 20.1808 54.6162 22.6243ZM50.1919 26.7829C52.4887 26.7829 54.3505 24.9211 54.3505 22.6243C54.3505 20.3276 52.4887 18.4657 50.1919 18.4657C47.8952 18.4657 46.0333 20.3276 46.0333 22.6243C46.0333 24.9211 47.8952 26.7829 50.1919 26.7829Z" fill="#242D1F"/>
<path d="M50.1923 19.978L48.5288 22.7504L50.1923 22.1959V19.978Z" fill="#4A564E"/>
<path fill-rule="evenodd" clip-rule="evenodd" d="M48.5273 22.7515L50.1929 19.9755V22.1978L50.1925 22.1964L48.5273 22.7515ZM48.5288 22.7503L50.1923 22.1958V19.9779L48.5288 22.7503Z" fill="black"/>
<path d="M50.1929 19.9779V22.1958L51.8563 22.7503L50.1929 19.9779Z" fill="#232D26"/>
<path d="M50.1923 22.1958L48.5288 22.7503L50.1923 23.3048L51.8557 22.7503L50.1923 22.1958Z" fill="#1B2217"/>
<path d="M50.1923 23.8594L48.5288 23.305L50.1923 25.5229V23.8594Z" fill="#4A564E"/>
<path fill-rule="evenodd" clip-rule="evenodd" d="M48.5269 23.3035L50.1942 23.8593H50.1928V25.5247L48.5269 23.3035ZM48.5287 23.3048L50.1921 25.5227V23.8593L48.5287 23.3048Z" fill="black"/>
<path d="M51.8563 23.3048L50.1929 23.8593V25.5227L51.8563 23.3048Z" fill="#232D26"/>
<path d="M53.2466 70.5936H65.9347V71.9222H53.2466V70.5936Z" fill="#868686"/>
<circle cx="50" cy="50" r="49" stroke="white" stroke-width="2"/>
</svg>
