<svg width="60" height="105" viewBox="0 0 60 105" fill="none" xmlns="http://www.w3.org/2000/svg">
<path d="M52.0001 104.177H7.00006L1.53296 21.1625H58.2483L52.0001 104.177Z" fill="#A9A9A9" stroke="#242D1F"/>
<path d="M53.5 81H33.5V79.5H27V77.5H33.5V74.5H27V72.5H33.5V69.5H27V67.5H48C48.0158 59.5096 45 52 41 52" stroke="#242D1F"/>
<path d="M5.5 82.6296H33.5329V79.5H27.0662V77.5H33.5329V74.5H27.0662V72.5H33.5329V69.4909L27.0662 69.491L21.743 69.491L19.0814 69.491L12 69.4909C12 57.5 15.5 52 18.5 52" stroke="#242D1F"/>
<path d="M13.3223 91.0055H27.375V104.144L7 104.144" stroke="#242D1F"/>
<path d="M45.6902 91.0054H31.7546V104.144H52" stroke="#242D1F"/>
<path d="M18.5 51.5V66.365C18.5 66.365 22.0657 66.1461 22.0657 63.2994V56.7301C22.0657 51.4746 22.0657 51.4746 27.3212 51.4746H32.5766C37.8321 51.4746 37.8321 51.4746 37.8321 56.7301V63.2994C37.8321 66.1461 41.5 66.365 41.5 66.365V51.4745C41.5 45.8906 40.8978 46.0002 32.4672 46.0002H25.5693C19 46.0002 18.5 46.0255 18.5 51.5Z" fill="#A9A9A9" stroke="#242D1F"/>
<path d="M17.6744 28.7847C12.868 28.7847 9.5 32.6652 9.5 37.3709V49H0.5V21.0055H59V49H50.5V37.3709C50.5 34.9604 49.2661 32.8091 47.4764 31.2736C45.6877 29.7389 43.3068 28.7847 40.9302 28.7847C38.5337 28.7847 36.6564 29.7565 35.3889 31.3408C34.1315 32.9126 33.5 35.0528 33.5 37.3709V45.188H26.314V37.3709C26.314 32.6258 22.4428 28.7847 17.6744 28.7847Z" fill="#A9A9A9" stroke="#242D1F"/>
<path d="M54.0875 21.8221H5.91235L30.1847 1L54.0875 21.8221Z" fill="#A9A9A9" stroke="#242D1F"/>
<path d="M0.5 21.0055H59V27.0128H0.5V21.0055Z" fill="#A9A9A9" stroke="#242D1F"/>
<path d="M35.0001 35.7394C36.7653 32.5696 40.7659 31.431 43.9357 33.1962" stroke="#242D1F"/>
<circle cx="40" cy="36.0001" r="3.5" fill="#A9A9A9" stroke="#242D1F"/>
<circle cx="40" cy="36.0001" r="0.5" fill="#A9A9A9" stroke="#242D1F"/>
<path d="M24.9355 35.7394C23.1702 32.5696 19.1697 31.431 15.9999 33.1962" stroke="#242D1F"/>
<circle cx="4" cy="4" r="3.5" transform="matrix(-1 0 0 1 24 32)" fill="#A9A9A9" stroke="#242D1F"/>
<circle cx="1" cy="1" r="0.5" transform="matrix(-1 0 0 1 21 35)" fill="#A9A9A9" stroke="#242D1F"/>
<circle cx="30.1847" cy="13.6227" r="5.53695" stroke="#242D1F"/>
<path d="M30.1848 9.78101L27.77 13.8056L30.1848 13.0007V9.78101Z" fill="#4A564E" stroke="black" stroke-width="0.01"/>
<path d="M30.1848 9.78104V13.0007L32.5996 13.8057L30.1848 9.78104Z" fill="#232D26"/>
<path d="M30.1848 13.0008L27.77 13.8057L30.1848 14.6106L32.5996 13.8057L30.1848 13.0008Z" fill="#1B2217"/>
<path d="M30.1848 15.4156L27.77 14.6106L30.1848 17.8303V15.4156Z" fill="#4A564E" stroke="black" stroke-width="0.01"/>
<path d="M32.5996 14.6107L30.1848 15.4156V17.8304L32.5996 14.6107Z" fill="#232D26"/>
</svg>
